<?xml version="1.0" standalone="no"?>
<!DOCTYPE svg PUBLIC "-//W3C//DTD SVG 20010904//EN"
 "http://www.w3.org/TR/2001/REC-SVG-20010904/DTD/svg10.dtd">
<svg version="1.0" xmlns="http://www.w3.org/2000/svg"
 width="1080.000000pt" height="1080.000000pt" viewBox="0 0 1080.000000 1080.000000"
 preserveAspectRatio="xMidYMid meet">
<metadata>
Created by potrace 1.14, written by Peter Selinger 2001-2017
</metadata>
<g transform="translate(0.000000,1080.000000) scale(0.100000,-0.100000)"
fill="#000000" stroke="none">
<path d="M5164 9661 c-29 -5 -56 -11 -61 -14 -10 -6 -35 -11 -129 -27 -48 -8
-101 -35 -152 -79 -13 -11 -38 -23 -55 -27 -18 -3 -45 -17 -60 -30 -16 -13
-42 -24 -58 -24 -17 0 -36 -8 -46 -20 -10 -11 -33 -25 -53 -31 -19 -7 -56 -34
-82 -60 -26 -27 -49 -49 -53 -49 -7 0 -135 -128 -135 -136 0 -3 -12 -18 -27
-33 -48 -47 -117 -132 -133 -162 -9 -16 -26 -36 -38 -45 -12 -8 -22 -21 -22
-28 0 -8 -11 -21 -25 -30 -14 -9 -25 -23 -25 -31 0 -7 -9 -20 -19 -27 -10 -8
-24 -32 -30 -55 -6 -22 -18 -44 -26 -47 -9 -3 -24 -26 -35 -51 -11 -25 -24
-45 -29 -45 -5 0 -15 -15 -21 -34 -6 -19 -17 -40 -25 -46 -8 -6 -19 -28 -26
-48 -7 -20 -20 -47 -30 -60 -10 -13 -21 -37 -24 -55 -4 -18 -18 -51 -31 -74
-13 -23 -24 -48 -24 -57 0 -15 -52 -151 -77 -199 -8 -16 -20 -64 -28 -108 -8
-44 -23 -95 -33 -112 -11 -18 -22 -52 -25 -75 -3 -24 -14 -54 -25 -65 -13 -14
-23 -44 -27 -82 -5 -38 -15 -68 -27 -82 -14 -14 -23 -43 -27 -85 -4 -35 -17
-79 -28 -98 -13 -21 -23 -61 -26 -102 -4 -45 -13 -77 -26 -95 -14 -20 -22 -52
-27 -108 -4 -48 -15 -96 -27 -120 -16 -33 -22 -70 -28 -200 -4 -88 -15 -198
-23 -244 -29 -159 -48 -601 -35 -822 8 -139 13 -165 34 -205 14 -26 25 -59 25
-74 0 -15 11 -43 24 -63 13 -19 27 -50 31 -68 4 -19 14 -42 22 -51 8 -9 22
-32 31 -50 10 -18 32 -40 50 -49 18 -9 57 -40 87 -68 30 -28 61 -51 69 -51 8
0 31 -14 49 -30 19 -17 40 -30 46 -30 6 0 19 -16 28 -35 9 -19 21 -35 26 -35
5 0 16 -8 24 -17 8 -10 12 -13 9 -7 -3 7 0 14 7 16 22 8 169 -1 181 -12 9 -6
16 -6 23 1 13 13 79 31 116 31 57 1 77 -49 31 -78 -24 -16 -90 -23 -124 -13
-11 3 -16 -5 -18 -29 -5 -47 11 -63 51 -51 17 5 46 6 63 3 21 -4 43 1 71 16
63 33 80 32 118 -2 19 -16 35 -36 35 -42 0 -7 -13 -25 -30 -41 l-30 -28 41
-18 c25 -12 51 -16 70 -12 25 5 36 0 70 -33 22 -22 55 -64 74 -95 20 -32 42
-59 49 -62 8 -3 31 -34 51 -69 20 -35 54 -88 75 -118 22 -30 42 -67 45 -82 4
-16 20 -35 41 -47 19 -11 47 -41 63 -66 18 -28 31 -41 34 -33 3 7 6 3 6 -10 1
-35 29 -82 45 -76 17 7 28 42 15 50 -5 3 -7 10 -4 15 6 9 -19 52 -26 45 -2 -2
-5 5 -5 17 -2 22 -64 121 -123 196 -17 21 -31 43 -31 49 0 5 -6 12 -14 15 -8
3 -21 19 -29 36 -16 33 -55 82 -132 170 -78 89 -95 111 -89 111 4 0 -29 36
-72 79 -78 80 -100 113 -87 133 3 7 1 8 -5 4 -12 -7 -13 -3 -14 67 -2 69 32
103 91 91 16 -4 32 -1 35 5 4 6 14 11 22 11 34 0 43 25 39 106 -2 55 1 87 10
104 8 14 14 19 15 12 0 -7 5 -10 10 -7 6 4 9 1 8 -6 -2 -7 4 -14 12 -15 8 0
21 -2 28 -2 7 -1 10 -7 6 -14 -4 -7 -3 -8 4 -4 11 7 122 -60 173 -103 72 -62
84 -70 93 -61 5 5 16 5 25 0 10 -5 42 -10 73 -12 32 -2 60 -7 64 -10 3 -4 12
-4 20 -1 8 3 25 -3 37 -13 21 -19 21 -19 7 0 -14 18 -14 19 5 9 11 -5 37 -9
57 -8 20 1 35 -2 32 -7 -3 -5 -11 -5 -17 -2 -7 4 -7 1 1 -7 11 -12 15 -11 28
5 12 17 14 17 14 4 0 -9 5 -20 12 -24 8 -5 9 -1 5 12 -7 18 -7 18 8 0 21 -27
59 -34 123 -23 19 3 30 1 26 -4 -3 -5 -9 -7 -14 -4 -4 3 -14 -3 -21 -13 -12
-15 -12 -16 1 -6 8 6 25 10 38 9 13 -1 25 2 28 7 3 4 10 6 15 3 5 -4 12 0 15
9 3 8 14 13 25 11 10 -2 22 3 27 11 5 8 15 16 23 17 8 2 19 6 26 10 6 4 22 8
36 9 16 1 23 7 20 15 -3 8 -2 13 3 12 15 -4 64 13 60 20 -2 3 2 12 10 19 8 7
14 10 14 6 0 -3 6 -1 14 5 7 6 31 12 52 14 22 1 42 7 46 12 5 7 8 6 8 0 0 -6
14 -12 31 -13 26 -2 95 -52 72 -52 -4 0 -1 -4 7 -10 15 -9 16 -25 21 -245 1
-49 6 -95 11 -102 6 -7 5 -14 -2 -18 -15 -9 -2 -25 16 -18 8 3 27 -5 42 -18
14 -13 20 -16 13 -6 -12 15 -12 17 3 11 9 -3 16 -10 16 -16 0 -5 5 -6 12 -2 6
4 8 3 4 -4 -3 -5 10 -20 29 -32 57 -35 62 -88 28 -300 -34 -219 -38 -292 -19
-382 10 -46 20 -100 22 -120 2 -21 12 -46 23 -57 40 -40 112 -161 127 -213 9
-29 24 -98 34 -153 10 -55 24 -122 30 -150 7 -27 14 -59 16 -70 8 -44 44 -174
72 -260 31 -93 42 -141 57 -240 16 -109 32 -171 47 -189 4 -6 8 -20 8 -32 0
-12 9 -33 21 -48 11 -14 18 -26 14 -26 -4 0 1 -7 9 -16 9 -8 13 -20 10 -26 -4
-6 2 -5 15 1 19 10 21 9 21 -11 0 -17 3 -19 9 -9 7 11 9 11 14 0 4 -10 6 -9 6
3 1 9 5 20 11 23 6 4 7 -1 3 -11 -5 -14 -3 -16 12 -11 13 6 15 4 8 -5 -5 -7
-10 -24 -11 -38 -1 -17 1 -21 7 -11 7 11 9 11 14 0 3 -9 6 -10 6 -2 1 6 -3 15
-9 18 -5 3 -10 10 -10 14 0 9 51 9 65 0 6 -4 18 -5 28 -4 9 2 15 -1 11 -6 -3
-5 -11 -6 -17 -3 -9 5 -8 3 0 -6 10 -11 16 -10 34 6 13 10 20 14 16 8 -3 -6 0
-11 8 -11 8 0 12 4 10 8 -3 4 2 10 11 13 10 4 13 2 8 -7 -4 -6 4 -1 18 13 24
24 38 49 44 78 6 31 -31 169 -102 382 -89 264 -81 237 -177 600 -114 433 -119
456 -132 630 -10 118 -40 256 -86 384 -42 117 -47 147 -26 164 17 15 62 -8 61
-31 -1 -9 1 -15 5 -12 9 5 69 -93 74 -120 2 -11 13 -39 25 -62 12 -23 24 -50
26 -60 1 -10 11 -35 20 -55 9 -21 23 -64 31 -95 8 -32 23 -69 33 -83 18 -24
34 -91 33 -138 -1 -13 4 -20 9 -17 6 3 10 5 10 3 5 -62 15 -116 22 -125 6 -7
8 -20 4 -28 -3 -8 0 -15 6 -15 6 0 8 -3 5 -7 -4 -3 -1 -13 6 -21 10 -13 9 -14
-3 -7 -12 7 -13 6 -3 -7 7 -8 10 -18 6 -21 -3 -4 -2 -7 4 -7 6 0 14 -7 17 -16
4 -10 2 -13 -7 -8 -9 6 -9 5 -1 -7 7 -8 12 -36 12 -64 0 -47 7 -91 19 -125 9
-22 11 -29 28 -105 9 -38 21 -77 25 -86 5 -9 16 -61 25 -115 10 -55 23 -110
30 -124 7 -14 18 -48 24 -75 6 -28 18 -79 26 -115 9 -36 20 -84 24 -108 5 -24
14 -48 21 -55 9 -8 11 -8 6 0 -4 7 1 9 14 6 12 -3 20 -2 19 3 -1 5 1 17 5 26
4 9 3 25 -3 36 -6 11 -14 37 -17 58 -3 20 -10 47 -14 59 -10 25 -7 72 5 83 5
4 5 -1 2 -11 -4 -11 -3 -16 3 -12 16 10 12 22 -15 51 -16 18 -23 33 -19 43 13
30 11 66 -5 85 -9 11 -11 16 -5 13 7 -4 15 0 18 9 3 8 2 12 -4 9 -6 -3 -10 1
-10 9 0 8 5 18 12 22 7 5 5 11 -7 21 -11 7 -15 13 -11 13 5 0 3 7 -4 15 -10
12 -9 16 5 21 10 4 13 9 6 13 -6 4 -12 19 -13 34 -1 15 -5 27 -9 27 -4 0 -6 8
-5 18 2 9 -1 20 -6 23 -12 8 -19 47 -9 54 5 2 6 17 4 32 -2 16 -5 33 -5 40 -1
7 -6 9 -11 6 -6 -4 -8 0 -4 10 4 12 1 17 -11 17 -10 0 -13 3 -7 8 16 11 11 60
-7 81 -9 11 -14 21 -12 24 14 14 11 49 -5 59 -16 10 -17 13 -5 26 8 7 12 18 9
23 -4 5 -2 9 4 9 6 0 8 7 5 15 -4 11 0 15 16 15 23 0 53 -24 43 -34 -4 -3 -2
-6 4 -6 5 0 13 3 17 7 13 14 38 12 32 -2 -3 -8 -2 -16 2 -19 4 -3 9 3 10 12 4
37 9 51 22 68 14 16 13 17 -6 12 -31 -8 -52 8 -59 45 -4 17 -18 49 -32 71 -18
28 -24 48 -21 77 2 27 0 39 -9 39 -17 0 -53 59 -53 86 0 11 13 32 28 47 22 22
31 24 41 14 10 -10 12 -9 9 3 -2 9 3 14 12 11 8 -2 31 -5 50 -7 19 -1 37 -4
40 -5 3 -1 8 -1 11 -1 9 1 4 -52 -6 -68 -6 -10 7 -11 61 -5 38 4 74 7 81 8 7
0 10 3 8 7 -2 3 9 11 26 17 22 9 27 8 22 0 -4 -7 5 -4 20 6 15 10 42 17 60 17
37 -2 57 2 76 14 10 7 12 6 6 -4 -6 -10 -4 -11 6 -4 19 12 48 17 89 16 57 -1
71 -5 67 -16 -3 -6 -10 -10 -16 -9 -6 2 -11 -2 -11 -8 0 -6 -26 -35 -57 -65
-32 -30 -51 -53 -43 -52 8 2 18 7 21 11 3 5 33 11 65 13 37 4 75 14 100 29 23
14 44 22 47 19 3 -3 15 -1 26 6 15 8 21 8 21 0 0 -6 4 -8 10 -5 5 3 10 2 10
-3 0 -4 26 -13 58 -19 31 -5 66 -14 76 -18 14 -6 17 -5 12 3 -4 7 -2 12 3 12
6 0 11 -4 11 -10 0 -14 55 -40 83 -40 17 0 26 -7 30 -21 3 -12 10 -18 16 -15
5 4 12 2 16 -4 3 -5 15 -10 26 -10 11 0 30 -7 43 -15 40 -26 237 -33 289 -11
42 19 6 76 -48 76 -24 0 -37 7 -49 25 -12 19 -25 25 -51 25 -28 0 -38 5 -47
25 -6 15 -20 25 -32 26 -45 1 -72 10 -86 29 -11 15 -34 22 -83 28 -49 6 -73
14 -87 30 -16 17 -32 22 -71 22 -41 0 -54 5 -74 26 -17 19 -38 28 -67 31 -71
6 -86 12 -93 33 -5 16 -15 20 -46 20 -30 0 -46 6 -63 25 -24 25 -47 33 -103
34 -20 1 -40 10 -53 23 -18 19 -35 24 -105 29 -70 4 -89 9 -109 28 -20 19 -38
24 -87 26 -51 2 -65 7 -85 29 -18 19 -35 26 -62 26 -25 0 -50 9 -72 25 -21 15
-48 25 -69 25 -20 0 -63 14 -96 30 -33 17 -72 30 -87 30 -15 0 -44 11 -64 25
-20 14 -47 25 -60 25 -27 0 -86 75 -82 104 6 37 33 42 87 17 56 -27 86 -31
151 -19 25 4 63 10 85 13 106 16 202 33 227 41 31 9 132 89 164 129 16 19 41
50 55 67 15 18 30 47 33 64 4 18 15 39 26 49 10 9 21 33 25 53 3 20 17 55 29
77 13 22 26 58 30 79 4 21 15 50 24 65 15 23 17 75 17 551 -1 636 -10 974 -31
1180 -12 114 -16 247 -15 501 1 299 -1 348 -14 353 -9 3 -15 19 -15 41 0 46
-37 221 -55 260 -8 17 -19 53 -25 80 -9 44 -40 121 -73 180 -6 11 -19 36 -28
55 -33 66 -84 134 -116 156 -17 11 -54 48 -82 82 -28 33 -63 69 -77 79 -15 10
-36 28 -49 41 -12 12 -25 22 -29 22 -4 0 -37 25 -73 55 -36 31 -88 67 -116 82
-48 24 -148 98 -155 116 -2 4 -24 21 -48 38 -25 17 -58 43 -74 57 -16 15 -35
32 -43 39 -8 7 -17 16 -18 20 -2 4 -33 33 -69 64 -62 53 -84 68 -175 111 -22
11 -47 24 -55 29 -70 43 -248 104 -335 115 -16 2 -46 6 -65 8 -79 10 -268 14
-316 7z m706 -1081 c12 -12 32 -10 27 3 -5 13 2 13 46 1 29 -8 63 -14 77 -14
14 0 34 -6 45 -13 11 -7 38 -14 60 -16 22 -2 51 -11 65 -20 14 -9 48 -27 75
-40 57 -27 134 -105 167 -171 13 -25 33 -56 45 -70 12 -14 47 -74 77 -134 45
-87 57 -121 61 -170 10 -122 17 -163 46 -268 16 -59 29 -115 29 -123 0 -9 7
-29 15 -44 8 -16 19 -68 25 -117 6 -49 19 -115 30 -146 23 -67 37 -315 21
-376 -5 -20 -12 -50 -14 -67 -3 -16 -10 -41 -16 -55 -6 -14 -17 -77 -26 -140
-8 -63 -22 -144 -30 -180 -8 -36 -15 -99 -15 -140 -1 -173 -43 -384 -100 -500
-55 -112 -61 -122 -135 -235 -39 -60 -97 -136 -127 -167 -48 -49 -60 -56 -85
-52 -15 3 -31 11 -35 19 -5 7 -16 11 -27 8 -19 -5 -61 30 -61 51 0 6 -5 4 -10
-4 -5 -8 -10 -10 -10 -3 0 6 -9 9 -20 6 -11 -3 -20 -9 -20 -13 0 -4 -18 -15
-41 -25 -22 -10 -48 -28 -57 -40 -19 -24 -72 -61 -72 -50 0 4 -7 2 -16 -6 -8
-7 -40 -14 -70 -15 -44 -2 -54 1 -54 15 0 12 -2 13 -9 3 -4 -8 -11 -13 -15
-13 -37 5 -97 -2 -108 -12 -7 -8 -23 -13 -36 -12 -13 1 -26 -3 -29 -8 -3 -6
-1 -7 5 -3 6 3 13 2 16 -3 3 -5 -9 -7 -28 -4 -19 2 -44 -1 -57 -7 -14 -8 -19
-8 -15 -1 5 7 -2 11 -16 12 -38 1 -71 9 -84 20 -7 6 -41 12 -76 14 -35 2 -63
4 -63 5 0 1 -11 3 -25 6 -14 2 -41 7 -60 11 -19 3 -38 6 -42 5 -5 -1 -8 3 -8
9 0 5 -4 8 -8 5 -5 -3 -20 1 -35 9 -15 8 -27 11 -27 8 0 -3 -16 4 -36 16 -19
12 -42 21 -50 21 -8 0 -14 5 -14 11 0 6 -7 8 -16 5 -8 -3 -12 -2 -9 4 3 6 1
11 -4 11 -6 1 -15 2 -20 3 -5 0 -28 18 -50 39 -23 21 -46 35 -53 31 -7 -4 -8
-3 -4 4 6 11 -11 15 -41 11 -3 0 -10 7 -15 16 -7 12 -13 13 -22 5 -10 -7 -17
-6 -27 7 -13 17 -13 17 6 3 18 -14 19 -14 7 2 -7 9 -24 15 -37 14 -18 -2 -22
1 -17 13 5 14 4 14 -11 2 -16 -12 -17 -12 -11 5 7 19 7 19 -14 0 -12 -11 -22
-15 -22 -10 0 5 -5 2 -10 -6 -6 -10 -10 -11 -10 -2 0 6 -9 12 -21 12 -15 0
-19 -5 -15 -16 3 -8 2 -12 -4 -9 -6 3 -10 14 -10 23 0 15 -2 15 -10 2 -5 -8
-10 -12 -10 -7 0 4 1 8 2 10 7 7 -48 57 -59 53 -7 -3 -12 -2 -12 2 1 4 0 10
-1 15 -1 4 -3 10 -4 15 -1 4 -8 18 -16 32 -8 14 -15 30 -16 35 -1 6 -5 24 -8
40 -4 17 -9 55 -12 85 -3 30 -14 79 -25 108 -10 28 -17 52 -14 52 3 0 -5 19
-17 42 -13 25 -23 63 -24 92 -1 46 0 48 14 30 11 -14 13 -15 9 -2 -3 9 3 24
14 34 15 14 17 20 6 32 -10 13 -9 14 2 7 11 -6 13 -4 8 9 -4 10 -3 15 3 11 6
-3 10 0 11 7 1 27 9 84 15 108 3 14 5 25 4 25 -1 0 3 13 9 28 7 18 7 26 1 22
-6 -3 -10 1 -10 10 0 9 3 14 8 11 7 -4 7 35 -2 89 -7 40 -19 375 -17 446 2 69
60 238 97 282 14 18 42 40 61 50 38 20 106 25 126 9 6 -5 35 -13 62 -16 46 -5
80 -13 142 -31 13 -4 20 -11 17 -16 -5 -8 27 -14 51 -9 5 1 17 1 25 1 103 -5
160 4 160 25 0 11 5 12 18 5 11 -6 33 -5 62 3 64 16 69 21 63 61 -5 30 -3 33
15 28 19 -4 75 26 95 52 8 12 4 132 -6 141 -3 4 2 23 12 43 21 42 19 66 -10
116 -24 41 -81 74 -125 73 -17 -1 -39 4 -49 9 -18 10 -140 29 -156 25 -4 -1
-64 3 -135 7 -118 8 -195 3 -266 -14 -21 -6 -28 -4 -28 7 0 17 96 145 132 176
14 12 44 53 66 90 42 73 65 102 130 164 23 23 42 47 42 53 0 22 93 112 140
135 25 13 65 40 89 61 24 22 52 39 62 39 9 0 19 4 21 10 5 15 71 37 111 36 20
-1 37 4 37 9 0 6 5 3 10 -5 5 -8 10 -12 10 -7 0 12 50 -24 50 -36 0 -6 -8 -19
-17 -30 -16 -18 -14 -17 13 2 17 12 46 24 65 25 19 2 50 12 69 22 20 11 54 19
78 18 23 0 42 3 42 8 0 5 8 4 18 -1 11 -6 23 -6 28 -1 21 20 80 14 104 -10z
m-1200 -234 c0 -7 -8 -20 -18 -29 -17 -15 -18 -15 -17 6 0 12 4 28 8 35 10 14
27 7 27 -12z m-56 -113 c-9 -21 -18 -44 -21 -50 -3 -7 -11 -13 -19 -13 -7 0
-12 6 -10 13 3 6 7 25 10 40 5 22 25 39 54 46 1 1 -5 -16 -14 -36z m151 -518
c70 -12 64 -20 -36 -44 -41 -10 -94 -28 -119 -41 -94 -48 -123 -44 -101 12 7
18 20 28 43 33 18 4 36 12 40 19 11 17 70 34 103 31 17 -2 48 -7 70 -10z m213
-142 c45 -12 75 -27 107 -55 78 -69 49 -79 -54 -20 -89 51 -123 62 -193 62
-43 0 -59 3 -56 13 10 28 83 28 196 0z m-85 -108 c4 -8 2 -17 -3 -20 -13 -8
-52 14 -45 26 9 14 42 11 48 -6z m167 -48 c10 -18 23 -37 29 -44 8 -8 -1 -15
-32 -26 -123 -42 -134 -41 -87 3 29 27 39 50 22 50 -5 0 -19 -11 -32 -25 -13
-14 -33 -25 -44 -25 -39 0 -96 21 -96 35 0 18 21 24 43 13 10 -5 32 -8 50 -6
24 2 33 9 37 28 3 14 11 25 17 25 7 0 17 5 24 12 17 17 45 0 69 -40z m-283 6
c4 -10 16 -30 27 -45 11 -15 17 -30 14 -33 -8 -9 -71 19 -87 38 -7 10 -20 17
-27 17 -8 0 -14 5 -14 11 0 6 9 8 20 4 13 -4 22 -1 26 9 8 21 33 20 41 -1z
m-467 -1237 c0 -2 -6 -9 -14 -15 -11 -9 -16 -9 -22 0 -4 7 -3 9 4 5 6 -3 13
-2 17 4 6 10 15 14 15 6z m961 -1293 c13 -16 12 -17 -3 -4 -10 7 -18 15 -18
17 0 8 8 3 21 -13z m129 -7 c0 -3 -4 -8 -10 -11 -5 -3 -10 -1 -10 4 0 6 5 11
10 11 6 0 10 -2 10 -4z"/>
<path d="M5991 7686 c-84 -26 -126 -60 -135 -110 -7 -38 -41 -112 -56 -121
-21 -13 -50 -85 -50 -125 0 -36 3 -40 24 -40 14 0 28 5 31 10 3 6 20 10 36 10
27 0 29 -2 23 -26 -9 -36 7 -44 88 -44 59 0 69 -3 86 -25 11 -13 21 -22 24
-20 3 3 13 -5 24 -16 19 -22 19 -22 -6 -15 -14 3 -3 -5 24 -18 27 -14 62 -23
80 -22 17 2 41 4 53 5 15 1 21 6 17 15 -4 9 4 16 23 20 30 6 151 19 168 17 6
0 40 -2 78 -4 l67 -4 0 28 c0 15 7 35 16 43 14 14 14 16 0 16 -21 0 -36 31
-36 74 0 43 -35 86 -85 105 -63 22 -134 72 -155 109 -12 19 -18 37 -16 40 20
19 174 -21 235 -61 23 -15 53 -32 68 -38 24 -9 25 -8 19 18 -4 16 -13 33 -20
38 -7 6 -15 17 -18 25 -8 21 -116 77 -186 96 -180 50 -303 56 -421 20z m174
-246 c-3 -5 -14 -10 -24 -10 -10 0 -34 -6 -52 -14 -19 -7 -47 -16 -62 -20 -45
-11 -28 14 23 34 50 20 125 26 115 10z m42 4 c-3 -3 -12 -4 -19 -1 -8 3 -5 6
6 6 11 1 17 -2 13 -5z m103 -4 c0 -5 -7 -10 -16 -10 -8 0 -12 5 -9 10 3 6 10
10 16 10 5 0 9 -4 9 -10z m81 -26 c11 -14 8 -15 -26 -12 -21 2 -40 9 -43 16
-6 18 53 15 69 -4z m45 -52 c-22 -5 -30 3 -21 18 5 8 11 7 22 -2 15 -12 14
-13 -1 -16z m-188 -19 c21 -41 35 -46 40 -13 2 11 5 20 7 20 17 0 38 -18 51
-43 15 -28 15 -31 -4 -49 -24 -25 -112 -37 -166 -24 -39 9 -86 41 -86 58 0 12
34 10 47 -3 6 -6 21 -9 34 -7 19 2 25 10 27 38 6 72 20 79 50 23z m-120 10
c-5 -26 -38 -29 -38 -4 0 15 6 21 21 21 14 0 19 -5 17 -17z m-47 -75 c40 -41
35 -45 -39 -27 -82 20 -98 53 -41 83 20 11 26 11 34 -3 6 -9 26 -33 46 -53z"/>
<path d="M6205 7260 c-3 -5 3 -10 14 -10 12 0 21 5 21 10 0 6 -6 10 -14 10 -8
0 -18 -4 -21 -10z"/>
<path d="M5128 6763 c-10 -2 -18 -9 -18 -14 0 -5 -3 -9 -7 -8 -15 2 -53 -14
-53 -22 0 -5 -12 -15 -27 -23 -16 -8 -46 -31 -68 -51 -22 -21 -69 -63 -105
-94 -36 -31 -71 -62 -78 -68 -7 -7 -20 -13 -28 -13 -8 0 -14 -5 -14 -11 0 -5
-4 -7 -10 -4 -5 3 -10 1 -10 -5 0 -6 -4 -8 -10 -5 -5 3 -10 1 -10 -4 0 -6 -3
-10 -7 -10 -30 5 -56 -5 -79 -29 -27 -27 -29 -27 -46 -10 -19 19 -45 15 -65
-10 -19 -23 -16 -36 5 -21 9 7 6 1 -8 -13 -14 -14 -29 -23 -34 -20 -4 2 -3 8
4 12 9 5 9 9 1 14 -6 4 -8 12 -5 18 4 6 -2 6 -15 -1 -26 -14 -26 -60 0 -54 9
3 20 0 23 -6 4 -5 12 -8 20 -5 7 3 13 -2 13 -10 0 -8 -5 -12 -11 -9 -6 4 -4
-2 4 -13 23 -30 72 -79 81 -80 5 -1 14 -2 20 -3 8 -1 8 -5 0 -15 -9 -11 -9
-16 0 -22 7 -4 9 -3 5 4 -4 7 3 10 20 8 37 -4 83 15 90 36 6 21 101 108 163
150 25 17 100 86 166 153 120 121 121 123 133 185 14 80 11 87 -40 73z"/>
<path d="M5895 6678 c13 -44 17 -116 8 -133 -8 -14 0 -32 38 -84 27 -36 59
-81 72 -99 12 -18 36 -48 52 -65 36 -39 65 -82 65 -97 0 -6 -10 -10 -22 -8
-17 2 -24 -3 -26 -18 -2 -12 -18 -36 -37 -54 l-34 -33 -78 16 c-43 9 -107 24
-143 32 -36 8 -112 20 -170 26 -58 6 -132 13 -165 17 -33 4 -82 4 -110 -1 -70
-11 -233 -21 -344 -21 -74 -1 -95 2 -101 14 -4 8 -13 27 -20 41 -11 23 -16 26
-44 19 -40 -9 -76 -28 -76 -40 0 -6 -6 -10 -14 -10 -20 0 -27 -29 -22 -86 2
-27 8 -84 11 -127 4 -42 11 -80 16 -82 12 -8 29 29 29 62 0 41 73 123 108 123
46 -1 136 -45 150 -74 12 -24 79 -63 139 -80 11 -4 27 -14 35 -23 11 -15 11
-16 -4 -10 -10 3 -18 3 -18 -2 0 -11 32 -39 50 -43 18 -4 36 -20 38 -33 2 -21
99 -38 222 -39 142 0 220 9 220 28 0 7 13 22 29 34 20 14 28 27 24 40 -4 16 3
20 46 26 41 5 59 14 91 46 33 32 48 40 95 45 36 5 66 3 81 -4 28 -12 64 0 64
22 0 7 9 23 19 34 11 12 17 24 13 28 -4 4 2 5 14 1 13 -4 29 1 44 14 13 11 29
20 37 21 70 5 78 3 82 -22 3 -22 4 -23 12 -4 l8 20 1 -20 c0 -11 8 -29 16 -40
15 -20 16 -20 12 0 -2 12 3 20 12 20 8 0 15 8 15 17 0 9 12 30 26 45 15 15 29
41 32 57 5 31 -10 76 -25 76 -5 0 -6 5 -2 12 4 6 3 8 -4 4 -6 -3 -13 -2 -17 4
-3 5 -12 10 -18 10 -7 0 -4 -5 6 -11 9 -6 14 -15 11 -21 -4 -6 -2 -8 4 -4 6 3
13 2 16 -3 4 -5 -1 -8 -10 -7 -8 1 -19 8 -23 15 -10 16 -18 15 -37 -4 -8 -8
-12 -20 -8 -27 4 -7 -8 2 -26 20 -19 18 -44 32 -58 32 -28 0 -72 44 -109 109
-14 25 -39 60 -54 76 -15 17 -39 52 -53 78 -14 27 -38 58 -53 70 -15 11 -47
38 -70 59 -49 44 -79 51 -68 16z m489 -540 c-3 -4 -9 -8 -15 -8 -5 0 -9 4 -9
8 0 5 7 9 15 9 8 0 12 -4 9 -9z m-594 -162 c33 -3 46 -8 49 -21 2 -14 -2 -17
-20 -12 -13 3 -28 2 -33 -2 -19 -15 -99 -28 -156 -25 -59 2 -80 -4 -59 -17 10
-6 8 -9 -8 -9 -13 0 -23 6 -23 14 0 7 -7 20 -16 27 -13 11 -17 10 -26 -4 -8
-14 -13 -15 -31 -5 -12 7 -54 13 -94 14 -87 1 -150 24 -129 45 5 5 477 1 546
-5z"/>
<path d="M5290 6581 c-25 -4 -53 -11 -63 -17 -17 -10 -16 -13 16 -47 26 -28
43 -37 68 -38 48 -1 82 -8 93 -19 6 -6 17 -10 26 -10 8 0 22 -13 31 -28 12
-22 29 -31 89 -46 l73 -19 24 29 c12 16 23 39 23 52 0 28 13 28 32 1 11 -17
20 -20 43 -15 33 7 125 71 125 86 0 11 -64 30 -100 30 -14 0 -42 -5 -63 -11
-33 -9 -40 -8 -55 11 -22 26 -102 51 -125 39 -9 -6 -34 -8 -54 -5 -99 12 -142
14 -183 7z"/>
<path d="M4446 6406 c9 -23 33 -27 43 -8 8 15 5 18 -19 20 -22 2 -28 -1 -24
-12z"/>
<path d="M4446 6297 c3 -10 9 -15 12 -12 3 3 0 11 -7 18 -10 9 -11 8 -5 -6z"/>
<path d="M4646 8343 c-6 -14 -5 -15 5 -6 7 7 10 15 7 18 -3 3 -9 -2 -12 -12z"/>
<path d="M3615 4643 c-11 -3 -29 -13 -40 -23 -12 -10 -42 -20 -74 -22 -39 -4
-58 -11 -70 -27 -10 -12 -34 -24 -62 -29 -25 -5 -55 -18 -66 -29 -12 -12 -41
-23 -73 -27 -54 -7 -86 -26 -144 -82 -18 -18 -43 -31 -60 -32 -16 -1 -37 -9
-46 -17 -9 -8 -43 -20 -76 -26 -32 -6 -68 -19 -79 -29 -11 -10 -36 -21 -55
-25 -19 -4 -48 -18 -63 -31 -16 -13 -40 -24 -54 -24 -14 0 -38 -11 -55 -25
-16 -14 -42 -25 -57 -25 -15 0 -42 -11 -60 -24 -21 -15 -54 -27 -88 -32 -30
-3 -59 -12 -66 -19 -23 -22 -55 -35 -89 -35 -20 0 -47 -10 -67 -24 -18 -13
-48 -27 -66 -30 -19 -4 -39 -15 -45 -26 -6 -11 -26 -22 -48 -26 -20 -4 -50
-17 -65 -30 -21 -18 -41 -24 -77 -24 -37 0 -52 -5 -63 -20 -15 -22 -57 -40
-92 -40 -13 0 -30 -9 -38 -21 -11 -14 -31 -23 -71 -28 -31 -4 -56 -6 -56 -3 0
2 -14 -8 -31 -22 -17 -14 -42 -26 -55 -26 -15 0 -39 -14 -60 -34 -25 -25 -41
-32 -59 -28 -18 3 -25 0 -25 -12 0 -11 9 -16 30 -16 24 0 32 -7 46 -36 10 -20
22 -33 29 -30 14 5 30 -38 21 -53 -3 -5 14 -4 37 1 52 12 167 16 167 6 0 -11
38 -29 67 -31 21 -2 29 -9 35 -33 13 -53 36 -65 129 -68 46 -1 96 1 110 5 14
4 33 3 42 -2 9 -6 26 -5 43 1 15 6 42 11 61 12 19 1 36 5 39 10 3 4 8 7 12 4
4 -2 47 -7 96 -11 50 -4 99 -9 110 -11 44 -10 67 -11 72 -3 3 5 13 5 22 1 19
-9 32 -10 47 -1 6 4 22 6 37 5 14 -1 24 2 22 6 -9 14 13 8 26 -7 10 -12 17
-12 43 -1 37 15 55 11 78 -17 12 -16 18 -17 24 -7 5 8 4 11 -3 6 -6 -3 -13 -2
-16 3 -7 11 13 9 32 -2 6 -5 17 -5 22 -2 15 10 23 -21 11 -44 -7 -12 -19 -18
-31 -16 -17 3 -19 1 -10 -15 12 -23 40 -39 58 -33 6 3 12 0 12 -7 0 -8 6 -8
21 1 15 7 19 8 15 0 -8 -13 21 -4 43 13 11 8 13 8 7 -1 -4 -7 -3 -13 2 -13 6
0 12 7 16 15 3 8 1 15 -4 15 -6 0 -10 5 -10 11 0 5 4 7 10 4 7 -4 7 3 0 20 -7
17 -7 24 0 20 6 -3 10 -1 10 5 0 6 4 9 9 5 5 -3 12 -1 16 4 5 9 17 9 50 0 6
-1 24 3 40 10 17 7 43 13 59 13 25 1 96 28 73 28 -13 0 67 67 103 86 26 14 57
18 122 19 78 0 89 -2 113 -25 36 -34 85 -110 85 -132 0 -10 8 -31 18 -46 10
-15 32 -48 49 -73 17 -25 33 -66 37 -91 4 -26 13 -49 21 -51 7 -3 26 -28 41
-56 16 -27 31 -48 35 -45 4 2 10 -5 14 -16 4 -11 11 -17 17 -14 7 5 8 2 3 -6
-6 -10 -11 -9 -22 5 -7 11 -13 14 -13 8 0 -7 5 -15 10 -18 6 -4 8 -10 5 -15
-3 -4 2 -13 10 -20 8 -7 15 -9 15 -4 0 4 6 -1 14 -11 8 -11 12 -23 10 -27 -3
-5 4 -8 16 -8 14 0 19 -4 14 -12 -5 -10 -4 -10 6 -1 13 12 23 56 10 48 -3 -2
-6 5 -6 15 0 15 3 16 14 8 7 -6 12 -7 10 -2 -1 5 4 20 11 34 17 30 20 138 5
148 -10 6 -10 29 -3 79 1 7 6 10 10 8 11 -7 19 21 8 32 -6 6 -4 10 5 10 8 0
12 -5 9 -10 -3 -5 0 -8 8 -5 24 8 52 -29 60 -83 9 -59 16 -70 29 -49 7 10 10
11 10 3 0 -7 5 -12 11 -10 6 1 14 -4 17 -12 3 -8 0 -11 -7 -7 -7 5 -9 1 -5 -9
3 -8 21 -22 40 -31 18 -9 40 -27 49 -41 10 -15 12 -22 4 -18 -9 6 -10 4 -3 -6
10 -16 11 -20 13 -53 0 -14 8 -31 16 -40 8 -8 15 -23 15 -34 0 -10 9 -27 21
-38 29 -26 80 -104 74 -113 -2 -4 7 -18 20 -29 14 -12 25 -28 25 -35 0 -6 9
-18 19 -24 12 -8 18 -20 16 -32 -2 -13 1 -18 10 -15 17 7 45 -33 45 -63 0 -16
8 -27 24 -33 13 -5 28 -15 32 -22 5 -9 2 -8 -11 2 -17 13 -18 13 -10 0 20 -35
27 -41 41 -29 10 9 15 8 19 -3 3 -7 15 -15 28 -15 12 -1 32 -8 44 -14 19 -10
26 -9 43 6 11 10 20 14 20 9 0 -5 4 -3 9 5 5 8 22 15 38 16 43 4 43 4 43 14 0
5 -15 5 -32 2 -45 -10 -117 5 -135 26 -8 11 -11 12 -7 3 7 -12 5 -13 -8 -3 -8
7 -18 11 -21 8 -4 -3 -5 -2 -2 2 3 3 -2 17 -10 30 -14 20 -14 24 -1 29 8 3 12
12 9 20 -3 8 -10 11 -17 7 -6 -4 -4 2 4 12 8 10 10 16 3 12 -6 -4 -14 -3 -18
3 -3 5 -1 10 6 10 6 0 0 15 -13 33 -26 33 -50 92 -42 100 3 3 -8 14 -25 26
-19 14 -35 39 -47 74 -9 28 -32 73 -51 99 -18 26 -33 54 -33 61 0 7 -5 18 -12
25 -7 7 -9 12 -4 12 4 0 -1 14 -11 30 -9 17 -21 30 -25 30 -4 0 -8 6 -8 13 0
7 -13 23 -30 35 -16 12 -40 40 -52 62 -13 22 -30 42 -39 45 -9 3 -22 16 -29
30 -7 13 -17 22 -22 19 -4 -3 -8 2 -8 11 0 10 -5 13 -12 9 -8 -5 -8 -1 2 12 8
10 11 16 6 12 -4 -4 -13 -3 -20 2 -63 52 -79 63 -72 53 4 -7 5 -13 1 -13 -3 0
-11 12 -17 28 -10 25 -12 32 -16 56 -1 5 -10 2 -19 -5 -9 -8 -14 -9 -10 -2 4
6 0 18 -8 27 -9 8 -16 19 -16 23 -1 14 -9 17 -9 3 0 -7 -3 -10 -7 -7 -3 4 -12
2 -20 -5 -8 -6 -13 -7 -12 -2 4 21 -2 28 -11 14 -7 -11 -10 -11 -10 -2 0 7 -4
11 -8 8 -10 -6 -8 42 3 51 4 5 6 4 3 -2 -3 -5 -2 -19 3 -30 6 -15 8 -16 8 -4
1 9 8 22 16 29 9 7 14 19 11 26 -3 7 -1 14 3 16 8 3 20 61 23 114 2 15 7 20
20 16 10 -2 18 -8 18 -13 0 -5 3 -8 8 -7 13 5 52 -29 45 -38 -4 -5 -2 -4 5 2
9 8 24 0 59 -32 27 -25 52 -40 60 -37 8 3 18 1 22 -5 3 -5 20 -12 38 -15 29
-5 31 -3 27 20 -3 14 -11 38 -19 54 -8 15 -15 39 -15 53 0 18 -9 29 -32 41
-57 27 -187 163 -240 251 -10 16 -23 37 -30 47 -11 15 -10 20 5 28 9 6 17 19
17 29 0 18 11 25 33 21 4 0 7 6 7 14 0 8 4 15 9 15 8 0 8 28 1 38 -2 1 -3 10
-4 20 -1 21 -23 55 -63 98 -16 17 -42 56 -58 85 -15 30 -44 70 -64 90 -46 46
-83 95 -98 131 -12 28 -24 31 -68 21z m240 -1052 c3 -5 2 -12 -3 -15 -5 -3 -9
1 -9 9 0 17 3 19 12 6z m-1032 -281 c-4 -16 -9 -18 -24 -9 -10 5 -19 14 -19
20 0 6 4 8 9 4 5 -3 12 -1 16 5 10 17 24 2 18 -20z m84 15 c0 -8 -4 -12 -9 -9
-5 3 -6 10 -3 15 9 13 12 11 12 -6z m983 -378 c0 -4 0 -13 0 -19 0 -7 -5 -5
-11 5 -6 9 -14 15 -19 12 -5 -3 -11 -1 -14 3 -3 5 6 8 19 8 14 -1 25 -5 25 -9z"/>
<path d="M4087 4506 c-14 -13 -28 -22 -31 -20 -4 2 -2 -1 3 -7 12 -14 34 -2
25 14 -5 9 -4 9 6 0 10 -9 17 -7 32 10 11 12 16 16 12 8 -5 -9 -3 -12 4 -7 18
11 14 26 -7 26 -10 0 -30 -11 -44 -24z"/>
<path d="M4920 3836 c0 -13 20 -45 20 -32 0 5 8 2 18 -5 15 -12 16 -12 5 2 -7
9 -9 20 -5 24 4 5 -2 5 -12 1 -15 -5 -17 -4 -8 7 9 10 8 14 -3 14 -8 0 -15 -5
-15 -11z"/>
<path d="M8480 3722 c0 -5 7 -16 16 -23 14 -12 16 -11 13 5 -4 20 -29 35 -29
18z"/>
<path d="M1360 3609 c0 -6 -5 -7 -12 -3 -7 4 -8 3 -4 -5 4 -6 11 -9 16 -6 4 3
10 0 12 -7 3 -8 7 -6 11 4 3 10 0 19 -9 22 -8 3 -14 1 -14 -5z"/>
<path d="M3890 3536 c0 -23 16 -27 31 -8 13 16 13 16 -5 2 -18 -14 -19 -13
-13 3 3 9 2 17 -3 17 -6 0 -10 -6 -10 -14z"/>
<path d="M3897 2834 c-8 -9 5 -44 17 -44 6 0 4 -5 -4 -10 -12 -8 -12 -10 -1
-10 10 0 11 -3 2 -14 -9 -10 -7 -17 6 -27 11 -9 14 -10 9 -1 -4 6 -3 12 3 12
5 0 9 22 8 48 -2 37 -6 48 -19 49 -9 1 -18 -1 -21 -3z"/>
<path d="M5042 2808 c-16 -16 -15 -28 3 -28 8 0 15 2 15 4 0 2 3 11 6 20 7 19
-7 21 -24 4z"/>
<path d="M2744 2738 c-15 -24 -49 -76 -75 -117 -27 -40 -49 -84 -49 -97 0 -14
-10 -34 -22 -45 -13 -11 -54 -47 -93 -81 -38 -33 -70 -65 -70 -71 0 -5 -16
-21 -34 -36 -19 -14 -31 -20 -26 -12 5 10 4 12 -4 7 -8 -5 -10 -21 -6 -44 3
-21 8 -79 11 -131 2 -51 7 -97 10 -102 3 -5 0 -9 -6 -9 -6 0 -8 -5 -4 -12 4
-7 3 -8 -4 -4 -19 12 -33 -3 -23 -23 7 -13 6 -18 -4 -18 -8 0 -13 3 -11 6 2 3
-9 7 -26 8 -26 2 -29 -1 -25 -17 3 -11 1 -18 -4 -14 -5 3 -9 12 -9 20 0 8 -5
12 -10 9 -6 -4 -7 -11 -4 -17 5 -7 2 -8 -6 -3 -8 5 -25 9 -38 10 -13 0 -30 8
-37 18 -6 9 -16 13 -20 9 -5 -4 -5 -2 -2 5 10 17 -20 43 -51 44 -24 0 -55 5
-87 13 -26 6 -93 39 -125 61 -27 18 -52 25 -105 28 -90 5 -110 0 -93 -21 11
-13 11 -15 -2 -8 -8 4 -4 -1 9 -12 15 -12 21 -24 16 -32 -6 -10 -4 -12 10 -6
16 6 16 4 4 -11 -8 -9 -9 -14 -3 -10 7 4 14 1 17 -7 5 -12 -59 -58 -80 -57
-34 2 -57 -32 -36 -53 17 -16 10 -47 -16 -75 -16 -17 -32 -31 -35 -31 -4 0
-37 -14 -74 -31 -37 -18 -73 -33 -80 -35 -8 -1 -21 -6 -30 -10 -9 -4 -24 -8
-32 -10 -23 -4 -60 -52 -54 -69 4 -8 9 -13 13 -10 4 2 8 -1 9 -8 1 -7 4 -25 8
-41 5 -21 3 -31 -10 -38 -9 -5 -16 -17 -16 -26 0 -18 -1 -19 -96 -67 -81 -41
-93 -54 -69 -71 10 -8 29 -14 41 -14 32 0 39 -17 12 -26 -13 -4 -33 -18 -46
-31 -12 -13 -27 -21 -32 -18 -12 7 -13 -3 -10 -72 2 -48 -2 -57 -38 -103 -29
-36 -41 -62 -46 -98 -5 -40 -14 -58 -50 -95 -24 -24 -49 -54 -55 -66 l-12 -21
288 0 289 0 17 30 c10 17 22 30 27 30 5 0 18 13 30 30 l21 29 -22 22 c-19 19
-21 29 -17 84 9 104 32 130 142 156 47 12 48 13 29 28 -30 25 -45 76 -31 109
6 15 12 31 12 37 1 10 82 53 103 54 7 1 18 11 24 23 9 17 8 28 -6 54 -17 31
-17 35 1 77 14 34 28 49 54 61 67 29 115 43 158 44 24 1 47 4 50 6 4 2 22 -2
40 -9 27 -12 32 -19 32 -49 0 -42 -25 -101 -59 -138 -14 -16 -19 -28 -13 -28
7 0 12 -9 12 -20 0 -10 9 -24 20 -30 25 -13 25 -32 3 -68 -25 -39 -38 -48
-128 -92 l-80 -39 32 -11 c21 -8 45 -29 64 -58 43 -63 33 -96 -36 -129 -28
-13 -57 -28 -65 -34 -8 -5 -29 -16 -46 -24 -40 -18 -52 -34 -50 -65 1 -17 6
-24 18 -22 11 2 23 -9 33 -28 l16 -30 498 0 499 0 32 27 c30 25 34 26 82 15
27 -7 78 -12 113 -12 35 0 67 -5 70 -10 8 -12 60 -7 78 8 7 5 24 12 40 16 27
6 27 7 12 36 -21 40 -19 47 15 87 17 18 30 40 30 47 0 7 14 28 31 45 l30 32
-23 23 c-13 12 -28 31 -33 41 -10 16 -14 16 -35 5 -42 -21 -61 -42 -86 -96
-28 -60 -29 -64 -9 -64 8 0 15 5 15 10 0 6 9 10 21 10 14 0 19 -5 17 -17 -2
-12 -12 -18 -30 -17 -17 1 -25 -3 -21 -9 4 -6 0 -8 -11 -4 -10 4 -19 1 -22 -7
-3 -7 -10 -13 -17 -14 -7 0 -43 -12 -82 -25 -129 -46 -149 -48 -228 -23 -49
15 -56 22 -104 94 -50 75 -51 80 -42 120 7 32 6 51 -6 79 -23 55 -10 179 22
210 21 21 22 28 13 67 -13 58 2 185 26 221 14 21 18 43 16 80 -2 28 4 79 13
113 14 56 14 65 0 85 -21 30 -19 70 10 160 24 74 24 80 9 109 -12 23 -14 44
-9 82 3 28 10 80 14 116 8 69 21 107 50 149 17 25 17 28 -2 89 l-19 62 -39 0
c-35 0 -41 -4 -65 -42z m-640 -954 c24 -24 10 -34 -24 -17 -17 8 -28 19 -25
24 9 14 32 11 49 -7z m148 -3 c12 6 24 7 29 2 5 -5 1 -9 -9 -10 -9 -1 -23 -3
-31 -5 -7 -2 -15 3 -16 10 -2 7 -1 8 2 2 3 -6 11 -6 25 1z m-54 -9 c12 9 12 6
-2 -9 -21 -25 -39 -22 -29 4 5 11 8 13 11 5 3 -10 7 -10 20 0z m1038 -777 c0
-20 -2 -22 -15 -12 -8 7 -17 11 -20 9 -3 -2 -7 2 -9 10 -3 11 -2 11 6 0 7 -10
11 -10 22 3 16 19 16 19 16 -10z"/>
<path d="M4399 2602 c9 -7 10 -11 2 -15 -7 -4 -8 -5 0 -3 15 2 13 20 -3 24
-10 3 -10 2 1 -6z"/>
<path d="M5073 2570 c-6 -24 -61 -56 -148 -85 -44 -15 -82 -29 -83 -30 -9 -8
55 2 72 12 11 6 32 7 53 3 32 -8 63 7 63 30 0 4 22 6 50 3 47 -4 50 -3 61 24
6 15 17 35 25 44 13 15 10 16 -37 15 -38 -1 -53 -5 -56 -16z"/>
<path d="M7010 2521 c0 -7 -5 -9 -12 -5 -19 12 -1 -87 22 -118 11 -15 20 -32
20 -38 0 -5 5 -10 10 -10 7 0 8 14 4 38 -4 20 -7 44 -7 52 0 8 -3 20 -7 25 -4
6 -6 18 -5 27 2 9 -3 22 -11 29 -11 9 -14 9 -14 0z"/>
<path d="M3910 2501 c0 -6 5 -13 10 -16 6 -3 10 1 10 9 0 9 -4 16 -10 16 -5 0
-10 -4 -10 -9z"/>
<path d="M1680 2425 c-16 -20 -7 -31 51 -60 27 -14 49 -32 49 -40 0 -16 0 -17
-49 -21 -18 -1 -38 -7 -45 -14 -15 -16 26 -46 84 -60 25 -6 56 -18 69 -27 17
-11 53 -16 115 -18 95 -2 131 7 122 31 -3 8 -1 15 4 15 26 3 48 2 83 -6 38 -7
87 12 87 35 0 18 -60 47 -123 60 -34 7 -82 21 -107 31 -25 10 -70 25 -100 34
-30 8 -80 23 -110 34 -66 24 -113 26 -130 6z"/>
<path d="M8557 2356 c-3 -8 -4 -22 -2 -33 6 -26 -26 -85 -54 -99 -36 -18 -44
-39 -28 -71 8 -16 22 -64 32 -108 9 -44 26 -111 36 -150 28 -104 28 -105 -48
-151 -38 -22 -80 -46 -96 -54 -20 -10 -24 -16 -16 -24 8 -8 13 -7 16 2 3 6 9
12 14 12 6 0 30 9 55 20 24 11 57 23 72 26 25 5 30 2 39 -23 22 -60 45 -175
37 -182 -5 -4 -39 -20 -76 -35 -68 -28 -79 -43 -59 -75 10 -16 12 -15 79 41
57 49 69 39 92 -82 7 -36 14 -78 16 -95 1 -16 7 -59 14 -95 30 -172 41 -247
39 -265 -1 -11 -1 -32 -1 -47 2 -25 6 -28 35 -28 19 0 36 2 39 5 10 11 -22
161 -41 185 -12 18 -20 52 -25 110 -4 47 -11 103 -16 125 -13 63 -33 254 -27
268 3 7 -4 62 -14 122 -23 133 -31 210 -32 290 0 33 -5 63 -9 66 -5 3 -4 36 2
73 8 51 8 72 -1 82 -7 9 -9 30 -5 57 6 37 3 46 -18 66 -14 13 -23 28 -20 32 3
5 7 18 9 29 5 24 -29 29 -38 6z"/>
<path d="M4566 2305 c-24 -18 -14 -43 21 -51 15 -4 40 -13 54 -20 15 -7 30
-10 34 -6 3 4 11 7 16 7 5 0 9 3 9 8 0 4 0 11 0 16 0 5 -15 14 -32 22 -18 7
-37 19 -41 26 -10 17 -37 16 -61 -2z"/>
<path d="M5112 2296 c-20 -15 -29 -27 -22 -31 12 -8 73 25 72 40 -1 17 -16 14
-50 -9z"/>
<path d="M6707 2181 c-4 -17 -3 -21 5 -13 5 5 8 16 6 23 -3 8 -7 3 -11 -10z"/>
<path d="M5340 2130 c-12 -8 -9 -10 12 -10 15 0 30 5 33 10 8 13 -25 13 -45 0z"/>
<path d="M5140 2090 c-11 -7 -6 -10 22 -10 20 0 40 5 43 10 8 13 -45 13 -65 0z"/>
<path d="M5408 2053 c7 -3 16 -2 19 1 4 3 -2 6 -13 5 -11 0 -14 -3 -6 -6z"/>
<path d="M5424 1929 c-28 -4 -61 -12 -74 -17 l-24 -9 22 -12 c18 -10 25 -9 37
2 7 8 37 17 65 21 28 4 48 11 45 16 -4 6 -9 9 -13 9 -4 -1 -30 -5 -58 -10z"/>
<path d="M6977 1904 c-17 -17 -5 -34 24 -34 24 0 30 4 27 18 -3 17 -38 29 -51
16z"/>
<path d="M5218 1893 c6 -2 18 -2 25 0 6 3 1 5 -13 5 -14 0 -19 -2 -12 -5z"/>
<path d="M5080 1880 c0 -13 11 -13 30 0 12 8 11 10 -7 10 -13 0 -23 -4 -23
-10z"/>
<path d="M5433 1749 c-18 -5 -33 -14 -33 -19 0 -13 13 -13 26 -1 5 6 31 6 64
0 35 -5 58 -5 65 2 25 25 -55 37 -122 18z"/>
<path d="M4970 1730 c0 -19 30 -22 63 -6 l32 16 -47 0 c-27 0 -48 -5 -48 -10z"/>
<path d="M5258 1733 c7 -3 16 -2 19 1 4 3 -2 6 -13 5 -11 0 -14 -3 -6 -6z"/>
<path d="M6794 1685 c-4 -9 -2 -21 4 -27 16 -16 47 -5 47 17 0 26 -42 34 -51
10z"/>
<path d="M5540 1619 c-14 -4 -44 -7 -67 -8 -24 -1 -43 -5 -43 -11 0 -10 126
-2 149 10 21 11 -8 18 -39 9z"/>
<path d="M5270 1590 c-11 -7 -7 -10 18 -10 20 0 31 4 27 10 -8 13 -26 13 -45
0z"/>
<path d="M5145 1581 c-3 -5 -1 -12 4 -15 12 -8 41 3 41 15 0 12 -37 12 -45 0z"/>
<path d="M6397 1583 c-9 -8 -9 -46 -1 -67 10 -27 24 -18 24 17 0 35 -12 61
-23 50z"/>
<path d="M5035 1571 c-8 -15 3 -31 21 -31 9 0 14 7 12 17 -4 20 -24 28 -33 14z"/>
<path d="M3491 1526 c-12 -18 -21 -42 -21 -52 1 -12 8 -5 22 21 11 22 25 42
29 43 12 5 11 22 0 22 -5 0 -19 -15 -30 -34z"/>
<path d="M4898 1543 c12 -2 32 -2 45 0 12 2 2 4 -23 4 -25 0 -35 -2 -22 -4z"/>
<path d="M5744 1535 c-7 -18 3 -35 21 -35 12 0 25 21 25 41 0 15 -40 10 -46
-6z"/>
<path d="M5620 1500 c-8 -4 -26 -13 -40 -18 -24 -10 -23 -11 13 -11 25 -1 40
4 44 14 7 20 2 25 -17 15z"/>
<path d="M5415 1468 c-106 -13 -144 -30 -50 -22 120 9 165 16 165 25 0 10 0
10 -115 -3z"/>
<path d="M5192 1431 c-10 -6 -10 -10 1 -19 11 -9 18 -8 32 8 17 19 17 20 -1
20 -10 0 -25 -4 -32 -9z"/>
<path d="M5085 1411 c-6 -5 -30 -14 -55 -19 l-45 -10 52 -1 c58 -1 108 14 98
29 -8 12 -38 13 -50 1z"/>
<path d="M3406 1364 c-24 -24 -38 -53 -30 -65 9 -15 64 40 64 63 0 22 -13 23
-34 2z"/>
<path d="M5585 1350 l-50 -7 50 -1 c28 -1 57 3 65 8 17 11 17 11 -65 0z"/>
<path d="M5365 1320 c-18 -8 -17 -9 8 -9 16 -1 26 3 22 9 -3 6 -7 10 -8 9 -1
0 -11 -4 -22 -9z"/>
<path d="M5206 1281 c-3 -5 6 -11 19 -14 25 -4 40 4 28 17 -9 9 -41 7 -47 -3z"/>
<path d="M5140 1260 c-9 -6 -10 -10 -3 -10 6 0 15 5 18 10 8 12 4 12 -15 0z"/>
<path d="M7000 1260 c0 -5 9 -10 21 -10 11 0 17 5 14 10 -3 6 -13 10 -21 10
-8 0 -14 -4 -14 -10z"/>
<path d="M8590 1219 c0 -5 5 -7 10 -4 6 3 10 8 10 11 0 2 -4 4 -10 4 -5 0 -10
-5 -10 -11z"/>
<path d="M5648 1183 c6 -2 18 -2 25 0 6 3 1 5 -13 5 -14 0 -19 -2 -12 -5z"/>
<path d="M6741 1144 c0 -11 3 -14 6 -6 3 7 2 16 -1 19 -3 4 -6 -2 -5 -13z"/>
<path d="M5277 1133 c-12 -12 -7 -21 15 -26 12 -4 26 -1 30 6 11 18 -29 37
-45 20z"/>
<path d="M6584 1127 c-3 -8 0 -26 6 -42 14 -38 35 -19 25 24 -7 32 -22 41 -31
18z"/>
<path d="M752 1116 c-70 -26 -65 -56 9 -56 43 0 68 23 53 48 -14 21 -22 22
-62 8z"/>
<path d="M5870 1101 c0 -27 21 -40 48 -30 26 10 27 13 6 33 -22 22 -54 21 -54
-3z"/>
<path d="M5320 1071 c0 -5 5 -13 10 -16 6 -3 10 -2 10 4 0 5 -4 13 -10 16 -5
3 -10 2 -10 -4z"/>
<path d="M6236 1044 c-4 -10 -1 -14 6 -12 15 5 23 28 10 28 -5 0 -13 -7 -16
-16z"/>
<path d="M5625 990 c-17 -7 -15 -9 10 -8 17 0 44 4 60 8 29 7 28 8 -10 8 -22
0 -49 -3 -60 -8z"/>
<path d="M5415 972 c-16 -2 -34 -8 -39 -13 -15 -13 59 -10 129 6 l60 13 -60
-1 c-33 -1 -73 -3 -90 -5z"/>
<path d="M5015 923 c-27 -2 -54 -9 -60 -15 -12 -12 132 -1 155 13 16 9 3 9
-95 2z"/>
<path d="M4828 893 c6 -2 18 -2 25 0 6 3 1 5 -13 5 -14 0 -19 -2 -12 -5z"/>
</g>
</svg>
