<svg version="1.0" xmlns="http://www.w3.org/2000/svg" width="45" height="45"  viewBox="0 0 1080 1080"><path d="M463.1 226.7c-1.4.9-2.1 1.1-1.7.5.8-1.4-.2-1.1-10.1 2.9-4 1.6-10.6 4.2-14.5 5.8-11.2 4.4-21.5 8.6-30.3 12.1-4.4 1.8-11.1 4.5-15 6-3.8 1.5-10.4 4.2-14.5 5.8-4.1 1.7-8.5 3.4-9.7 3.7-1.3.3-2.9 1.2-3.6 1.9-.7.7-3.7 2.2-6.7 3.3-6 2.3-25.3 9.9-28.5 11.3-1.1.5-5.6 2.3-10 4-4.4 1.8-11.4 4.6-15.5 6.3-4.1 1.8-7.8 3.1-8.2 2.9-.5-.1-.8.2-.8.7 0 .9-3.2 2.3-15.5 6.5-11 3.8-16.5 6-27.5 11.1-6.3 2.9-12.8 5.5-14.5 5.9-1.6.4-5.7 2-9 3.6s-12 5.3-19.2 8.1l-13.3 5.2v3.6l.1 3.6 3.4-3.8c1.8-2.2 3.8-3.6 4.4-3.3.5.4 1.3.1 1.6-.5.4-.6 1.7-.8 2.9-.5 1.3.3 3.2-.2 4.6-1.1 1.2-.9 3.4-1.7 4.7-1.9 2.1-.2 2.2 0 1.1 1.3-1.2 1.5-1 1.5 1.2.3 1.3-.7 3.3-2.4 4.3-3.7 1-1.2 2.5-2.3 3.4-2.3.8 0 2.6-.9 4-2s3.5-2 4.7-2c1.2 0 3.2-.7 4.4-1.6 2.4-1.6 4.7-1 3.6.9-.4.7.4.3 1.7-.9 4-3.5 5.3-4 4.6-1.8-.7 1.8-.6 1.8.7.1 1-1.4 1.5-1.5 1.9-.5.4.9.6.8.6-.3.1-.9 1.2-2.2 2.6-2.9 1.4-.7 2.5-1.7 2.5-2 0-.8 5.9-3 13-5 2.5-.6 5.2-1.6 6-2.1 3.7-2.3 10.8-5.1 14-5.6 1.9-.3 4.3-1.2 5.2-2 .9-.8 2.2-1.2 2.8-.8.6.4 1.7.1 2.5-.5 2.5-2.1 8.9-5.1 14-6.7 2.8-.8 6.7-2.4 8.7-3.6 4-2.2 6.6-1.5 3.4.9-3.6 2.6.2 1.4 9.8-3 5.2-2.4 10.5-4.7 11.8-5.1 6.4-2 11.8-4.9 11.8-6.4 0-1.4.2-1.4 1-.1.7 1.2 2.6.7 11.7-3.2 5.9-2.6 17.1-7.1 24.8-10.1 17.7-7 24.7-10.2 23.8-11.1-.4-.4 0-.4.8-.1 1.3.5 11-3.1 23.4-8.6 1.1-.4 4.5-1.8 7.5-3 3-1.1 6.6-2.5 7.9-3 1.3-.5 2.1-1.2 1.9-1.5-.3-.3-3 .4-5.9 1.6-6.9 2.6-7.1 2.5-2.7-.5 2-1.4 4.1-2.5 4.5-2.5 1.3 0 8-5.9 6.8-6-.6 0-2.1.8-3.4 1.7zM392 260.4c0 .2-.7.7-1.6 1-.8.3-1.2.2-.9-.4.6-1 2.5-1.4 2.5-.6zm-10.6 4.1c-.4.8-1.3 1.5-2.2 1.5-1.3 0-1.2-.3.4-1.5 2.4-1.8 2.5-1.8 1.8 0zm-26.5 11.6c-2.2 1.4-3.3 1-1.9-.6.7-.8 1.7-1.2 2.2-.9.6.4.5 1-.3 1.5zm-4.9 1.3c0 .3-.4.8-1 1.1-.5.3-1 .1-1-.4 0-.6.5-1.1 1-1.1.6 0 1 .2 1 .4zm-8 3.6c-2.8 2.2-4 2.5-4 .9 0-.5.4-.8.9-.5.5.3 1.1-.1 1.5-.9.3-.8 1.3-1.5 2.3-1.5 1.5 0 1.4.4-.7 2zm-8.2 3.2c-.2.6-1.2 1.2-2.2 1.4-1.4.2-1.5 0-.5-1.2 1.4-1.7 3.2-1.9 2.7-.2zM511.1 229.6c.6.7.9 2 .6 2.8-.3.7 1.1 3 3 5 6 6.2 3.2 4.9-4.5-2-3.9-3.6-7.2-6.2-7.2-5.9 0 1.6 83.6 85 87.8 87.7 3.8 2.4 13.8 5.8 17.1 5.8 5.1 0 24.3 5 29.9 7.7 6.7 3.2 10.6 7.1 42.2 41.3 69 74.7 79.9 86.2 77.5 82.1-.6-1.1 0-1.2 3.4-.6 4.8.8 5.2-.2 2-4.6-1.8-2.6-9.2-10.8-17.6-19.7-1.8-1.9-3.3-3.5-3.3-3.7 0-.1-2.5-2.8-5.5-5.9-3-3-5.5-5.7-5.5-5.9 0-.2-3.8-4.3-8.5-9.2-4.7-4.8-8.5-8.9-8.5-9.1 0-.2-2.5-2.9-5.5-6-3-3.2-5.5-5.9-5.5-6 0-.2-2.2-2.6-5-5.4-2.7-2.8-5-5.2-5-5.4 0-.2-4.9-5.4-11-11.5-6-6.2-11-11.4-11-11.6 0-.3-2.8-3.4-6.2-6.9-3.5-3.5-6.8-7-7.5-7.8-.7-.7-1.8-1.8-2.5-2.3-.7-.6-3.3-2.6-5.8-4.5-6.2-4.9-16.2-8.3-29.1-10-7-.9-16.5-3.7-21.9-6.5-3.9-2-13-10.7-13-12.4 0-.6-.4-1.1-.9-1.1-1.4 0-14.1-12.5-14.1-13.8 0-.7-.4-1.2-1-1.2-1.3 0-14-12.6-14-13.9 0-.6-.4-1.1-.8-1.1-1 0-14.2-12.7-14.2-13.7 0-.5-1.8-2.1-4-3.6-2.2-1.6-4-3.5-4-4.3 0-.8-.3-1.4-.7-1.4-1.2 0-6.3-4.6-6.3-5.6 0-.5-1-1.6-2.2-2.4-1.2-.8-3.6-2.9-5.3-4.6-3.3-3.2-8.8-5.6-6.4-2.8zm12.4 16.4c1.2 1.9-1.2 1-3.1-1.1-1.9-2.2-1.9-2.2.3-1 1.2.6 2.5 1.6 2.8 2.1zm129.3 92.2c4.7 3.8 13.5 13.8 12.8 14.6-.3.3-1.2-.1-2.1-.8-2.2-1.8-15.8-17-15.2-17 .2 0 2.3 1.5 4.5 3.2zM434 249c-.8.5-1 1-.5 1 .6 0 1.7-.5 2.5-1s1.1-1 .5-1c-.5 0-1.7.5-2.5 1zM397 264c-.9.6-1 1-.3 1 .6 0 1.5-.5 1.8-1 .8-1.2.4-1.2-1.5 0zM462.2 270.9c-4 1.6-7.9 3.4-8.6 4-.7.6-1.5.9-1.8.6-.2-.3-8.1 2.5-17.4 6.1-9.3 3.6-20.3 7.9-24.6 9.4-4.2 1.6-8.9 3.5-10.5 4.3-1.5.8-4.1 1.7-5.7 2.1-1.5.4-4.7 1.5-7 2.6-2.2 1-5.8 2.3-7.8 3-2.4.7-3.8 1.8-3.8 2.8 0 1.2.3 1.3 1.2.4.7-.7 2.9-1.2 4.9-1.2 3.5 0 3.7.2 3.3 2.7-1 5.4.5 5.9 3.6 1.3 2.9-4.3 7.7-8.9 9.5-9 .5 0 2.4-1.4 4.2-3.2 2.4-2.3 4.9-3.5 9.5-4.4 3.6-.8 6.7-.9 7.2-.4.4.4 1 3.6 1.1 7 .2 3.3.6 6.4.9 6.7.3.4.6.1.6-.5 0-.7.5-1.2 1-1.2 1.5 0 1.2 2.8-.6 5.5-1 1.6-1.9 6-2.4 12.1-.7 9.9-.4 14 1.1 15 .5.3.2 1.8-.6 3.5-2.1 3.9-.6 3.7 2.7-.5 1.5-1.9 4.8-4.4 7.3-5.6 7.9-3.8 7.6-2.6 6.9-26-.4-11.4-.4-22 0-23.4.9-3.5 5.9-5.4 16.1-5.9 2.5-.2 2.9.1 2.7 1.8-.3 1.6.4 1.2 3.5-1.7 2.3-2.3 5.6-4.2 8.5-4.9 3.6-1 4.7-1.8 5.1-3.6.6-3-1-2.9-10.1.6zm-35.6 35.6c-.3.9.1 1.8.9 2.1 1.2.5 1.2.9-.2 3-.8 1.3-2.2 2.4-3 2.4-.8 0-1.1.4-.8 1 .3.5-.1 1-.9 1-1 0-1.3-.6-1-1.5.4-.8 1-1.5 1.5-1.5s.8-1 .8-2.3c-.1-1.6-.2-1.8-.6-.5-.2 1-.9 1.8-1.4 1.8-1 0-.8-.4 2.1-4.8 1.7-2.5 3.5-3 2.6-.7zm.8 8.9c-.3.8-1.3 1.7-2.2 2.1-1.3.5-1.3.2.3-1.5 2.1-2.4 2.6-2.5 1.9-.6zm-3.3 4.4c-.7.2-1.8-.1-2.3-.6-.8-.8-.4-.9 1.3-.5 1.3.4 1.8.8 1 1.1zM507.8 277.2c0 1.3-.1 3 0 3.8 0 .8.2 7.5.2 14.7.1 7.3.6 13.1 1 12.8 1-.6 5 3.3 5 4.8 0 .5-.8.3-1.7-.4-1.7-1.3-1.7-1.3 0 .7.9 1.1 1.7 2.9 1.7 3.9 0 1.5-.2 1.6-1.7.4-1-.7-.7 0 .7 1.5 1.4 1.6 1.9 2.6 1.1 2.1-1-.6-1.2-.4-.5.6.4.8.9 1.9 1 2.6.3 1.6-2.7 2.6-4 1.3-2.1-2.1-2.6-.8-2.6 6.7 0 8.3 1 9.4 1.5 1.6.3-6 .2-5.8 2-4.3 1.6 1.3 2 8.4.9 15.3-.9 4.9-3 4.2-2.6-.7.2-2.5-.1-3.6-.7-3.1-.6.3-1.1 2.3-1.1 4.3 0 3.3.6 4.2 5.5 8l5.5 4.3-.3-35.1c-.1-19.2.1-35 .5-35s2.2.9 4 2c5.4 3.2 6.3 2.3 1.6-1.6-2.3-2-5.4-4.9-6.8-6.4-1.4-1.5-4.2-3.7-6.2-5l-3.8-2.2-.2 2.4zm8.9 35.5c-.1 4.3-.3.8-.3-7.7s.2-12 .3-7.8c.2 4.3.2 11.3 0 15.5zm.6 24.6c.2 8.1-.1 15.3-.5 16-.4.6-.8-6.2-.8-15.2s.2-16.2.5-15.9c.3.2.6 7.1.8 15.1zm-2.8-9.3c.3.5.1 1-.4 1-.6 0-1.1-.5-1.1-1 0-.6.2-1 .4-1 .3 0 .8.4 1.1 1z"/><path d="M321.6 289.9c-.4.5.3.7 1.4.4 2.3-.6 2.6-1.3.6-1.3-.8 0-1.7.4-2 .9zM312 294c-.9.6-1 1-.3 1 .6 0 1.5-.5 1.8-1 .8-1.2.4-1.2-1.5 0zM469.7 296.2c-1 2.1-2.5 3.8-3.4 3.8-.9 0-1.3.3-1 .6.7.7-3 4.4-4.5 4.4-.4 0-.8-.5-.8-1.1 0-.7-.9-.9-2.1-.6-1.5.4-1.9.2-1.5-.9 1.8-4.3 1.8-4.9.2-2.9-1.2 1.4-1.6 3.8-1.5 8.5.1 3.7-.4 7.6-1 8.8-.8 1.4-.8 2.2-.1 2.2.5 0 1 1.4 1 3.1 0 2 .4 2.8 1.2 2.3.8-.5.9-.2.3 1.2-.4 1-1 3-1.2 4.4-.4 2.3-.3 2.4.8.5 2.3-3.8 5.3-6.6 9.7-8.8 4.7-2.3 7.2-5.1 7.2-7.9 0-2.6-2-3.2-3.6-1.2-1.4 1.8-1.4 1.8-.4-.4.6-1.2 1.5-2.2 2-2.2s.8-.9.7-2c-.1-1.1-.5-2-.9-2s-.3-1.1.4-2.5c.8-1.8.8-2.8-.1-3.9-.9-1-.9-1.5 0-1.8.6-.2.9-1.5.7-2.8-.3-2.3-.4-2.3-2.1 1.2zm1.3 4.7c0 1.5-3 4.1-4.7 4.1-1.3 0-1.2-.5.7-2.5 2.4-2.6 4-3.2 4-1.6zm-7 7.1c-.8.5-1.9 1-2.5 1-.5 0-.3-.5.5-1s2-1 2.5-1c.6 0 .3.5-.5 1zm4.2.7c-.6.2-.9 1-.6 1.5.4.7.2.8-.5.4-1.3-.9-.5-2.6 1.2-2.5.9 0 .8.2-.1.6zM321 295c-.8.5-1 1-.5 1 .6 0 1.7-.5 2.5-1s1.1-1 .5-1c-.5 0-1.7.5-2.5 1zM305.5 297c-.3.6.1.7.9.4 1.8-.7 2.1-1.4.7-1.4-.6 0-1.3.4-1.6 1zM530.2 311.7c.1 10.8.3 13.7.7 9.3.4-4.5.8-5.9 1.3-4.5 1.4 3.6 1.7 10.5.5 10.5-.5 0-.3.8.5 1.7 3.1 3.6 3.1 4.7.1 2.5-2.3-1.6-3-1.8-3-.7 0 .8.9 2.3 2 3.2 1.5 1.3 1.8 1.4 1.2.3-.7-1.2-.6-1.3.6-.2.9.8 1.4 3.5 1.5 7.2l.1 5.9-2.9-2c-3.8-2.7-3.6-.5.2 2.8l3.1 2.5-.7 8.2c-.3 4.4-.8 8.3-1.1 8.6-.2.2-1.3-.1-2.3-.8-1.6-1-2-1-2 .2 0 1.4 5.8 6.6 7.3 6.6.3 0 .5-6 .3-13.3-.1-7.2.1-14.8.5-16.7.3-1.9.7 4.5.8 14.2.1 11.5.5 17.8 1.1 17.8.7 0 .9-10.8.5-33.5-.3-18.4-.3-33.5 0-33.5s2.4.9 4.5 2c4.5 2.3 5.4 1.1 1.3-1.5-1.6-1-3.9-3.1-5.2-4.7-2.1-2.6-9.2-7.8-10.6-7.8-.3 0-.4 7.1-.3 15.7zm8.7 14.2c.1 7.4-.2 13.1-.7 13.1-.5 0-1-6.9-1-15.8 0-9.7.3-14.7.8-13 .4 1.5.9 8.6.9 15.7zM368 307.5c-.7.8-2.3 1.5-3.6 1.5-2.5 0-14.5 4.9-15.5 6.3-.4.5-1.1.7-1.6.4-.5-.3-1.5-.2-2.3.3-1.2.7-1 1.1.9 1.8 2.1.7 2.2 1 .7 1.5-1.4.6-1.5.9-.4 2 .7.8 2 1.2 2.8 1 3.2-.8 4.4 2.4 4.5 12.8.1 5.4.5 10.2.9 10.6.4.5.7-.1.6-1.2-.4-4 0-14.8.6-14.3 1.3 1.3.4 16.1-1.1 18.4-3.9 6-4.8 7.8-3.5 6.6.8-.6 1.6-1.2 2-1.2.3 0 .4 6.7.3 15-.1 8.2.1 15 .4 15 .3 0 3.7-.9 7.5-2.1 5.1-1.5 7.1-2.6 7.7-4.2 1.5-4.1-.5-13.6-2.1-9.9-.5 1.1-6.4 5.2-7.6 5.2-.7 0-.8-1.4-.5-3.5.4-2.8.2-3.5-1-3.5s-1.7 1.3-2 4.7l-.3 4.8-.2-4.5c-.2-5.7 3.5-11.4 9.3-14.4 3.9-2 4-2.3 4.3-7.8.2-3.1-.1-6.5-.7-7.6-.7-1.4-.8-2.3-.1-2.7.6-.4 1-6.8 1-16 0-11.3.3-15.5 1.3-15.8.7-.4.8-.6.1-.6-.6-.1-1.7.6-2.4 1.4zM350.5 320c-.3.5-1.4 1-2.3.9-1.4 0-1.3-.2.3-.9 2.7-1.1 2.7-1.1 2 0zm4.6 41.1c-.5 1.3-1 1.9-1 1.2-.1-1.5 1-4.5 1.5-4 .3.2 0 1.5-.5 2.8zM396.3 315.8c-2.4.8-5.7 3-7.8 5.3-3.5 3.9-3.5 4-3.4 12.7.2 10.2 1.1 15.7 2.3 12.9.5-.9 1.3-1.7 1.9-1.7.6 0 0 1.2-1.4 2.6-2 2.2-2.4 3.6-2.6 9.7 0 4-.3 8.6-.6 10.4-.3 1.7 0 3.8.6 4.7 1.1 1.4 1.9 1.3 8-.8 3.7-1.2 7.2-2.7 7.8-3.3 1.2-1.2 1.3-52.4.1-53.3-.4-.4-2.6 0-4.9.8zM551.3 316.7c-.5 1-.7 7.3-.5 14 .3 9.9.7 12.1 1.8 11.6.9-.3 1.4.2 1.4 1.7 0 2-.2 2.1-1.7.9-1-.7-.2.4 1.7 2.5 2.3 2.5 2.9 3.7 1.8 3.4-.9-.1-1.6.1-1.5.7.1.5.6.9 1.1.7.5-.2.4.3-.2 1.1-1 1.1-.9 1.7.1 2.5 1.1.9 1.3 2.7.8 7.5-.1.5-.5.6-1 .2-.6-.3-.8-1.4-.6-2.5.2-1-.4-2.5-1.3-3.2-1.3-1.1-1.4-1.1-.7.2 1.5 2.5 1.5 4.2-.1 3.6-1.2-.5-1.4 1.2-1.3 10.9.3 12.5-.2 11.4 7.7 17.9l2.2 1.9-.2-12.9-.2-12.9-.5 11.5c-.5 9-.8 10.6-1.3 7.5-1.2-6.4-1-26.3.3-27.1.8-.5.8-.8 0-1.3-1.3-.8-2-30.5-.8-31.7.4-.4.7 4.6.7 11.1s.3 11.5.7 11.1c.4-.4.6-5.2.5-10.7-.3-11.1-.2-11.3 6.3-7.6 3.7 2.1 4 2.5 3.7 6.3-.3 3.1.3 5 2.5 8.3 2.7 4.2 2.8 4.3 3.1 1.7.2-1.4.8-2.6 1.3-2.6s1 3.9 1.1 8.7l.2 8.8.3-7.5c.4-9 .9-10.6 2.6-9.3.6.6 2.1 1.3 3.2 1.7 2 .7.3-1-13.1-13.3-3.8-3.4-8.7-8-10.9-10-8.2-7.5-8.2-7.5-9.2-5.4zM336 319.5c-1.4.8-3.2 1.4-4.1 1.5-.9 0-4.3 1.3-7.5 3-3.2 1.6-6.8 3-8 3-2.1 0-6.8 2.9-4.7 3 .6 0 1.5-.5 1.8-1 .8-1.3 4.5-1.3 4.5-.1 0 .5-.9 1.3-2.1 1.6-3.2 1-1.6 3 2.2 2.7 2.5-.1 3 0 1.9.8-1.3.8-1.3 1 .2 1 .9 0 1.9.8 2.2 1.7.3 1 .5 14.2.5 29.3-.1 26.1 0 27.5 1.8 27.2 4-.7 11.2-3.4 12.2-4.6.8-.9 1.2-12.6 1.4-36 .1-19 .2-34.6.2-34.6 0 .1-1.1.7-2.5 1.5zm-2.7 51c-.3.9-.8 1.4-1 1.1-.3-.3-.2-.9.2-1.5.9-1.6 1.5-1.3.8.4zM305 330.9c-.8.5-3.7 1.7-6.5 2.7-5.5 2.2-6.7 4.4-5.3 10.4 1 4.5.8 21.8-.3 24.7-.5 1.3-.5 2.3-.1 2.3s.8 7 .7 15.6c0 8.5.2 15.7.5 15.9 1 .6 10.9-2.2 12.6-3.5 1-.9 1.4-3.7 1.4-10.6 0-8.7-1.1-12.9-2.3-8.4-.3 1.1-1.4 2-2.4 2s-2.4.5-3.1 1.2c-.9.9-1.2.7-1.2-1 0-1.8 2.3-4.1 4-4 .3.1 1.5-.2 2.7-.6 2.2-.7 2.2-.9 2.3-24.2 0-12.9-.3-23.4-.8-23.3-.4 0-1.4.4-2.2.8zm1.3 19.8c-.7.3-1.3 1.2-1.3 2.1 0 1.3-.2 1.4-.9.4-.4-.7-.6-2.5-.3-3.8.4-2.4.6-2.5 2.1-.9 1.2 1.3 1.3 1.9.4 2.2zM467.2 334c-2.9.4-5.3 1.7-7.5 3.8-1.8 1.8-3.6 3-3.8 2.7-.3-.3-.6.1-.7.7-.4 6.5-.4 8.9.1 9.4.8.8 9.3-1.3 13.7-3.4 3.3-1.6 3.5-2 3.6-6.9.1-2.8-.1-5.5-.5-6-.3-.5-2.5-.6-4.9-.3z"/><path d="M530.4 340.2c-.3.4-.4.8-.2.9 3.3.8 4.5.6 4.5-.6 0-1.4-3.5-1.7-4.3-.3zM610.3 339.7c.9.2 2.3.2 3 0 .6-.3-.1-.5-1.8-.5-1.6 0-2.2.2-1.2.5zM204.5 341.9c-3.2 2-10.4 9.1-9.2 9.1.4 0 2.4-1.7 4.5-3.8 2-2 4.8-4.5 6.2-5.4 3.4-2.3 2.2-2.2-1.5.1zM272.5 343.2c-3.3 1.1-7.1 2.8-8.6 3.9-1.4 1-2.9 1.6-3.2 1.3-.3-.3-4 .8-8.2 2.5-4.2 1.7-8.2 3.1-8.9 3.1-.7 0-2.1.8-3.2 1.8-1 1-3.2 1.9-4.7 2-1.5.1-5.1 1.3-8 2.6-2.9 1.3-6.5 2.7-8 3-3.5.8-5.9 5.8-4.6 9.3.5 1.3.6 3.8.3 5.5l-.6 3.3 1.7-3c.9-1.6 1.8-3.1 2-3.3.7-.7-.8 8.3-1.7 10-.6 1.4-.5 1.6.7 1.2 2.1-.8 1.9 0-1.2 5.4-1.9 3.3-2.2 4.3-.9 3.3 2-1.7 6-9.1 4.9-9.1-.5 0-.8-3.3-.8-7.3.1-5.2.6-8 1.8-9.7 1.7-2.4 1.7-2.4 1.9 4 .4 15 0 20-1.5 19.7-.5-.1-1.2.4-1.4 1.1-.3.8.1 1 1.1.6s1.6-.1 1.7.7c.3 4.1-.5 7.6-2 8.9-2.3 2-6.1 8.7-6.1 10.8 0 .9 1.4-.6 3-3.4 2.6-4.4 7.2-8.5 8.4-7.3.2.2.6 3.1.7 6.3.2 4.1-.1 6.1-1 6.4-.9.3-.9.7 0 1.8 2 2.4 2.5 1.6 2.6-4.4.2-7.5.1-7.2 1.8-7.2.9 0 2-1.1 2.5-2.5s1.4-2.5 2-2.5c.6 0 .5.8-.2 2.1-1 1.7-1 2.3 0 2.6 2.1.8 1.3 3.8-2.3 8.9-1.9 2.7-3.5 5.5-3.5 6.1 0 .7-.4 1.3-1 1.3-.5 0-1 .4-1 .9 0 1 3 .2 30.1-8.6 10.8-3.5 20.3-6.9 21.2-7.6 1.8-1.4 2-2.2 1.8-10.4l-.1-6.3-4.5.7c-2.9.4-4.5.2-4.5-.5 0-1.4 5.4-5.2 7.4-5.2 1.4 0 1.6-2.6 1.6-22.5 0-12.4-.3-22.5-.7-22.4-.5 0-3.5 1-6.8 2.1zM231 361.4c0 .3-.4.8-1 1.1-.5.3-1 .1-1-.4 0-.6.5-1.1 1-1.1.6 0 1 .2 1 .4zm-10.4 5.4c-.4 1.1-1.5 3-2.6 4.2-1.9 2.2-2 2.2-2 .3 0-2.1 3.9-7.8 4.7-6.9.3.2.2 1.3-.1 2.4zM265 393c0 .5-.5 1-1.1 1-.5 0-.7-.5-.4-1 .3-.6.8-1 1.1-1 .2 0 .4.4.4 1zm-4.2 3.6c-1.1 2.3-1.3 2.4-1.9.7-.7-2 .8-4.6 2.2-3.8.4.3.3 1.7-.3 3.1zm-10.5 3.4c-.3 1.1-.9 1.7-1.4 1.5-1-.7-.1-3.5 1.1-3.5.5 0 .6.9.3 2zm-14.8 17.3c-.4 1.4-1.4 2.8-2.2 3.2-2.4.9-2.4.2 0-3.2 2.5-3.6 3.1-3.6 2.2 0zM427 347.1c-4.5 2.6-8 7.7-8 11.5 0 1.7.3 3.3.6 3.6.9 1 13.5-3 15.6-4.9 1.5-1.3 1.8-2.8 1.6-6.7-.3-4.9-.4-5.1-3.3-5.4-1.7-.1-4.6.7-6.5 1.9zM589.1 361.1c0 7.1.5 12.7.9 12.4.5-.3.7-4.4.4-9-.6-9 0-10.1 4-7.2 2 1.5 3.4 14.1 1.6 15.2-.5.3-1 .1-1-.5s-.5-.8-1-.5c-.7.4-.7 1.3 0 2.6.6 1.1 1.5 1.7 2 1.4.6-.3.7 0 .4.8-.3.8-.1 1.8.5 2.2.6.3 1.1 1.3 1.1 2.1 0 .9.8 2.3 1.7 3.2 1.6 1.6 1.5 1.7 0 2-1 .2-1.5.8-1.2 1.3.8 1.2-.6 1.1-2.5-.1-1.3-.9-1.3-1 0-1 .9 0 1.1-.3.5-.8-1.5-1.1-1.7-3.2-.2-3.2.8 0 .7-.4-.3-1-.8-.5-2.3-.7-3.4-.4-1.1.4-1.6.2-1.2-.4.3-.5 0-1.2-.8-1.5-1.8-.7-1.5 2.1.3 3.3 1.1.6 1.1.9 0 1.3-.8.4 0 .4 1.6.1 2.3-.4 2.7-.3 1.5.5-1 .7-1.1 1.1-.2 1.1.6 0 1.1.3 1 .7-.3 1.6 1.4 4.2 2.5 3.7.8-.3 1.3.7 1.3 2.4l.2 2.9-3.9-1.9c-4.3-2.1-5.9-2.3-5.9-.7 0 .6 1.8 1.8 3.9 2.6 3.3 1.3 4 2.1 4.3 4.6.2 2.3.9 3.1 2.6 3.4l2.3.3-.2-22.4c-.1-12.3.2-22.9.6-23.6.5-.8 2.2-1 5.6-.6 2.7.4 4.9.3 4.9-.2s-1.9-1.2-4.3-1.5c-2.4-.3-7.8-1.9-12-3.6l-7.8-2.9.2 12.9zM575.1 351c-.1 1.4-.6 4.8-1 7.7-.5 3.6-.3 5.6.6 6.9.7 1 1.4 1.6 1.5 1.3.2-.2 0-4.5-.3-9.4-.3-5-.6-7.9-.8-6.5zM612.3 351.7c.9.2 2.3.2 3 0 .6-.3-.1-.5-1.8-.5-1.6 0-2.2.2-1.2.5z"/><path d="M508 354.4c0 .3 13.7 11.5 26.4 21.6 1.7 1.3 13.9 11.1 27.2 21.6 13.2 10.6 26.3 20.3 29.1 21.7 5.9 3 14.4 5.3 23.3 6.2 9.6 1 22.3 4.1 27.7 6.9 4 2 17.6 13.1 33.8 27.5 9 8 39.1 33.7 47.4 40.6 13.8 11.3 23.6 19.8 30.7 26.6 3.4 3.2 6.4 5.6 6.7 5.3.3-.3.8.5 1.2 1.7.5 1.4.3 2.5-.4 2.7-.6.2-.8.9-.4 1.5.9 1.5-.1.8-17.7-13.8-8-6.7-16.1-13.4-18.1-15-2-1.7-13-10.9-24.4-20.5-11.5-9.6-23.7-19.9-27.3-22.8-3.5-3-7.6-5.5-9-5.7-1.5-.2-3.4-.5-4.1-.7-1-.2-1.5.7-1.5 2.6-.1 2.8.9 3.8 4.7 5 1.2.4 1.7 1.6 1.7 4 0 3.4-.1 3.5-2.6 2.5-1.5-.5-2.9-.7-3.2-.5-.9 1-.5 10.5.5 11.8 1.1 1.3 1.3 1.8 1.3 3.8 0 .7.7.7 2.1-.1 1.3-.6 1.9-.7 1.5-.1-.3.6 0 1.3.6 1.6.7.3.2.3-1 0-2.1-.5-2.3-.4-1.3 1.4.6 1.1.7 2.3.3 2.7-.4.5 0 .6.9.3.9-.4 1.6-.1 1.6.7 0 .8-.7 1.1-1.5.7-1.1-.4-1.3-.1-.7.8.5.8.3 1.1-.6.8-.8-.3-1.3-1.5-1.3-2.6.1-1.2-.3-2.2-.8-2.2s-.7-.4-.3-.9c.3-.5.1-1.2-.3-1.5-.5-.3-.9 1.7-.9 4.3.1 4.6.4 5.1 3.4 6.5 2.7 1.3 3.3 2.2 3.3 4.6 0 2.3-.4 3-1.9 3-1.1 0-2.3-.5-2.6-1-1.3-2.1-2.2-.8-2.8 3.9-.9 7.5-.2 8.9 5.6 10.6 2.8.8 5.2 1.5 5.3 1.5.1 0 .2-12.3.2-27.3.1-14.9.1-27.7.1-28.4.1-1.2 3.8-.7 5.7.8.6.5 1.1 8.2 1.3 21.1.1 11.1.6 20.7 1.1 21.3.5.6 1 3.3 1.3 6 .2 3.6.4 2.6.5-3.2.1-4.5.6-8.5 1.2-8.8.6-.4 1.1 4.8 1.3 13.7.1 7.9.4 1.8.5-13.5.1-15.2.4-27.7.6-27.7.3 0 1.7.5 3.1 1 2.1.8 2.6 1.5 2.2 3.2-.3 1.2 0 3.6.7 5.3.9 2 1 3.8.5 4.6-1.1 1.8-.9 27.8.3 28.5.4.3.8 3 .8 6.1 0 8.4 1.3 5.5 1.6-3.5.3-9.9.2-9.4 1.4-8.7.6.4.9-.7.9-2.7-.1-2.3-.3-2.6-.6-1.1-.2 1.3-.8 2.3-1.3 2.3-1.1 0-.1-11.2 1.1-12.5.5-.5.9-2.7.8-5 0-3.1-.2-3.6-.9-2s-.9 1.3-.9-1.8c-.1-4 .8-4.5 5.2-2.8 2.5 1 2.5 1.1 2.7 15.3.4 21.5.5 24.2 1.4 26 .4.9.3 3.3-.3 5.5-1.9 6.8-1.4 9.9 1.9 12.3l3 2.1-.1-25.6c-.1-14.1.2-25.9.5-26.3 1.3-1.3 4.1 1.6 4.3 4.4 0 1.6.2 13.7.3 26.9.2 15.7.7 24.5 1.4 25.4.8 1.1 1.2-1.7 1.6-11l.6-12.4.2 12.7c.1 7.8.6 12.8 1.2 12.8.7 0 .9-8.5.7-24.6-.3-20.2-.1-24.7 1.1-25.1.7-.3 1.7-.2 2.2.3.4.5 1 12.8 1.3 27.4l.5 26.5 6.3 4.4c15.4 10.7 29.4 19.9 29.7 19.6.3-.3.8-12 1.1-28l.2-6 2.5 4c1.9 3.1 2.4 4.9 2 8-.7 6-1.5 10.6-2.1 11.5-.3.5.1 1.2.9 1.7.8.4 2 1.9 2.6 3.3 1 2.5.8-26.4-.6-71-.4-12.8-.2-22 .5-26.9 1.2-7.9.8-10.4-1-5.3-2 5.9-4.5 4.3-24.2-15.5-10-10.1-18.4-18.3-18.7-18.3-.3 0-.4 12-.3 26.7.1 24.6.3 26.8 2 28 1.6 1.2 8.4 7 24.1 20.5 3 2.7 5.8 4.8 6.2 4.8.4 0 .8-6.4.8-14.3.1-21 .1-23.1.7-22.5.8.8 1.4 12.5 1.5 27.5 0 10.7.3 13.3 1.4 13.3.8 0 1.6.7 2 1.5.7 1.8-.8 2-2.6.2-.7-.7-5.3-4.6-10.3-8.7-4.9-4.1-14.4-12.2-21-18-6.6-5.8-15.2-13.3-19.1-16.6-3.9-3.2-13.2-11.3-20.8-17.9-7.6-6.6-16-13.8-18.6-16-2.7-2.2-8.7-7.3-13.4-11.3-10.5-8.9-16.4-11.6-30.9-14.2-6.2-1.1-14.7-2.7-18.9-3.4-4.2-.8-9.9-2.6-12.7-3.9-2.7-1.4-13.8-9.7-24.7-18.4-10.8-8.7-21.7-17.4-24.3-19.3-2.6-1.9-11.2-8.8-19.3-15.3-13.3-10.6-15.8-12.4-15.8-11.3zm159.7 132.8c-.1 4-.3 1-.3-6.7s.1-11 .3-7.3c.2 3.7.2 10 0 14zm13-5c-.2 1.3-.4.5-.4-1.7-.1-2.2.1-3.2.4-2.3.2 1 .2 2.8 0 4zm-12.4 22.4c-.3 11.7-1.3 12.1-1.3.6 0-5.1.3-9.2.8-9.2.4 0 .6 3.9.5 8.6zm25.4-6.4c-.3.8-.6.5-.6-.6-.1-1.1.2-1.7.5-1.3.3.3.4 1.2.1 1.9zm-28.2.8c-.3.5-1.2 1-1.8 1-.7 0-.6-.4.3-1 1.9-1.2 2.3-1.2 1.5 0zm16.5 1.9c0 1.1-.4 2.3-1 2.6-.6.4-1-.5-1-1.9s.5-2.6 1-2.6c.6 0 1 .9 1 1.9zm33.7 23.3c-.2 3.5-.3.7-.3-6.2s.1-9.7.3-6.3c.2 3.5.2 9.1 0 12.5zm-11-3c-.3.8-.6.5-.6-.6-.1-1.1.2-1.7.5-1.3.3.3.4 1.2.1 1.9zm0 9.5c-.3 1-.5.2-.5-1.7s.2-2.7.5-1.8c.2 1 .2 2.6 0 3.5zm0 6c-.3 1-.5.4-.5-1.2 0-1.7.2-2.4.5-1.8.2.7.2 2.1 0 3zm40 9.5c-.3.8-.6.5-.6-.6-.1-1.1.2-1.7.5-1.3.3.3.4 1.2.1 1.9zm-14 8.5c-.3 1-.5.4-.5-1.2 0-1.7.2-2.4.5-1.8.2.7.2 2.1 0 3zm14 9.5c-.3.8-.6.5-.6-.6-.1-1.1.2-1.7.5-1.3.3.3.4 1.2.1 1.9zm11 11c-.2 1.3-.4.3-.4-2.2s.2-3.5.4-2.3c.2 1.3.2 3.3 0 4.5zM619 359.4c0 1.9.6 2.1 6.3 2.1 5.6 0 6.2.2 6 2-.2 1.8.4 2.1 3.5 2.1 2 0 5.7.5 8.2 1.1 4.1 1.1 4.3 1 2.5-.3-4.5-3.4-14.4-7.3-20.2-8.2-6-.8-6.3-.8-6.3 1.2zM468 364c-3.1 1-14.6 4.4-22 6.6-3 .9-7.7 2.4-10.4 3.5-2.7 1-5.3 1.9-5.9 1.9-2.9 0-24.6 7.5-23.9 8.2.5.5 2.1.4 3.6-.2 1.5-.5 4.3-1 6.2-1 3.3 0 3.4.1 3.5 4.2 0 2.4.3 6.8.5 9.8.2 3 .5 6.3.5 7.3 0 .9.4 1.5 1 1.2 1.3-.9 1.1.3-.7 2.9-1.4 2.3-1.6 4-1.2 17.1.1 3.3.1 11 0 17.2-.1 6.2.2 11.4.7 11.7.5.3 4.1-.1 8.1-1 8.8-2 9.8-3.3 9.2-12.7-.2-3.7-.7-6.5-1.1-6.2-.4.2-.7 1.8-.6 3.5.1 2.2-.2 2.9-1.2 2.6-.7-.3-1.3-.1-1.3.4 0 .6-.6 1-1.3 1-.8 0-2.4 1.1-3.7 2.5l-2.4 2.6-1-2.3c-.5-1.3-.8-2.9-.7-3.7.1-.7-.2-1-.8-.7-.6.4-.8-.2-.5-1.6.3-1.3.7-3.8.8-5.5.2-3.9 2.5-5.8 8.9-7.3l4.7-1.2v-13.1c0-12.3-.1-12.9-1.7-11.4-1 .8-3.7 2-6.1 2.7-2.4.6-4.9 1.3-5.7 1.6-.7.3-1.6-.3-2-1.5-.6-2 1.3-6.5 4.4-10.4.8-1 1-1.7.3-1.7-.6 0-1.2.6-1.5 1.2-.9 2.6-1.5.1-1-4 .3-2.3.8-4 1.1-3.8.2.3 2.2-.4 4.3-1.4 5.7-2.9 7-2.7 6.2 1.2-.3 1.9-.2 3 .3 2.5s1.1-3.4 1.4-6.5l.5-5.6 5.5-1.3c3-.7 7-1 8.8-.7 3 .5 3.2.7 3.2 4.7.1 2.3.1 7.8.2 12.2v16c0 4.4.1 15.2.2 24 .3 18.1-.7 16.6 9.6 14.4 5.5-1.1 10.1-4.2 8.6-5.6-.4-.4-1-.2-1.4.4-.7 1.2-8.6 4.3-10.9 4.3-.7 0-1.3-1.1-1.3-2.5 0-1.6-.4-2.3-1.3-1.9-1 .3-1.4-1.6-1.6-8.2-.3-9.8-.1-10.1 9.4-13.9 5.3-2.1 6.1-3.6 6.4-11.2.1-3.1 0-3.2-2.6-2.3-2.6.9-2.7.9-.9-.5 1.1-.8 1.6-1.5 1-1.5-.5 0-.1-.5.9-1.1.9-.5 1.7-1.8 1.7-2.9 0-1.6-.4-1.7-3.2-.9-7 2-7.5-.3-.6-2.5 1.7-.6 3.4-1.7 3.6-2.5.3-.8 0-1.1-.7-.7-.6.4-4 1.5-7.5 2.5-5.9 1.6-6.3 1.7-5.9 0 .3-.9 0-2-.6-2.3-3-1.9.4-13.2 5.7-18.8 1.9-2 4.8-4 6.4-4.3 1.9-.5 2.8-1.3 2.8-2.6 0-2-.9-2.2-5-.9zm3 41.4c0 .3-.4.8-1 1.1-.5.3-1 .1-1-.4 0-.6.5-1.1 1-1.1.6 0 1 .2 1 .4zM578.2 367c0 1.9.2 2.7.5 1.7.2-.9.2-2.5 0-3.5-.3-.9-.5-.1-.5 1.8zM361 367.9c0 .6.4 1.3 1 1.6.6.3.7-.1.4-.9-.7-1.8-1.4-2.1-1.4-.7z"/><path d="M508.5 369.2c-.7 2.8-.1 8.3 1.5 12.3.6 1.6.9 4 .5 5.2-.6 2.4.9 3.3 1.8 1 .3-.6.6 2.9.6 8 .1 5 .6 9.5 1.1 9.8.6.4.8 1 .5 1.5-.3.5-.1 1.1.5 1.5.6.4 1-1.6 1-5.5 0-3.8-.4-5.9-1-5.5-.6.4-1-.7-.9-2.7.1-3.1.1-3.2.9-.8.6 1.7.9-.1 1-6 .2-13.6 1.6-6.2 1.8 9.6.1 13.5 0 14.4-1.9 15.5-1.5.8-2.5.7-3.7-.3-1.5-1.1-1.6-1.1-.4.4 1 1.3 1 1.7 0 2-.8.3-.6.7.6 1.1 1.2.5 1.5.3 1-.6-.4-.6-.3-.8.1-.4.5.4 1 2.1 1.1 3.8.2 2.5 0 2.8-1.2 1.8-.7-.6-1.2-1.5-.9-1.9.3-.5.1-1.2-.5-1.5-.6-.4-1-.3-.9.2.1.4.1 1.5 0 2.3-.1 1.3-.2 1.3-1.1 0-.8-1.3-1-1.3-1 .2 0 .9.5 2 1 2.3.6.3 1.1 2.5 1.1 4.8.1 4 .2 4 .9 1.2.5-2 .8.1.9 6.8.1 6.3-.3 9.6-.9 9.2-2.5-1.5-.7 1.6 2.1 3.5l3 2.2-.2-17.1c-.1-9.5.1-17.5.5-17.8.3-.4.6 7.5.6 17.5s.3 18.2.8 18.2c.4 0 .6-16 .4-35.6-.2-33.6-.1-35.6 1.5-34.9 1 .4 3.2 1.2 4.8 1.7 1.7.6 3.4 1.4 3.8 1.8.4.3.9 4.3 1.1 8.8.3 6.3.8 8.7 2.5 11.1 1.9 2.6 2.1 4 1.7 9.3-.4 5-.1 6.7 1.2 8.2 1.8 2 .7 1.7-2.9-.8-.8-.6-.3.1 1.2 1.5 1.4 1.5 2.9 3.3 3.2 4 .3.8.6-6 .8-15.1.1-9.8.5-14.9.9-12.5 1.1 6.8.7 30-.6 29.8-1.5-.3-2.3 3.7-1.3 6.3.6 1.6.8 1.5.8-.8.1-1.5.6-3 1.1-3.3.7-.4 1 5.5 1 16.9 0 9.7.3 17.6.8 17.6.4 0 .6-15.5.4-34.4l-.3-34.4 4.8 1.8 4.8 1.8.7 15.2c.5 10 1.1 15.7 2 16.8 1.1 1.3 1.1 1.5-.2.8-.8-.5-.1.4 1.5 1.8 3 2.7 3 2.7.2 1-4-2.4-4.4-1.1-.5 1.5 1.8 1.1 2.8 2.1 2.1 2.1-.7 0-1 .9-.8 2.1.3 1.2.1 1.8-.3 1.5-.4-.4-.7-1.3-.7-1.9 0-.5-.5-1.2-1.1-1.4-1.3-.4-1.3 3.5 0 5.6.6 1 .5 1.2-.2.7-1.8-1.1-1.4.4.6 2.2 1 1 1.2 1.3.5.9-2.2-1.5-3 .1-2.7 5.3.1 3.5.8 5.6 2 6.4.9.7 1.8 2.7 1.9 4.5.2 2.7-.1 3.2-1.7 2.8-1-.3-1.8-.1-1.8.4s.6.9 1.3.9c.8 0 1.4.7 1.4 1.5 0 1.1-.4 1.2-1.4.4-1-.9-1.3-.8-1.3.2 0 1.4 4.9 5.2 8.4 6.5 1.8.7 1.8-.3 1.2-32.4-.4-18.3-.6-33.2-.3-33.2.2 0 2.5.7 5.1 1.6 4.6 1.6 4.7 1.7 4.1 5.1-.4 2.7 0 3.9 2 5.9 1.8 1.8 2.5 3.6 2.5 6.4 0 4.2-.7 4.9-2.8 2.8-1-1-1.3 1.9-1.1 14 .1 15 .1 15.3 2.5 16.9 2 1.3 2.4 2.4 2.4 6.4 0 5.3-.1 5.4-3.1 3.9-1.8-1-1.9-.7-1.9 4.3 0 5.2.2 5.6 3.8 8.1 2.1 1.4 4.3 2.6 4.9 2.6.8 0 1-9.1.8-31.5-.3-34.2-.6-32.5 5.4-30.4 2.9 1 3.1 1.4 3.1 6.1 0 3.5.6 5.8 2 7.5 2.3 2.9 3 11.7.8 9.5-2.4-2.4-3-1.1-2.5 4.9.3 4.2 1 6.4 2.2 7.3 1.7 1.3 1.7 1.4-.1 2.5s-1.8 1.1.1.9c1.7-.3 2 .3 2.1 4.4.1 2.6-.3 4.5-.7 4.2-.5-.3-.9-1.2-.9-2s-.5-1.4-1.1-1.4c-.5 0-.7.4-.4 1 .3.5.1 1-.6 1s-.1 1.3 1.4 2.8c3.8 4 3.6 10.7-.3 10.7-1.4 0-1.7 1.9-1.1 8 .1 1.4 5.6 5.5 7.4 5.5.5 0 .8-13.8.7-30.8 0-16.9 0-31.8.1-33.1 0-1.3-.5-2.8-1.3-3.3-.9-.7-.2-.8 2.2-.4 3.9.5 2.8 0-5.4-2.9-2.6-1-7.4-3.8-10.5-6.3-3.1-2.6-9-7.1-13.2-10.2-8.6-6.3-21.3-16.2-28-21.8-2.5-2.1-7.6-6-11.3-8.7-3.8-2.8-9.4-7.2-12.5-9.8-7.8-6.8-8.9-7.3-9.6-4.5zm51.2 66c-.1 4.6-.3 1.1-.3-7.7s.2-12.5.3-8.3c.2 4.2.2 11.4 0 16zm19.1-1c-.1 7.7-.2 7.9-.7 2.8-.3-3-.4-6.7-.2-8.3.7-5.2 1.1-2.7.9 5.5zm-.1 18.5c-.2 2.1-.4.6-.4-3.2 0-3.9.2-5.5.4-3.8.2 1.8.2 5 0 7zm17 9c-.2 3.7-.3.9-.3-6.2 0-7.2.1-10.2.3-6.8.2 3.4.2 9.3 0 13zm-36 2.5c-.1 4-.3 1-.3-6.7s.1-11 .3-7.3c.2 3.7.2 10 0 14zm19 10.5c-.2 3.2-.3.6-.3-5.7s.1-8.9.3-5.8c.2 3.2.2 8.4 0 11.5zm17 17c-.1 4.3-.3 1-.3-7.2 0-8.3.2-11.8.3-7.8.2 4 .2 10.7 0 15zm-17-7.5c-.3.7-.5.2-.5-1.2s.2-1.9.5-1.3c.2.7.2 1.9 0 2.5zM571.4 368.4c.1.8.5 1.8.8 2.2.4.3.5-.1.4-1-.1-.8-.5-1.8-.8-2.2-.4-.3-.5.1-.4 1zM647.7 370.2c-.2.7-.2 6.9.1 13.8.3 8.6.9 12.8 1.8 13.8 1.3 1.3 1.8 3.3 1.5 5.9-.1.7.3 1.3.8 1.3.6 0 1.2-5.2 1.4-13.3l.3-13.2.2 14 .2 14-2.5.1c-1.4.1-2.2-.2-1.9-.7.3-.5 0-.9-.5-.9-.6 0-1.1.7-1.1 1.5s.7 1.5 1.5 1.5 1.5.5 1.5 1.1c0 .8.5.8 1.5-.1 1.2-1 1.5-1 1.5.1.1 7.9 1.4 28.5 1.7 28.9.3.3.3-12.5.1-28.3-.3-15.8-.1-29 .3-29.3.5-.3 1.9 0 3.1.7 1.3.6-.6-1.8-4.2-5.5-3.5-3.6-6.5-6.6-6.6-6.6-.1 0-.4.6-.7 1.2zM574.4 371.5c.1.8.5 1.8.9 2.1 1 1 .9 3.6-.1 3-.5-.3-.9.1-.9.9s.3 1.2.7 1c.4-.2.7.2.7 1 0 1.3-.4 1.3-2.4 0-2.1-1.4-2.3-1.4-2.3.4 0 1.1.5 2.1 1.1 2.3.8.3 1.3 3.9 1.5 10.2.1 7.4.6 10.2 1.8 11.4 1.5 1.5 1.6.3 1.6-13.6 0-9.5.4-15.2 1-15.2s1-1 1-2.3c0-1.6-.3-1.8-.9-.9-.7 1.1-.9 1.1-1.4-.2-.8-2-2.6-2.1-2.3-.1zM634.2 386c-.1 4.4-.7 8.1-1.4 8.8-.7.7-.8 1.2-.2 1.2.5 0 .2.5-.6 1-1.3.8-1.2 1 .3 1 1 0 1.7.8 1.7 2.1 0 1.5-.5 1.9-1.8 1.5-7.8-2.5-12.2-3.2-12.2-2.1 0 1.6 2.3 2.5 6.1 2.5 1.6 0 3.7.8 4.7 1.8.9.9 2.5 1.6 3.5 1.4 1.4-.3 1.7-1.4 1.6-7-.1-3.7-.5-9.6-.9-13.2l-.7-6.5-.1 7.5zM390.5 387.5c-5.5 1.8-14.7 4.8-20.5 6.5-11 3.3-29.9 9.1-53.5 16.5-7.7 2.4-20.7 6.5-29 9-8.2 2.5-17 5.3-19.5 6.1-2.5.9-6.1 1.9-8 2.3-1.9.5-11.8 3.6-21.9 7-10.1 3.3-19.1 6.1-20 6.1-2.1 0-4.7 1.7-3.9 2.5.4.4 1.3.3 2-.1 2.8-1.8 5-.6 2.8 1.6-.3.3-1.3 2.1-2.4 4-1.6 3.2-1.4 3 3-1.7 4.7-4.9 10.4-9.3 10.4-7.9 0 .4-.7 2.3-1.5 4.3-.9 2-1.3 4.4-1 5.4.5 1.3-1.2 3.6-5.9 8.3-3.6 3.6-6.6 7-6.6 7.7 0 .7 1.3-.3 3-2.2 1.6-1.9 3.4-3.8 3.9-4.2 6.3-5.4 8.3-7.9 7.8-9.8-.9-3.5 4.7-11.2 6.7-9.2.3.4.6 2.7.6 5.2 0 4.1-.5 5-4 8.4-2.2 2-4 4.3-4 4.9 0 .7 1.6-.3 3.5-2.2 3-2.9 3.5-3.1 3.5-1.4 0 1-.4 2.3-.8 2.9-.7 1-1.4 1.2-5.2 1.8-2.4.4-6.1 3.7-5.4 4.8.3.5-.1 1.9-.7 3.1-1.4 2.5-1.8 6.7-.9 7.3 1.2.7-.2 6.5-1.6 6.5-1.4 0-4.4 3.8-4.4 5.5.1.5.9-.1 2-1.4 1.3-1.4 3.2-2.4 5.2-2.5 2.9-.1 3.3.2 3.1 2.2-.3 2.1 0 2 3.2-1.1 4.1-4 8.5-5.4 8.5-2.8 0 1-.5 2.2-1.2 2.9-1.1 1.1-2.8 17.2-1.8 17.2 2.4 0 41.5-10.2 42.6-11.1 1.1-.9 1.4-7.1 1.4-33.5 0-27 .2-32.4 1.4-32.4.8 0 1.6.7 2 1.5.3.8 1.6 1.5 2.8 1.5 1.9 0 2 .2.8 1s-1.2 1 .5 1c1.5 0 1.7.2.6.9-1 .7-.6 1.1 1.7 1.6l3 .6-.1 7.5c-.1 4.1 0 7.4.3 7.4s.5 8.8.5 19.6.3 19.8.8 20.1c.4.2.7-4.7.7-10.9.1-10.2.2-11.1 1.5-9.4.8 1.1 1.5 1.4 1.5.8 0-3.5 1.3-4.9 5.1-5.7 2.3-.5 5.8-4.1 5.1-5.3-.1-.1-.2-9.6-.2-21.1v-20.8h4.8c2.6 0 3.9.2 3 .4-2.9.7-2.1 3.3 1 3.2l2.7-.1-2.5-.7-2.5-.7 2.9-.8c2.9-.7 5.6 1.1 3.5 2.5-.6.3-.4 1.1.5 1.8 1.1 1 1.5 4 1.5 13.8 0 7-.5 13.5-1 14.5s-.6 1.8-.1 1.8.8 6.4.8 14.1c-.1 10.3.2 14.3 1.1 14.6.7.3 4.1-.4 7.5-1.5 4.9-1.5 6.4-2.4 6.6-4.1.2-1.4-.2-2.1-1.2-2.1-2 0-2-.9-.1-3.4 1.2-1.6 1.5-7.1 1.5-31.8 0-19.2.4-29.8 1-29.8s1 .4 1 1c0 .5.8 1 1.8 1 1.4 0 1.5.2.2 1-1.2.7-.9.9 1 .8 1.4-.1 3.8-.1 5.4 0 2.8.2 2.9.3 1.1 1.6-1.8 1.3-1.8 1.4.8.9 2.7-.5 2.8-.5 2.4 4.1-.2 2.5.1 4.6.5 4.6.5 0 .6.5.2 1.1-.3.6-.6 4.5-.7 8.7 0 5.2-.5 8.5-1.6 10.2-1.4 2.2-1.4 2.3 0 1.3 1.3-1.1 1.5.5 1.7 13.5.1 8 .6 14.9 1 15.2.4.4 3.5 0 7-.8 4.4-1 6.6-2 7.5-3.5.9-1.6 1.1-10.1.9-32.6l-.3-30.3-2.7.5c-1.5.3-3.9.8-5.4 1.1-1.6.4-2.8.2-2.8-.3 0-1.4 5-5.1 6.9-5.1.9 0 2.8-1.3 4.2-2.9 2.3-2.6 3.2-2.9 8.7-3 4.7 0 6.2.3 6.2 1.3 0 .8-.6 1.7-1.2 1.9-.9.4-.8.6.2.6.9.1 1.6.9 1.7 1.8.2 5 .5 29.9.3 30.8-.1.5-.2 1.2 0 1.5.6 1.7.6 23.9-.1 25.6-.5 1.4-.3 2.8.5 4 1.2 1.6 1.8 1.6 7.5.4 10.2-2.1 9.4 1.3 9.2-39.4-.2-26.2.1-36.1 1-37.2 1.8-2.1-1.1-1.7-12.6 2.1zm-117.4 85.6c-.9 2.2-1 2.2-1 .3-.1-1.1.2-2.4.6-2.7 1.2-1.2 1.4 0 .4 2.4zM662.5 385c-.4.6-.4 3-.1 5.3.3 2.3.6 10.5.7 18.2.1 8.8.6 14.3 1.3 14.7.8.5.7.8-.1.8-1 0-1.3 2.8-1.2 10.4 0 9.2.3 10.6 2.1 12.3l2.1 1.8-.5-13.3c-.3-7.3-.1-13.5.4-13.8.4-.3.8 5.8.8 13.5s.4 14.2.9 14.6c.6.3.8-10.1.5-27-.3-15.1-.2-28 .1-28.5.5-.8 1.1-.7 2.1.1.8.6 1.6 1 1.7.8.2-.2-2-2.8-4.8-5.8-3.5-3.5-5.5-4.9-6-4.1zm5.4 23.2c.1 6.6-.3 10.8-.9 10.8-.6 0-1-5-.9-13.3.1-8.1.4-12.2.9-10.7.4 1.4.8 7.3.9 13.2zM592 390.5c1.4.8 3 1.4 3.5 1.4.6 0-.1-.6-1.5-1.4-1.4-.8-2.9-1.4-3.5-1.4-.5 0 .1.6 1.5 1.4z"/><path d="M626.1 394.9c-1.1.7-.9 1 .8 1.6 1.3.4 2.5.4 2.8.1.4-.3-.2-.6-1.3-.6-1.6 0-1.7-.2-.4-1 .8-.5 1.1-1 .5-1-.5 0-1.6.4-2.4.9zM216.6 396.9c-1 1.1-1.6 2.6-1.4 3.3.3.8 1.2 0 2.2-2 1.9-3.7 1.7-4-.8-1.3zM675.9 398.2c-.4 6 .4 25.6 1.2 27.6.6 1.5.6 4.5-.1 8.1-1.5 8.8-1.1 21.2.9 23.5 1.5 1.7 1.6 1 2.1-11l.6-12.9.2 13.7c.1 8.5.6 13.8 1.2 13.8.7 0 .8-9.1.4-27.1l-.7-27.2 2.9.7c2.6.7 2.3.3-2.6-4.8-3-3.1-5.6-5.6-5.7-5.6-.2 0-.3.6-.4 1.2zm4.8 32c-.3.8-.6.5-.6-.6-.1-1.1.2-1.7.5-1.3.3.3.4 1.2.1 1.9zM218.8 399.7c-1.7 2-3.8 5.8-3.8 6.9 0 1.1 1.3-.5 3.9-4.9 2.4-4 2.4-4.8-.1-2zM627.8 398.7c.7.3 1.6.2 1.9-.1.4-.3-.2-.6-1.3-.5-1.1 0-1.4.3-.6.6zM510 404.4c0 .2.8 1 1.8 1.7 1.5 1.3 1.6 1.2.3-.4s-2.1-2.1-2.1-1.3zM578.5 404.9c-.3.5-.1 1.2.5 1.6.5.3 1-.1 1-.9 0-1.8-.6-2.1-1.5-.7zM511 408.4c0 .2.7.7 1.6 1 .8.3 1.2.2.9-.4-.6-1-2.5-1.4-2.5-.6zM688.7 411.4c-.3.8-.3 13.7 0 28.8.5 25.8.8 28.7 3.3 28.8.3 0 .4-5.2.2-11.6-.3-9.7 0-11.9 1.3-13.4 1.4-1.5 1.6-3.5 1.1-12.2-.5-10.7.1-13.7 2.5-12.2.8.4-.6-1.5-2.9-4.4-2.4-2.9-4.5-5.2-4.7-5.2-.2 0-.5.6-.8 1.4zm4.3 19.2c0 6.9-.3 12.3-.7 12.1-.8-.5-.5-24.7.3-24.7.2 0 .4 5.7.4 12.6zM648 412.6c0 .8.5 2.5 1.1 3.7.7 1.1 1.2 5.7 1.3 10.1.1 5.4.5 8.1 1.4 8.4.9.3 1.2-2 1.1-9.8-.1-8.6-.4-10.5-2-12.1-2.3-2.3-2.9-2.4-2.9-.3zM600 415.2c0 .7.5 2 1 2.8.8 1.2 1 .9 1-1.3 0-1.5-.4-2.7-1-2.7-.5 0-1 .6-1 1.2zM220.3 420.4c-1.5 1.3-2.5 2.7-2.2 3 .3.3 1.8-.8 3.4-2.4 3.5-3.6 2.7-4-1.2-.6zM635 420.5c0 1.3-.8 2.9-1.7 3.4-1.6.9-1.6 1 .5 1.1 1.9 0 2.2-.5 2.2-3.5 0-1.9-.2-3.5-.5-3.5s-.5 1.1-.5 2.5zM700.1 446.7c.1 27.5.4 30.9 3.7 33.1l2.2 1.4-.2-23.3c-.1-17.6-.3-20.9-.8-13.4-.6 10-.6 10-.8 2.5-.1-4.1-.5-9.9-.9-12.8l-.6-5.3 2.7 1.1c4.6 1.7 4.6 1.2.2-3.5-2.4-2.5-4.6-4.5-5-4.5-.3 0-.6 11.1-.5 24.7zm4.6 26.5c-.2 3.5-.3.7-.3-6.2s.1-9.7.3-6.3c.2 3.5.2 9.1 0 12.5zM218 426c0 1.3 1.1 1.3 3 0 1.2-.8 1.1-1-.7-1-1.3 0-2.3.4-2.3 1zM711.2 458.6c.1 14.8.5 27.7 1 28.6 2 4.1 2.8 1.3 3-10l.2-11.7.6 13c.3 7.1.7 12.1 1 11 .3-1.1.3-11.2 0-22.5-.4-13.5-.7-17.4-.9-11.5l-.4 9-.7-6c-.9-6.8-1.2-18.5-.6-18.5.3 0 1.7.5 3.1 1l2.7 1-3.1-3.8c-6.5-8.2-6.1-9.3-5.9 20.4zM531.2 438.7c.2 4.4.7 5.8 1.8 5.8 1.2 0 1.5 1.7 1.6 8.5.2 7.6.4 8.6 2.4 9.9l2.3 1.5-.6-5.4c-.4-3-.7-9.1-.7-13.5v-8l-3.6-2.3-3.5-2.3.3 5.8zM552 437.4c0 .2.7.7 1.6 1 .8.3 1.2.2.9-.4-.6-1-2.5-1.4-2.5-.6zM606.1 458.9c0 8.3.4 15 .7 15 2.2-.3 2.8.5 2.8 3.6 0 1.9-.2 3.5-.3 3.5-.2 0-.9-1.4-1.6-3.2-1.1-2.8-1.3-1.4-1.5 12.7-.2 16.9 0 17.5 5 20.1l2.8 1.4v-32l-.1-32-4-2-4-2.1.2 15zm6.6 18.3c-.2 1.3-.4.5-.4-1.7-.1-2.2.1-3.2.4-2.3.2 1 .2 2.8 0 4zm0 8.5c-.3 1-.5.2-.5-1.7s.2-2.7.5-1.8c.2 1 .2 2.6 0 3.5zm-3.1-.1c.1.9 0 1.3-.4 1-.3-.4-.7-1.4-.8-2.2-.1-.9 0-1.3.4-1 .3.4.7 1.4.8 2.2zm3.1 8.6c-.2 1.3-.4.3-.4-2.2s.2-3.5.4-2.3c.2 1.3.2 3.3 0 4.5zm0 5c-.3.8-.6.5-.6-.6-.1-1.1.2-1.7.5-1.3.3.3.4 1.2.1 1.9zm0 8c-.2 1.3-.4.3-.4-2.2s.2-3.5.4-2.3c.2 1.3.2 3.3 0 4.5zM509.4 449.8c.3.6 6.1 4.5 12.9 8.7 6.7 4.2 19 12 27.2 17.2 35.3 22.6 63.9 40.3 64.5 40.1.4-.2-7.8-5.7-18.3-12.3-10.4-6.6-22.5-14.3-26.7-17-4.3-2.8-12.4-7.9-18.1-11.5-5.7-3.6-14.9-9.4-20.5-13-18.9-12.1-22.1-13.9-21-12.2zM628 455.1c0 .6.9.8 2 .4 1.2-.4 3.8-.4 6 0 3.4.6 3.8.9 3.1 2.7-.8 2.1-8.4 4.9-10.9 4-.7-.2-1.2.1-1.2.7 0 1.6 2.6 1.3 9.5-.8 5-1.6 6-2.3 6.3-4.3.3-2.2-.2-2.6-3.5-3.1-5.9-1-11.3-.8-11.3.4zM652.1 457.4c.2.2 1.8.6 3.4 1 2.2.5 2.6.4 1.5-.4-1.4-.9-5.9-1.5-4.9-.6zM466.8 459.5c-.2.3-2.5.9-4.9 1.4-3.9.8-15.1 3.5-24.9 6.1-1.9.5-5.7 1.4-8.5 2-2.7.6-6.6 1.5-8.5 2-1.9.5-5.7 1.4-8.5 2-2.7.6-6.6 1.5-8.5 2-3.7 1-30.5 7.4-38 9.1-2.5.6-6.3 1.5-8.5 2.1-2.2.6-5 1.2-6.1 1.4-1.2.1-5.7 1.2-10 2.3-7.9 2-25.1 6.1-50.4 12-7.4 1.7-19.1 4.5-26 6.2-6.9 1.7-14.5 3.5-17 4-5.3 1.1-14.6 3.5-21.4 5.5-2.6.8-5.9 1.4-7.2 1.4-3.8 0-5.5 4.6-3 8.2.8 1.1 1.2 2.8.8 3.7-.5 1.4-.4 1.4.9.1.8-.8 1.9-3.3 2.4-5.4.8-3.2 1.6-4.1 3.9-4.7 1.5-.4 3.6-1.5 4.5-2.3 1.2-1.1 2.5-1.3 4.6-.7 2.8.7 3 1.1 3.2 5.6.1 2.7-.2 5.4-.8 6.1-.7.8-.6 1.3.2 1.6 1.9.6.1 4.4-2.1 4.5-2.3.2-2.4 0-.9-3 1-2.1 1-2.1-.5-.3-.9 1.1-1.6 2.3-1.6 2.6 0 .3-1.6 1.2-3.5 2-2.9 1.1-3.5 1.9-3.5 4.3 0 1.6.9 4 2 5.4 1.1 1.4 1.8 2.9 1.5 3.3-.5.8 11.5 7 13.5 7 .6 0 3.4 1.2 6.2 2.6 6.1 3.1 21.4 4.5 20.4 1.9-.6-1.7-.2-1.8 2.2-.7 6.5 3.2 7.6 4.2 7.9 6.7.2 1.5 0 2.4-.5 2.1-.6-.3-1.3.1-1.6 1-.5 1.3-1.5 1.5-4 1.1-2.7-.4-3.8-.1-5.3 1.5l-1.8 2.1 5.7-.7c3.2-.3 6.9-1.1 8.2-1.8l2.6-1.1.2-33.1.3-33 4-.3c3.2-.3 3.7-.1 2.2.7-2.4 1.5-1.2 3 2.4 3 2.6 0 3.4.9 3 3.2 0 .5.2.8.7.8.4 0 .7 12.9.7 28.6v28.6l5.5-.7c9.7-1.1 9.1-.4 8.9-11.1-.2-6.6-.6-9.4-1.5-9.4-2 0-2.5 4.3-.7 6.2 1.5 1.7 1.5 1.8 0 1.8-1 0-1.7.5-1.7 1.1 0 .6-.7.9-1.5.5-.9-.3-1.5 0-1.5.9 0 .8-.4 1.5-1 1.5-.5 0-1-2.2-1-4.9s-.2-5.5-.5-6.3c-.8-2.2 1.1-4.1 5.1-4.7l3.9-.6.3-22.8.2-22.7 2.8.1c1.5 0 2.1.3 1.5.6-1.6.6.9 3.3 3.1 3.3.8 0 1.8.5 2.1 1.1.4.6 1.4.8 2.2.5.8-.3 1.2-.2.8.3-.3.5 0 1.1.7 1.3.9.3 1.2 7.6 1.3 29.6V565l6-.6c10.4-1.1 9.5 2.4 9.5-37.1 0-19.1.3-35 .8-35.5s1.9-.4 3.3.2c2.2 1 2.3 1 .1.6-1.2-.2-2 0-1.6.5.3.5 1.2.9 2 .9s1.2.4.9 1c-.4.6.5 1 2 1s2.4.4 2 1c-.3.5 0 1 .7 1 .9 0 .9.3-.2 1-1 .7-1.1 1-.2 1 .7 0 1.5-.7 1.8-1.5 1.2-3 3.3 1.1 3.2 6.3 0 2.8.3 5.5.6 6.1.3.5-.1 1.7-1 2.5-1.4 1.5-1.4 1.6.3 1.7 1 0 1.3.3.7.5-.6.3-.9 1.5-.7 2.9.4 1.8 0 2.4-1.8 2.8-2.4.4-2.4.4.1.6 2.3.2 2.4.3.5 1.1s-1.9.9.3.9c1.9.1 2.1.4 1.3 2-.6 1-.7 2.2-.3 2.6 1 1 .9 2.9-.3 3.7-.7.5-.6.8.1.8.8 0 1.1 4.2 1 13.6l-.2 13.6 3-.6c1.7-.4 4.9-.9 7.1-1.3 6.7-1 6.6-.5 6.5-22.2-.3-44.7 0-52.7 1.4-50.9.7 1 2.1 1.8 3 1.8 1 0 1.5.4 1.2.9-.3.5.8 1.1 2.5 1.5 2.5.5 2.9.9 2 1.9-.8 1.1-.5 1.3 1.9.9l3-.4v6.6c0 6.2-.1 6.6-2.2 6.6-1.3 0-3 .5-3.8 1-1 .7-.3.8 2.5.5l4-.5-3.9 1c-4.8 1.3-6.3 2.5-2.1 1.7 2.8-.5 2.9-.4 1 1s-1.8 1.5 1.3 1.1c5.5-.8 3.5.9-2.5 2l-5.8 1.1 5-.4c4.3-.4 4.7-.3 3 .8-3.3 2-3.1 4 .5 3.5 1.6-.3 3-.1 3 .4 0 .4-.6.8-1.2.8-.9 0-.9.3.1.9 1.1.7.9 1-1 1.4-2.3.4-2.3.4.3.6 2.1.1 2.5.5 2.1 2.1-.4 1.3-1.4 2-3.2 2.1l-2.6.2 2.5.4c3.1.6 3.8 1.6 3.2 5.3-.3 2.2-1 3-3.1 3.3-2.5.4-2.5.4.4.5l3 .2v7.5c0 6-.3 7.5-1.5 7.5-1.3 0-1.3.2-.1.9 1.1.7 1 1-.5 1.5-1 .3 1.3.3 5.1 0 8.7-.6 13.3-2 13.9-4.2.2-.9.5-17.4.5-36.6.1-34.2.4-37.6 3.3-37.6.5 0 .6.4.3 1-.4.6.7.8 2.7.5l3.3-.5-3.5 1.4c-4.7 1.9-.9 2 4.5.1 2.1-.8 4.1-1.2 4.3-1 .9.9-1.1 2.5-3.1 2.5-1.2 0-2.9.5-3.7 1-1.1.7-.5.8 2 .4 1.9-.3 4.1-.7 4.8-1 .8-.2 1.1.4.8 2.1-.3 1.4-.1 2.5.4 2.5s1.1 1 1.3 2.2c.3 1.7.5 1.5.6-.9.2-4.5 6.9-12.8 11.2-13.7 1.8-.3 4.2-1.5 5.4-2.6 2.6-2.5 15.8-3.9 17.2-1.8.4.7.9 10.1 1 20.8.4 27.1.6 33.7 1.1 32 1.3-4.2 4.6-7.1 9.7-8.5 2.9-.9 5.8-2.1 6.3-2.8.6-.7.8-4.4.6-8.2-.2-3.9-.4-8.8-.4-11l-.1-4-1.4 3c-.7 1.6-1.4 2.6-1.4 2.1-.1-.5-.8-.3-1.7.4-1.2 1.1-1.8 1-3.2-.4-1.4-1.4-1.4-1.8-.4-2.5 1.2-.7 1.2-1.2.1-2.9-1.2-1.9-1-2.5 1.5-5.1 1.5-1.6 2.6-3.4 2.2-3.9-.3-.5.6-2 1.9-3.2 2.8-2.6 3.5-6.6 1-5.6-.8.3-1.5.1-1.5-.4 0-.6.6-1 1.4-1 1.5 0 2.6-2.1 2.6-5.1 0-1.5-.7-1.9-3.3-1.9-1.9 0-3.6.2-3.9.5zm.4 16c-.2 1.4-.8 2.8-1.3 3.1-.5.3-.6-.2-.3-1 .4-.9.1-1.6-.6-1.6-1 0-1-.3 0-1.5 1.9-2.2 2.8-1.8 2.2 1zm-175.9 31c.1.6-1 1.1-2.6 1.1l-2.7.1 2.7-.4c2.1-.4 2.3-.7 1.2-1.5-1-.7-1-.9-.1-.6.8.2 1.4.8 1.5 1.3zm-74.2 18.1c-.7 2.4-1 2.6-1.6 1.1-.4-1-.2-2.4.5-3.2 1.8-2.1 2.1-1.4 1.1 2.1zm78.6 28.6c-.3.7-.5.2-.5-1.2s.2-1.9.5-1.3c.2.7.2 1.9 0 2.5zM509 465.9c0 3.3.5 4.3 3 6.1 2.2 1.6 3 2.9 3 5.2 0 3 0 3-2.5 1.4-1.3-.9-2.6-1.6-2.8-1.6-.2 0-.4 2-.5 4.5 0 4.5 1.4 6.8 2.8 4.5 1.1-1.8 2.3 6.3 1.5 10-.5 2.1-1.1 3-2.1 2.6-2.2-.8-1.7.2.7 1.5 1.5.8 1.9.8 1.5 0-.4-.6-.3-1.1.2-1.1s1.2.9 1.5 2c.3 1.1 0 2-.5 2-.6 0-.4.7.3 1.7 1.3 1.5 1.1 1.5-1.8-.1-1.8-.9-3.3-1.4-3.3-1.2 0 .3 1.3 1.2 3 2.1 1.6.8 2.9 1.9 2.9 2.3-.3 1.9.3 2 2.1.5 1.7-1.5 2-2.8 1.8-10.3l-.2-8.5-.3 8c-.2 4.4-.8 8.4-1.3 8.9-.7.7-1-5.6-.9-17 .1-13.1.4-16.7 1-13.5 1.2 6 2 7.6 1.3 2.5-.7-5.5.7-6.5 6.9-4.7 4.6 1.4 4.7 1.5 4.7 5.3 0 3.2.6 4.3 3 6 3.2 2.3 4.5 7.8 1.5 6.6-.8-.3-2.2-.9-3-1.2-2.5-1-2 6.7.6 9.4 1.5 1.6 2 3.3 1.8 6-.2 2.1.1 4.4.5 5.1.7 1 .4 1.1-1.3.1-1.2-.6-1.9-1.6-1.5-2.3.4-.7.2-.7-.7.1-1.2 1.1-1.1 1.6.6 2.8 1.1.8 2 2.3 2 3.4s.9 2.6 2 3.5c2 1.6 2 1.6-.2.6-2.7-1.4-3.6-1.4-2.8-.1.3.5 0 1-.7 1-.9 0-.9.3.2 1 2 1.3 3.9 1.2 2-.1-1.3-.9-1.3-1 0-.6.8.2 1.6.9 1.6 1.5.1.7.2 1.3.4 1.4.1.2.3 1.1.5 2 .4 2.2-.4 2.2-2.9.3-2.2-1.7-3.6-1.9-3.6-.6 0 .5 1.6 1.9 3.6 3 2.3 1.4 3.4 2.7 3 3.6-.3.8-.1 1.7.4 2 .6.4 1-2.3 1-6.6 0-4 .3-7 .6-6.6.3.3.6 8.5.5 18.1 0 10.7.3 17.6.9 17.6.6 0 .9-13.1.9-34.6-.1-19 .1-34.7.3-34.9.2-.2 2.1 0 4.3.5 2.2.5 4.1.7 4.3.6.2-.2-1.5-1.4-3.7-2.7-6.3-3.7-19.4-11.9-28.4-17.7-4.5-2.8-8.5-5.2-8.9-5.2-.5 0-.8 1.8-.8 3.9zm30.7 44.3c-.1 4.6-.3.9-.3-8.2s.2-12.8.3-8.3c.2 4.6.2 12 0 16.5zM216.7 468.2c-1 1.7-1.6 3.3-1.3 3.5.7.7 3.8-4.5 3.4-5.6-.1-.6-1.1.3-2.1 2.1zM305 467c-2.5.6-2.5.6-.3 1.2 1.3.3 2.6.2 2.9-.4.9-1.4.2-1.6-2.6-.8zM642 467.5c-.7.9-1.1 1.7-.9 2 .3.2 1-.5 1.7-1.5 1.4-2.4 1-2.6-.8-.5zM296.6 469.7c-.3.3-.6 4.2-.6 8.5v7.9l3.8-.7c6.6-1.1 8.2-2.8 8.2-8.4 0-5.4-.6-5.9-5.7-3.9-3.3 1.2-3.9 1-3.5-1.3.3-1.7-1.1-3.2-2.2-2.1zM627.4 472.5c-.9 1.4-1.4 2.8-1.1 3.1.3.3 1.3-.8 2.2-2.5 1.9-3.7 1.2-4.1-1.1-.6zM217.3 473.2c-2.4 2.8-4.1 6.7-2.1 5 1.4-1.1 5.2-7.2 4.5-7.2-.2 0-1.3 1-2.4 2.2zM639.9 477.6c-1.5 3-1.5 3.4 0 3.8.9.3-.4.3-2.9.1l-4.5-.4 4.5 1.2c2.8.9 3.9 1.6 3 1.9-.9.4-1 .7-.2.7 2.3.2 1.2 3.1-1.5 3.8l-2.8.7 2.4.6c1.3.3 2.5 1.4 2.7 2.4.2 1.2-.2 1.6-1.3 1.2-.8-.3-2.4-.6-3.6-.6-1.6 0-1.8-.3-.9-.9 1-.6.4-1-1.8-1.5-4.7-.9-7.1-.7-4.5.4 1.7.7 1.7.9.3.9-4 .2-1.4 1.9 3.7 2.6 3.7.4 6.2 1.4 7.5 2.8 2.2 2.3 2.3 2.7 1.1 4.5-.6 1.1-1.6 1.1-4.7.3-5.3-1.5-9.4-1.4-9.4.2 0 .9 1.1 1.2 3.3.9 5-.6 8.7 1.3 8.7 4.3 0 1.4-.4 2.5-1 2.5-.5 0-.7-.7-.4-1.5.4-.8.2-1.5-.3-1.5s-1 1.5-1.1 3.4c-.2 2.6.2 3.6 1.5 3.9 1 .3 0 .5-2.2.6-2.2 0-5.1-.6-6.3-1.5-2-1.4-2.2-1.4-2.2.1 0 1.9 3.5 3.3 10.6 4.1l5.5.7-.3-21.7c-.1-12-.4-21.9-.7-22-.4-.2-1.3 1.1-2.2 3z"/><path d="m470.6 480-1.8 3.5 2.2-2.1c1.2-1.2 2-2.8 1.8-3.5-.3-.9-1.2 0-2.2 2.1zM630.8 479.7c.7.3 1.6.2 1.9-.1.4-.3-.2-.6-1.3-.5-1.1 0-1.4.3-.6.6zM627.8 484.7c.7.3 1.6.2 1.9-.1.4-.3-.2-.6-1.3-.5-1.1 0-1.4.3-.6.6zM430.8 487.5c-3.2.6-6.6 1.9-7.6 2.8-1 .9-2.2 1.4-2.5 1-.4-.3-.7-.1-.7.5 0 .7-.8 1.2-1.7 1.2-1 0-1.4.3-.8.8.6.4 1.2 1.9 1.3 3.4.3 2.5 0 2.8-2.5 2.9-1.5 0-2.2.3-1.5.6 1.8.7.4 2.3-2.1 2.4-2 .1-2 .2.3.9l2.5.7-2.5.6c-1.4.4-3.4.8-4.5 1.1-1.1.3.9.3 4.5.1l6.5-.4-6 1.4-6 1.4 6-.4c7-.5 6.3 0-2.6 2l-6.4 1.5 5.9-.6c3.3-.3 6.5-.8 7.3-1.1.7-.3 1.3 0 1.3.6s-1.2 1.1-2.7 1.2l-2.8.1 2.5.8c2.4.7 2.4.7-1 1.8-2.2.6-2.7 1.1-1.5 1.1 1.7.1 1.7.3.5 1.1-1.1.7-.8 1 1.6 1 3.6 0 3.4-.9 3.6 15.3.2 10.3-.1 13-1.2 13.7-1.2.8-.9 1 1 .9 5.4 0 17.3-2.7 18.1-4 .5-.8.8-3.4.7-5.9-.3-4.1-.5-4.5-3.2-4.8-3.4-.4-11.7 1.9-11 3 .3.4-.2.5-1 .2-1.2-.4-1.6-2-1.6-5.4 0-4.1.5-5.4 3.3-8.3 2.2-2.4 4.5-3.7 7.5-4.2 2.3-.4 4.6-1.4 5.1-2.3.8-1.5.7-29-.1-29.6-.1-.2-2.9.2-6 .9zM418.7 503c.1 1.1-.4 2-1.2 2-.8 0-1.1-.7-.8-2 .3-1.1.8-2 1.2-2 .4 0 .7.9.8 2zM634.8 487.7c.7.3 1.6.2 1.9-.1.4-.3-.2-.6-1.3-.5-1.1 0-1.4.3-.6.6zM551.6 490.5c-.8 3 .6 6 3.4 7.5 1.2.6 2 2.1 2 3.6 0 2.1-.3 2.3-1.9 1.4-2.9-1.5-3.1-1.3-3.1 2.8 0 2.6.6 4.1 2 5 1.5.9 2 2.3 2 6 0 2.6.5 5.3 1.2 6 .7.7.8 1.2.2 1.2-.5 0-1 1.1-1 2.5s.3 2.5.7 2.5c.4 0 .7.9.6 1.9 0 1.1-.5 1.7-.9 1.5-.5-.3-.6-.9-.3-1.4.3-.4-.1-1-.7-1.3-1.3-.4-3.7 2-3.8 3.8 0 .5.5.3 1-.5.8-1.3 1-1.3 1 .1 0 .9 1 2.1 2.3 2.8 1.7.9 1.7 1 .2.5-1.1-.3-2.6-.8-3.2-1.1-.7-.3-1.3 0-1.3.6s1.1 1.6 2.5 2.1 2.5 1.4 2.5 2c0 .5.5 1 1 1 .6 0 1-.6.9-1.3-.3-2.7.1-9 .7-8.5.9.9 1.1 12.7.3 16.7-.4 2.1-.7 2.7-.8 1.4-.1-1.5-.6-2.1-1.5-1.7-.8.3-1.7.1-2.1-.5-.3-.6-1.3-1.1-2.1-1.1-1.1 0-1.4 1.5-1.4 6.1 0 5.6.2 6.1 1.9 5.6 1.7-.4 1.8-.2 1 2s-.5 2.6 2.6 3.9c1.9.7 3.7 1.4 4 1.4.3 0 .5-15.1.5-33.6 0-31.5.1-33.5 1.8-33.1.9.3 2.9.8 4.5 1.1 2.3.5 2.7 1.1 2.7 4 0 2.5.7 4 2.6 5.5 3.1 2.4 2.7 5.6-.6 4.6-2-.6-2-.3-1.5 9.7.3 5.7.5 10.9.5 11.5 0 .7.5 1.3 1.1 1.3.5 0 .7-.4.4-1-.3-.6.1-.7 1-.3 1.2.4 1.3.8.5 1.3s-.8.9.3 1.3c.9.3 1.2 1.5.9 3.6-.5 3.3 1.3 4.4 2.1 1.3.3-.9.5 3.9.5 10.8s-.2 11.7-.5 10.7c-.2-.9-1.3-1.7-2.3-1.7-1 0-2.2-.6-2.7-1.2-1.4-2.4-2.2 5.4-.8 8.2 1.2 2.3 5.2 5 7.3 5 .4 0 .6-13.8.5-30.8-.1-16.9.1-31.5.4-32.5.3-1.3 1.1-1.6 2.6-1.2 1.2.4 3.1.9 4.2 1.2 2 .5-19.4-13.4-31.6-20.6l-3.7-2.2-.6 2.6zm8.1 14.7c-.2 1.3-.4.3-.4-2.2s.2-3.5.4-2.3c.2 1.3.2 3.3 0 4.5zm0 19c-.2 2.9-.3.8-.3-4.7s.1-7.9.3-5.3c.2 2.6.2 7.1 0 10zm19 13c-.2 1.8-.4.6-.4-2.7 0-3.3.2-4.8.4-3.3s.2 4.2 0 6zM411.8 496.7c.6.2 1.8.2 2.5 0 .6-.3.1-.5-1.3-.5-1.4 0-1.9.2-1.2.5zM227.6 501.9c-.3.4.6.6 1.9.3 1.4-.2 2.5-.6 2.5-.8 0-.8-3.9-.4-4.4.5z"/><path d="M406 502c-2 .6-2.1.8-.5.8 1.1 0 3.1-.4 4.5-.8 2-.6 2.1-.8.5-.8-1.1 0-3.1.4-4.5.8zM694.2 503.5c0 1.6.2 2.2.5 1.2.2-.9.2-2.3 0-3-.3-.6-.5.1-.5 1.8zM405.8 504.7c.6.2 1.8.2 2.5 0 .6-.3.1-.5-1.3-.5-1.4 0-1.9.2-1.2.5zM627.5 509.1c-.4.6-.5 1.2-.2 1.5.2.3.7-.2 1-1.1.7-1.7.1-2-.8-.4zM373.3 511.7c.9.2 2.5.2 3.5 0 .9-.3.1-.5-1.8-.5-1.9 0-2.7.2-1.7.5zM589.7 512.6c-.8.8.2 28.2 1 30.4.4.8.6 1.8.5 2.2-.1.4.4.5 1.1.2.8-.3 1.4.2 1.4 1s-.6 1.2-1.3.9c-1.4-.5-1.3 2.5.2 3.5 1.7 1.2 1.6 3.5-.1 2.8-.9-.3-1.4-.2-1 .3.3.5-.1 1.2-.7 1.5-.9.4-.6 1 1 2.2 1.8 1.4 2.2 2.6 2.2 7.1 0 5-.2 5.5-2 5-2.1-.5-2.5.6-2 6.3.1 2.3 3.9 6.4 4.9 5.4.2-.2 1 .1 1.8.7 1.1 1 1.3-4.2 1.3-30.6v-31.8l3.5.6c1.9.3 3.5.4 3.5.2 0-.3-13.9-8.5-14.4-8.5-.2 0-.6.3-.9.6zm6 29.1c-.1 4.3-.3 1-.3-7.2 0-8.3.2-11.8.3-7.8.2 4 .2 10.7 0 15zm.6 21.4c-.1 7.2-.4 13.3-.7 13.7-.3.3-.6-5.3-.6-12.5 0-10.7.4-14.3 1.4-14.3.1 0 .1 5.9-.1 13.1zM594 556c0 .5-.2 1-.4 1-.3 0-.8-.5-1.1-1-.3-.6-.1-1 .4-1 .6 0 1.1.4 1.1 1zM409.3 513.7c.9.2 2.3.2 3 0 .6-.3-.1-.5-1.8-.5-1.6 0-2.2.2-1.2.5zM511 515c1.4 1 3.3 2.6 4.3 3.4 1.6 1.5 1.7 1.3 1.6-2.2-.1-2-.3-2.9-.6-2-.4 1.6-.7 1.6-4.1.3l-3.7-1.5 2.5 2z"/><path d="M519.2 524c-.1 5.8-.7 11.2-1.2 12-.7 1.1-1 .1-1-3.6 0-4.7-.2-5.1-3.4-6.7l-3.5-1.6-.6 3c-.4 1.7-.2 3.6.4 4.3.6.7.9 2.2.5 3.2-.5 1.8-.5 1.8.6.1.6-.9 1.5-1.7 2-1.7 1.7 0 1.1 1.9-1 3.7-1.1 1-2 2.3-2 3.1 0 1.3 8.7 5.8 9.6 4.9.3-.2.3-7.3.1-15.8-.2-12.4-.3-13.4-.5-4.9zM348 517c-.8.5-1 1-.5 1 .6 0 1.7-.5 2.5-1s1.1-1 .5-1c-.5 0-1.7.5-2.5 1zM617 516.9c1.5 1 12.1 3 28 5.1 10.3 1.4 17.6 3.2 22.1 5.5 1.9 1 9.7 6.1 17.4 11.5 12.8 8.9 46.3 31.6 49.3 33.4.6.4 1.2.5 1.2.2 0-.5-3.4-3-23.4-16.7-47.7-32.6-48-32.8-64.6-34.9-9.7-1.2-24.5-3.5-29-4.6-1.9-.4-2.2-.3-1 .5zM694.2 519.5c0 1.6.2 2.2.5 1.2.2-.9.2-2.3 0-3-.3-.6-.5.1-.5 1.8zM407.8 520.7c.7.3 1.6.2 1.9-.1.4-.3-.2-.6-1.3-.5-1.1 0-1.4.3-.6.6zM552 521.9c0 1 3 2.4 3.7 1.7.3-.2-.5-.9-1.6-1.6-1.2-.6-2.1-.7-2.1-.1zM533.4 523.4c1.1.9 2.4 1.6 3 1.6 1.2 0 .7-.5-2.4-1.9-2.4-1.1-2.4-1.1-.6.3zM606.1 537.7c0 8.6.5 16.7 1 18 .4 1.2.5 2.4.1 2.7-.5.3-.9 6.8-1 14.5-.2 13-.1 14.1 1.7 15.1 1.1.5 2.4 1 3 1 .7 0 1.2-5.6 1.4-15.3l.3-15.2.2 15.7c.1 8.7.6 15.8 1 15.8.5 0 .8-12.3.6-27.3-.1-14.9.1-28.2.5-29.4l.6-2.3 3.3 2 3.2 2 .2 11.7c.1 14.4.3 17.2 1.1 17.9.4.4.1 1.6-.5 2.7-.9 1.7-.8 1.9.8 1.3 1-.4 1.5-.4 1.2 0-.4.4-.3 1.5.3 2.6.9 1.7.8 1.9-.9 1.4-1.6-.5-2-.2-2 2.1 0 1.6.4 3.6.9 4.5.6 1.2.6 1.8-.1 1.8-.6 0-1 2.7-1 6.4 0 5.7.3 6.5 2.6 8.1 1.4.9 3.1 1.5 3.7 1.2.9-.3 1.2-7.1 1.1-24.8-.1-28.5.2-32.9 2.3-32.9 1.9 0-1.4-3.4-6.9-7-2.1-1.4-3.8-2.8-3.8-3.3 0-.4-.7-.7-1.5-.7s-3.9-1.4-6.8-3c-3-1.7-5.7-3-6.1-3-.4 0-.6 7.1-.5 15.7zm6.6 13.5c-.1 4-.3.8-.3-7.2s.2-11.2.3-7.3c.2 4 .2 10.6 0 14.5zm15-5c-.3.8-.6.5-.6-.6-.1-1.1.2-1.7.5-1.3.3.3.4 1.2.1 1.9zm0 15.5c-.2 2.7-.3.5-.3-4.7s.1-7.4.3-4.8c.2 2.7.2 6.9 0 9.5zm-17.7-7.1c0 1.4-.4 2.3-.9 2-.7-.5-.8-2.3-.2-4.4.4-1.2 1.1.3 1.1 2.4zm17.7 30.6c-.2 3.5-.3.9-.3-5.7 0-6.6.1-9.4.3-6.3.2 3.2.2 8.6 0 12zM227.1 528.7c-2.2 3.2-4.1 6.4-4.1 7.1 0 1.8 6.9-6.5 8.1-9.7 1.7-4.3.2-3.3-4 2.6zM677.7 524.7c-1.1 1-.8 5.1.4 5.9 1.8 1 3.2-1.3 2.5-4-.6-2.6-1.6-3.2-2.9-1.9zM462.5 528.7c-1.6.9-3.3 2-3.6 2.6-.4.5-1.1.7-1.7.3-.9-.5-2.5 8.4-1.7 9.3.8.7 15.7-1.8 17.1-3 1-.8 1.4-2.7 1.2-5.8l-.3-4.6-4-.2c-2.2-.2-5.3.4-7 1.4zM694 531.7c0 2.9-.3 3.4-1.2 2.5-1.9-1.9-3.8-1.4-3.8 1.1 0 3.8 3.9 6.6 4.1 2.9.1-.9.5-.4.9 1.3.6 2.3.8 1.2.9-4.3 0-3.9-.1-7.2-.4-7.2-.3 0-.5 1.7-.5 3.7zM218.5 533.8c.2.3-.1 1.4-.7 2.6-1.1 2.1-1.1 2.1 1.1.2 2.5-2.2 2.7-3.3.6-3.3-.8 0-1.3.2-1 .5zM531.4 538.7c.3 2.1.6 5.9.6 8.4 0 4.2.3 4.7 3.5 6.2l3.5 1.7v-9.1c0-5.7-.4-8.8-1-8.4-.5.3-2-.1-3.2-.9-3.4-2.4-4.1-2-3.4 2.1zM376.3 538.7c.9.2 2.3.2 3 0 .6-.3-.1-.5-1.8-.5-1.6 0-2.2.2-1.2.5zM636.8 541.2c-.3.7-.3 2.8-.1 4.5.5 3.2.6 3.3 5.8 3.3 3.9 0 5.4-.4 5.9-1.6 1.2-3.3.5-4.3-3.6-5.4-2.4-.6-5-1.3-5.9-1.6-.9-.2-1.9.1-2.1.8zM572.4 543.9c.4.6.1 1.1-.6 1.1s0 1.2 1.6 2.6c1.5 1.4 3.1 2.2 3.5 1.9.3-.4-.5-1.5-1.9-2.6l-2.5-2 2.5.7c2.9.7 2.6.2-.9-1.6-1.5-.8-2.1-.8-1.7-.1zM509.5 544.9c.8.8 27.5 13.7 49 23.6 12.5 5.8 20.4 9.4 31.9 14.9 6.5 3.1 11.9 5.6 12.1 5.6.2 0 7.2 3.3 15.7 7.3 14.6 7 24.3 10.6 25.4 9.5.2-.3-1.6-1.1-4.2-1.7-2.6-.7-8.8-3.2-13.8-5.6-5-2.4-15.4-7.2-23.1-10.8-7.7-3.6-18.5-8.6-24-11.2-70.2-33.3-71-33.6-69-31.6z"/><path d="M664 547c0 1.2-.7 3.5-1.6 5.3-1.1 2.1-1.2 2.8-.3 1.9 2-1.8 3.2-1.5 2.6.9-.4 1.7-.3 1.8.9.8 1.1-.9 1.2-1.5.3-2.6-1.4-1.6-.6-2.6 2.1-2.8 1.1-.1 2 .4 2 1.2 0 .7-.5 1.3-1.1 1.3-.5 0-.8.4-.4 1 .9 1.4 8.7.3 9.7-1.5.6-1 2.4-1.5 5.8-1.5h4.8l.2 14.2c.2 17.6.2 16.8 1.1 16.3.4-.3 1 .2 1.3 1.1.4 1.2.2 1.5-.9 1-.9-.3-1.5 0-1.5.9 0 .8.6 1.5 1.3 1.5.8 0 .7.4-.3 1-.8.5-1.1 1-.6 1 .5 0 1.8-.7 2.8-1.7 1.7-1.5 1.8-1.4 1.7 3.3-.1 2.7-.4 4-.6 2.9-.5-1.9-2-3.5-3.5-3.5-.5 0-.8 4.7-.8 10.4v10.4l3.1 1.1c1.8.6 3.3 1.1 3.5 1.1.2 0 .3-8 .2-17.8-.2-32.8 0-36 2-36.4 1.2-.3-.5-1.9-5.5-5.1-3.9-2.6-8-5-9-5.2-1-.2-3.8-.8-6.3-1.4-2.5-.6-6.4-1.1-8.7-1.1-3.7 0-4.3.3-4.3 2zm29.7 30.2c-.3.8-.6.5-.6-.6-.1-1.1.2-1.7.5-1.3.3.3.4 1.2.1 1.9zm.3 4c0 1.8-.2 2-.9.8-.6-.8-.7-1.8-.5-2.2.9-1.4 1.4-.9 1.4 1.4zm-.3 16c-.3.8-.6.5-.6-.6-.1-1.1.2-1.7.5-1.3.3.3.4 1.2.1 1.9zm0 4c-.3.8-.6.5-.6-.6-.1-1.1.2-1.7.5-1.3.3.3.4 1.2.1 1.9zM457 557.6c-7.4 1.3-16.6 2.8-20.5 3.4-10.2 1.6-18 3-26.5 4.6-4.1.8-13.3 2.3-20.5 3.4-7.1 1.1-15.5 2.4-18.5 2.9s-8.6 1.5-12.5 2.1c-3.8.6-9.2 1.6-12 2.1-2.7.5-10.8 1.9-18 3-18.2 3-22.1 3.7-29.5 4.9-3.6.6-8.7 1.4-11.3 1.7-5 .6-4.8 2.2.3 2.3 2 0 2.2.2 1 1-1.1.8-.8.9 1.2.4 2.2-.5 2.7-.2 2.8 1.3.1 1.3.9 54.8 1 62.9 0 1.3 11.9.7 13.4-.7.5-.5.9-15.3.8-34.8-.1-21.9.2-34.2.8-34.6.6-.3 1.3.1 1.6.9.3.9 1.2 1.6 2 1.6s1.4.4 1.4 1c0 .5 1 1 2.3 1.1 2.1 0 2.1.1.2 1-1.6.7-1.4.8 1.2.5 1.8-.3 3.6 0 4.1.7.7.8 1 12.2.9 31-.1 19.2.2 29.7.8 29.8 3.1.3 10.1-.4 12.2-1.2l2.3-.9v-34.5c-.1-19 .2-35 .5-35.5.8-1.3 14.5-1.3 14.6 0 .1.5.3 1.4.4 2 .1.5.3 4.3.4 8.2.1 4.4.5 6.8 1 6 .7-1.1.9-1.1 1.4.2.4.9-.1 1.9-1 2.5-1.4.7-1.7 2.9-1.8 12.7 0 6.6.2 13.2.6 14.9l.7 3 .2-3.5c.3-3.1.3-3.2.7-.8.5 3.4 1.5 3.5 3.6.5 1.4-1.9 1.6-2 1.6-.4.1 1.1 1.3 2.2 3.1 2.9 2 .7 2.8 1.4 2.2 2.2-1 1.4-1 4.7.1 6.3.6.9.2 1.3-1.3 1.3-1.6 0-2-.5-1.8-2.2.2-1.2-.3-2.3-1.2-2.5-1.3-.4-1.3-.3 0 .6 1 .7 1.1 1.1.3 1.1-1.9 0-1.6 2.1.5 3.6 1.6 1.3 1.6 1.3 0 1.4-1 0-1.8.5-1.8 1.2 0 .6-.3.8-.7.4-.7-.6-.9-2.1-1.2-8.9-.1-1.7-.7-2.7-1.6-2.7-1.2 0-1.5 1.3-1.5 6.1 0 3.7-.4 5.8-1 5.4-.8-.5-1.3 2.2-.9 5.1 0 .4-.5 1.1-1.3 1.5-1.6 1 10.5 1 14.2 0 2.5-.7 2.5-.9 2.5-11.1.1-5.8-.2-11.4-.6-12.5-.6-1.5-.8-1.6-.8-.4-.1 1.9-3.3 3-5.2 1.8-1.7-1-.6-2.1 3.4-3.5l3.2-1.1.2-10.9c.3-12.9-.3-17-2.1-15.5-.7.6-1.6.8-1.9.4-.4-.3-.7-.1-.7.6 0 .9-.3.9-1.3-.1-.8-.8-1.2-2.7-.9-5 .4-3.3.7-3.7 3.6-4 3.1-.3 3.1-.4 3.2-6.1.1-3.2.4-6.1.8-6.4.3-.3 3.8 0 7.8.7 3.9.8 6.6 1.6 6 1.8-1.1.3-.4 1.1 5.3 6.2 2.5 2.3 2.7 2.3 2.1.4-.8-2.5 4.5-8.8 8.7-10.3 1.5-.6 2.7-1.7 2.7-2.5 0-1 1.8-1.6 6.5-2.1 3.5-.4 7.1-.5 7.9-.2 2 .8 2.6 11.8 2.3 44.5-.2 22.9-.4 27.4-1.7 28.3-1.1.7 1.3.8 8 .4 5.2-.4 10.1-1.1 10.8-1.7 1.7-1.4 1.6-6.8-.2-6.8-.7 0-2.9-.7-4.7-1.6l-3.4-1.5 3 .5c1.7.2 3.8.8 4.8 1.1 1.5.6 1.7 0 1.7-4.8v-5.5l-3.2.8c-1.8.4-4.9 1.1-6.8 1.4-3.5.6-3.5.5-3.7-3.2-.2-2 .1-4.2.5-4.8.4-.6 3.4-1.5 6.7-2l6-.9.3-11.3c.2-9.4 0-11.2-1.2-11.2-1 0-1.3.6-.9 1.6.5 1.2-.1 1.5-2.8 1.2-3.4-.3-3.4-.3-3.7-6.1-.2-4.8.2-6.3 2.3-9.5l2.5-3.7-2.9-.3c-2.3-.3-2.8-.7-2.4-2.3.6-2.2 4.2-3.4 7.4-2.4 1.6.5 2.1.4 1.7-.6-.3-.8-.2-2.4.3-3.6.7-2 1.3-2.2 6.1-1.7 2.9.3 6.7 1.1 8.3 1.7l3 1.2-3 .6c-3 .7-3 .7-.3.8 3.7.1 3.8.8 4.1 38.6l.3 32 3.2.3c3 .3 3.1.2 2.4-2-1.2-3.3-1.4-12-.3-13.8.8-1.2 1.2-1 2 1 .9 2.4 1 2.4 1 .3.1-1.8.8-2.2 4.3-2.5 2.5-.2 4.3-.9 4.6-1.7.3-1 0-1.2-1.1-.8-.9.3-4.2.9-7.5 1.3l-5.9.6.7-5.1c.3-2.8.9-5.3 1.2-5.7.4-.3 3.4-.8 6.7-1.1l6-.6v-8.9c0-4.9.3-9.2.5-9.7.3-.5-1.7-1.1-4.4-1.5-4.7-.6-5-.8-5-3.6 0-3.2 1.1-3.8 2.9-1.6 1.6 1.9 4.9 2.6 5.4 1.2.8-2.4.5-19.6-.4-19.6-.5 0-.9 1.5-.9 3.4s-.7 3.9-1.6 4.7c-1.5 1.2-1.6 1-.8-2.1.4-1.9.8-4.6.9-6 .1-1.5.9-2.6 1.8-2.8 2.4-.5 2.3-5.2 0-5.1-1 0-7.9 1.2-15.3 2.5zm15 16.4c0 .5-.5 1-1.1 1-.5 0-.7-.5-.4-1 .3-.6.8-1 1.1-1 .2 0 .4.4.4 1zm-47.8 4.9c-.8.4-1.3 1.1-1.3 1.5.5 3.4-.1 7.6-.9 7.1-.6-.4-.8-2.2-.4-4.3.8-4.5 1.2-5.2 2.7-5.2.8 0 .8.3-.1.9zm3.8 6.4c0 1.8-.5 2.7-1.2 2.5-1-.4-1.3-2.5-.9-7.1.2-2.3 2.1 1.7 2.1 4.6zm-68.1 7.1c-.9.8-1 .7-.5-.7.3-1 .7-2.4.7-3 .1-.7.3-.4.6.7.3 1-.1 2.3-.8 3zm-4.2-.2c-.3.8-.6.5-.6-.6-.1-1.1.2-1.7.5-1.3.3.3.4 1.2.1 1.9zm4.4 5.5c-.8 1.5-1 1.5-1.1.2 0-1.7 1-3.2 1.8-2.5.2.3-.1 1.3-.7 2.3zm-26.5 2c-1.1 1.1-1.9-.6-1.1-2.4.8-1.7.8-1.7 1.2 0 .3 1 .2 2.1-.1 2.4zm31.2.8c-.3.3-.9-.2-1.2-1.2-.6-1.4-.5-1.5.5-.6.7.7 1 1.5.7 1.8zm93.9 21.7c-.3.8-.6.5-.6-.6-.1-1.1.2-1.7.5-1.3.3.3.4 1.2.1 1.9zM638.8 556.2c1 1.3.9 1.8-.3 2.8-2.1 1.8-1.7 9 .4 9 1.4 0 1.4.1.1 1-1.7 1.1-.1 1.3 2.5.4 1.3-.5 1.4-.8.3-1.5-.9-.6-.7-.9 1-.9 3.4 0 2.6 2.7-1 3.5-1.8.4-2.7.9-2 1.2.6.2 1 .9.6 1.4-.3.5.1.9.8.9.9 0 .9.3-.2 1-1.2.8-1.2 1 .5 1.1h2l-2 .9c-1.7.6-1.4.9 1.8 1.5 2 .4 3.7 1.1 3.7 1.6 0 .4-2 .2-4.4-.5-4.4-1.3-5.6-1.2-5.6.7 0 .5.7.7 1.5.3.8-.3 1.5-.1 1.5.4 0 .6.9 1 2 1 1.3 0 2 .7 2 2 0 1.1-.6 2-1.2 2-.9 0-.8.4.2 1 1.3.8 1.3 1-.2 1-.9 0-2.3-.7-3.2-1.5-1.3-1.3-1.5-1.3-2.1.5-.3 1-.5 4.6-.4 7.9.2 5.8.4 6.1 3.3 7 1.7.6 4.2 1.1 5.6 1.3l2.5.3v-20.2c0-19 .1-20.3 2-21.8 1.1-.8 1.3-1.3.5-1-.9.3-1.9-.4-2.5-1.7-.8-1.7-1.7-2.2-3.8-2-1.5.1-3.7-.3-4.9-.9-2-1.1-2.1-1-1 .3zm5.9 15.4c-.3.3-1.2.4-1.9.1-.8-.3-.5-.6.6-.6 1.1-.1 1.7.2 1.3.5zm-2.4 23.5c-.4.4-.7-.6-.6-2.4.2-4.4.5-4.7 1-1.3.3 1.6.1 3.2-.4 3.7zm-2.6-1.4c-.3 1-.5.4-.5-1.2 0-1.7.2-2.4.5-1.8.2.7.2 2.1 0 3z"/><path d="M676.8 558.2c-.3 2.1-.7 2.3-5.5 2-4.8-.3-5.3-.1-6.7 2.6-1.9 3.7-1.1 7.2 1.8 7.3 2 0 2 .1.1.9-2 .8-1.9.9.1.9 1.2.1 2.7.8 3.4 1.6.7.8 2.4 1.5 3.9 1.6 2.2 0 2 .3-1.4 1.4-2.2.7-3.2 1.3-2.2 1.4.9.1 1.7.6 1.7 1.2s.7.8 1.7.5c1-.4 1.4-.4 1.1 0-.4.3-.1 1.3.7 2.1 2.4 2.4 1.7 3.2-1.7 2.2-4.5-1.2-6.9-1.2-4.6.2 1 .5 1.5 1.6 1.2 2.4-.4.8-.1 1.5.5 1.5s1.1-.7 1.1-1.6c0-2.6 1.7-.6 2.2 2.6.5 3.1.1 3.2-5.7 1.6-.5-.2-1.9 0-3 .4-1.4.5-.4.9 3.3 1.4 4.3.6 5.3 1 5 2.4-.3.9-1 1.6-1.6 1.4-.7-.1-1.2.6-1.2 1.5 0 1-.7 2.7-1.5 3.7-1.2 1.6-1.7 1.7-3 .6-1.2-1-1.5-2.3-1-4.7.3-1.8.2-3.3-.3-3.3-1.3 0-2 4-1.4 7.8.4 3.3 2.7 4.2 10.6 4.2h4.2l-.1-24.5c0-13.4-.4-24.7-.7-25-.4-.4-.8.4-1 1.7zm-8.2 5.4c-.3.9-.6 2-.6 2.5 0 .4-.7.6-1.5.3-1.1-.5-1.2-1.1-.4-2.5 1.2-2.3 3.4-2.6 2.5-.3zm5.7 8.1c-.7.2-2.1.2-3 0-1-.3-.4-.5 1.2-.5 1.7 0 2.4.2 1.8.5zm0 2c-.7.2-1.9.2-2.5 0-.7-.3-.2-.5 1.2-.5s1.9.2 1.3.5zM509.7 560.1c-.7 2.6.1 8.7 1.5 11.6.8 1.7.8 3 0 4.8-1.9 4.1-1.3 4.4.8.5l2-3.5-.3 9.8c-.1 6.5.2 9.7.9 9.7.6 0 1.1 1.9 1 4.5 0 2.5-.5 4.5-1.1 4.5-.5 0-.3.5.5 1 1.1.7 1.1 1 .2 1-.8 0-1 .5-.5 1.2 1.7 2.9 1.2 3.9-1.8 3.3-3.7-.8-3.9 1-.2 2 1.5.3 3.1 1.2 3.5 1.8.4.7.8-1.2.8-4.1 0-2.8.5-5.2 1-5.2.6 0 1 4.3 1 11v11l-3.7-.6c-2.1-.3-4.1-.8-4.5-1.1-.5-.2-.8 1.8-.8 4.6 0 2.7-.3 5.6-.6 6.4-.7 1.9 2.8 4.3 7.6 5.2l3.5.6-.3-35.8c-.1-19.7.1-36.3.5-36.9.5-.7 2.5-.9 5.3-.5l4.5.6.6 5.5c.3 3 1.1 6.8 1.7 8.3 2 4.7 2.3 10.3.7 13.3-1.1 2.2-1.2 3-.2 3.6.8.5.5.8-.8.8-1.8.1-1.7.2.5 1.6 1.4.8 1.7 1.3.8 1-2-.6-2.5 1-.5 1.7.8.4.8.6 0 .6-1.6.1-.4 4.1 1.3 4.1.7 0 1.6.5 2 1.1.4.8-.1.9-1.7.5l-2.4-.7 2.4 1.4c2.7 1.6 4 5.3 1.5 4.3-.8-.3-2-.8-2.7-1.1-.8-.3-1.3.3-1.5 1.8-.1 1.7.6 2.6 3 3.5 2.1.8 2.9 1.6 2.5 2.7-.4.8-.2 1.5.3 1.5.6 0 1-2.7 1-5.9 0-3.3.4-6.2.9-6.5.6-.4 1 5.4 1 13.8.1 8.9-.2 14.7-.9 15.1-.6.4-1-.9-1-3.2 0-3.4-.4-4-3.2-5.1-1.7-.6-3.3-1.1-3.4-.9-.3.3-.7 8.8-.5 11.5.1 2.2 1.6 3.2 7.3 4.6l2.8.6.2-35.7.3-35.8 2.5.3c6.2.7 7 1.1 7 4.2 0 2.3.6 3.3 2.5 4 1.8.7 2.5 1.7 2.5 3.6 0 2.2-.4 2.6-2.4 2.2-2.1-.4-2.4-.1-2.4 2.9 0 1.8.4 3 .9 2.7.5-.3.9.8.9 2.5 0 1.6-.4 3.3-1 3.6-1.7 1-1.1 2.5.7 1.8 1.3-.5 1.5-.2 1 1.1-.4 1-.7 2-.7 2.2 0 .3-.5.2-1-.1-.6-.4-.9.3-.7 1.7.2 1.3 1.2 2.4 2.3 2.6 1.6.3 1.7.1.4-.7-1.9-1.3 0-1.4 2-.1 1.3.9 1.3 1 0 1s-1.3.1 0 1c1.1.8.7.9-1.5.5-2.9-.5-2.9-.5-.5.5 1.8.8 2.1 1.3 1.1 1.9-1.1.7-1.1 1 0 1.5.8.3.1.4-1.6.1l-3-.5 2.5 1.5 2.5 1.6-2.5-.6c-2.3-.5-2.3-.5-.8.8 1 .8 1.5 1.7 1.1 2-.3.4.6 1.1 2.1 1.7 2.9 1.1 3.9 2.8 3.8 6.8 0 4.3-.2 4.8-1.1 3.4-.5-.9-1 0-1.5 2.7-.5 3.5-1 4-2.9 3.8-2-.2-2.2.3-2.5 4.9-.3 4.8-.1 5.2 2.5 6.2 1.5.6 3.9 1.4 5.3 1.7l2.5.6-.3-32.3c-.1-17.8 0-33.2.2-34.3.5-1.7 1.2-2 4.6-1.7 3.4.4 4 .7 4 2.7 0 2.4 2.3 5.5 4.1 5.5.5 0 .9 1.2.9 2.6 0 2.1-.4 2.4-2 1.9-1.8-.6-2-.2-2 3.9 0 2.5.4 4.6 1 4.6s.6.9 0 2.6c-.7 1.6-.7 2.3 0 1.9.6-.4 1 .5 1 2s-.4 2.4-1 2c-.5-.3-1-.1-1 .4 0 .6.6 1.1 1.3 1.1.7 0 .8.3.2.8-1.4 1-1.5 10.2-.1 10.2.6 0 .4.4-.3.9-1.2.8-.9 1.1 1.2 1.6 1.5.4 2.7 1.1 2.7 1.6 0 .6-.8.5-1.9-.1-2.4-1.2-3.1-1.3-3.1-.2 0 .5 1 1.3 2.3 1.9 2 .9 2.2 1.6 1.9 7.2-.3 5.6-.6 6.1-2.3 5.6-1.6-.5-1.9-.1-2 2.2 0 1.5-.2 3.8-.3 5.1-.3 2.6.6 3.5 5.3 5.1 2.7.9 3.6.8 4.2-.1.4-.7.6-1.5.4-1.8-.2-.4-.5-6-.6-12.6-.1-6.5-.4-12.4-.8-12.9-.3-.6-.9 3.3-1.2 8.5l-.5 9.5-.2-11.7c-.1-8.5.1-11.7 1-12 1.3-.5 1.4-1.5 1.7-21l.1-10.7 3.8-.3c3.3-.3.1-1.9-27.3-14.2-17-7.6-34.2-15.4-38.2-17.2-8.4-4-8.9-4.1-9.6-1.3zm8.8 26.9c0 7.1-.4 13.3-.8 13.6-.4.4-.7-5.4-.7-12.9 0-7.6.4-13.7.8-13.7.5 0 .8 5.8.7 13zm21.9 6.9c.3 7.8 0 14.3-.5 14.7-.5.3-.9-5.8-.9-14.7 0-8.4.2-15 .5-14.7.3.3.7 6.9.9 14.7zm38.3 4.3c-.3.8-.6.5-.6-.6-.1-1.1.2-1.7.5-1.3.3.3.4 1.2.1 1.9zm0 19.5c-.2 3.2-.3.8-.3-5.2 0-6.1.1-8.7.3-5.8.2 2.9.2 7.8 0 11zm-41.1-11.4c.3 1.9-.4 2.1-2.6.7-1.1-.7-1.1-1-.2-1 .7 0 1-.5.6-1.1-.4-.7-.1-1 .6-.7.7.2 1.4 1.2 1.6 2.1zm-.6 9.7c1.3.9 1.3 1 0 1-.8 0-2.2-.5-3-1-1.3-.9-1.3-1 0-1 .8 0 2.2.5 3 1zM654 559c-.9.6-1 1-.3 1 .6 0 1.5-.5 1.8-1 .8-1.2.4-1.2-1.5 0zM701.3 570.3c-.1 6.2.2 14 .6 17.2.5 3.3.6 6.4.2 7-.7 1.1-.7 21.2 0 21.9.2.2 1.4.7 2.7 1l2.2.7v-26.5c0-27.5.1-28.1 3.9-25.7 1.2.8 1.5 5.7 1.6 28.1.1 22.5.3 27.3 1.5 28.1 3.7 2.3 3.8 1.5 3.9-23.4v-25.4c.1-.6 1-.9 2.1-.6 1.6.4 2 1.4 2.1 4.7 0 2.2.2 14.1.3 26.4.1 12.2.7 22.6 1.2 23.1s7.9 4.3 16.4 8.5c8.5 4.2 16.3 8.1 17.3 8.6 1.5.9 1.7.4 1.7-5.2.1-13.2 1.3-35.4 2-36.8.5-.9.4-2.4-.2-3.4-.5-.9-8.9-7-18.6-13.3-9.8-6.4-22.7-14.9-28.7-18.9-6.1-4.1-11.3-7.4-11.6-7.4-.3 0-.5 5.1-.6 11.3zm14.4 20.4c-.2 3.2-.3.8-.3-5.2 0-6.1.1-8.7.3-5.8.2 2.9.2 7.8 0 11zm-10 7.5c-.3.8-.6.5-.6-.6-.1-1.1.2-1.7.5-1.3.3.3.4 1.2.1 1.9zm10 14c-.2 2.9-.3.8-.3-4.7s.1-7.9.3-5.3c.2 2.6.2 7.1 0 10zm40.6 16.8c-.3 1.2-.8 1.9-1.1 1.6-.5-.6.5-3.6 1.2-3.6.2 0 .2.9-.1 2zm-.6 9.2c-.2 1.3-.4.3-.4-2.2s.2-3.5.4-2.3c.2 1.3.2 3.3 0 4.5zM269 563.9c0 1.1 3.2 3.1 4.9 3.1 1.7 0 1.3-1.7-.6-2.4-1-.3-2.4-.9-3-1.2-.7-.3-1.3-.1-1.3.5zM220.1 575.6c-1.2 1.4-2 2.8-1.8 3.1.3.2 1.5-1 2.7-2.6 2.6-3.8 2.2-4-.9-.5zM400 574c-1.3.8-1.2 1 .3 1 .9 0 1.7-.5 1.7-1 0-1.2-.1-1.2-2 0zM228 578.3c0 3.4.2 3.5 6.8 2.8.6 0 1.2-1.4 1.2-3.1 0-2.8-.2-3-4-3-3.9 0-4 .1-4 3.3zM254.5 576c-1.8.8-1.7.9.8.9 1.5.1 2.7-.4 2.7-.9 0-1.2-.8-1.2-3.5 0zM739 575.5c0 .5 14.3 10.4 17 11.8.8.5.2-.3-1.5-1.8-3.3-2.8-15.5-10.7-15.5-10zM239.5 579c-.3.5-.2 1 .4 1 .5 0 1.3-.5 1.6-1 .3-.6.2-1-.4-1-.5 0-1.3.4-1.6 1zM436.1 582.9c-.6 1.1-.7 2.2-.2 2.5.5.3 1.1-.4 1.4-1.6.8-3 .1-3.5-1.2-.9z"/><path d="M668.3 581.7c.9.2 2.3.2 3 0 .6-.3-.1-.5-1.8-.5-1.6 0-2.2.2-1.2.5zM664.7 582.7c-.4.3-.7 1.3-.7 2.2.1 1.3.3 1.3 1.1-.2 1.1-1.9.8-3.3-.4-2zM272 588.6c-4.1.7-10.4 1.8-14 2.3-3.6.6-9.4 1.5-13 2.1-3.6.6-8.9 1.4-11.7 1.9-2.9.4-5.5 1-5.8 1.3-.9.8 9.7.1 16.5-1.1 3.6-.7 9.2-1.4 12.6-1.6 3.3-.1 7.6-1 9.4-2 1.8-.9 5.6-1.8 8.4-1.9 2.8 0 5.7-.7 6.4-1.4 1.6-1.5 1.6-1.5-8.8.4zM510 591.9c0 1.8 2.7 3.7 3.8 2.6.3-.2-.3-.8-1.2-1.1-1.2-.5-1.4-.9-.6-1.4.8-.5.7-.9-.4-1.3s-1.6-.1-1.6 1.2zM272.8 591.7c.6.2 1.8.2 2.5 0 .6-.3.1-.5-1.3-.5-1.4 0-1.9.2-1.2.5zM390 593.8c0 .4.5 1.3 1.2 2 .9.9.8 1.2-.7 1.2-1.1 0-1.6.4-1 .8.6.4 1.9 1.7 2.9 3l2 2.3-4.2-.7c-4.1-.6-4.2-.6-4.2 2.3 0 3.3 1.6 5.3 4.3 5.3 1 0 2.1.9 2.4 2 .4 1.5 1.1 1.9 3.2 1.5 2.5-.5 2.5-.5-.2.6-2.2.9-3.5.8-5.5-.2-1.5-.7-3-1.5-3.4-1.7-.5-.2-.8.7-.8 2 0 2.3.3 2.4 8.3 2.3h8.2l.3-9.8.3-9.8-4.9.7c-4.7.6-5 .5-5.6-2-.6-2.3-2.6-3.7-2.6-1.8zM589.4 595.5c-.3 1.3-.3 2.8 0 3.4.3.5.7 12.1.7 25.7.1 21.6.4 25 1.8 26.1 1.4 1.2 1.4 1.2-.1.7-1.6-.5-1.8.1-1.8 5 0 5.3.1 5.6 2.8 6.2 1.5.3 3.3.7 4 1 .7.2 1.2-.6 1.2-1.9 0-1.2.1-15.6.1-32.1l.1-29.8 3 .6c1.7.3 3.4.6 3.9.6s.9 1.2.9 2.8c0 1.6.8 3.2 2 4 2.7 1.7 2.7 4.6-.1 3.7-1.9-.6-2-.3-1.8 9.4.1 5.6.5 10.1.9 10.1s.6 1.4.5 3c-.2 1.9.3 3.4 1.4 4.1 1.4.9 1.3 1-.4.5l-2-.6 2 1.6c2 1.6 2 1.6-.1 1-2.6-.8-2.9 2-.6 4.7 1.4 1.6 1.3 1.9-.7 4.1-1.2 1.3-1.9 3-1.6 3.8.4.9.1 1.9-.5 2.3-.9.6-.9 1 .1 1.6 1.1.7 1 .9-.3.9-1 0-1.8.7-1.8 1.6 0 1.4.3 1.4 1.5.4 1.3-1.1 1.5-.7 1.5 2.5 0 2.4.6 4.2 1.7 5.1 3.1 2.2-2.9 1-17.7-3.4-23.1-6.8-74.4-22.2-77.2-23.2-1.6-.5-2.8-.5-2.8-.1 0 .5.8 1.1 1.8 1.4 4.4 1.2 37.7 11.1 46.2 13.7 5.2 1.5 18.1 5.4 28.5 8.5 10.5 3.2 19.6 6.4 20.4 7.1 1.3 1.2 1.2 1.7-.9 3.9-1.3 1.4-1.8 2.5-1.1 2.5.6 0 2.3-1.2 3.7-2.7 1.9-2 2.3-2.2 1.8-.7-.7 1.8-.7 1.8 1.3.1s2.3-1.7 8.2 0c5.3 1.6 6 2.1 5.5 3.8-.4 1.1-1.1 2.4-1.7 3-.7.7-.8.5-.4-.6s-.3-2.1-2.1-3c-1.5-.7-3.1-1.2-3.5-1-.5.1-.6-.3-.2-.9.9-1.5-.6-1.2-2.6.6-.9.8-2.4 1.6-3.2 1.8-.8.1-2.2.8-3.1 1.5-.8.7-1.9 1-2.5.7-1.1-.7-32.3-9.7-45.6-13.2-4.9-1.2-11.5-3-14.5-3.9-3-.9-10.4-3-16.5-4.6-6-1.7-12.7-3.5-14.9-4.1-3-.9-4-.8-4.7.3-1.4 2.2-1.1 2.9 2.6 5 3.4 2 3.5 2.3 3.5 8 0 4.4-.4 5.9-1.4 5.9-1 0-1.2.7-.7 2.6.4 1.5.5 4.2.3 6.1-.4 2.8-.8 3.4-2.3 3-1.1-.3-1.9-.1-1.9.4s1.4.9 3 .9c1.7 0 3 .5 3 1.1 0 .7-1.1.8-3 .4-2.6-.6-3-.4-3 1.4 0 1.2.5 2.1 1.1 2.1.5 0 .7-.5.4-1-.4-.6.5-1 1.9-1 1.9 0 2.6.5 2.6 2 0 1.1-.6 2-1.2 2-.9 0-.8.4.2 1 1.3.8 1.2 1-.4 1-2 0-2 0 0 1.6 1.8 1.5 1.8 1.5-1.1.9-3.3-.7-2.4 1 1 1.8 1.4.3 1.1.5-1 .6l-3 .2 3 1.4 3 1.4-3.2-.6c-2-.3-3.3-.1-3.3.5s1.2 1.2 2.8 1.4c2.6.3 2.7.6 3 6.1.3 6.3.2 6.4-6.1 7-2.2.3-5 1.5-6.5 2.9-4.1 3.7-9.9 7.8-11.1 7.8-.6 0-1.1.5-1.1 1.1 0 .5.6.7 1.3.4.6-.4.2.2-1 1.3s-1.9 2.2-1.6 2.6c.4.3.1.6-.5.6s-1.4-.5-1.7-1c-.3-.6-.1-1 .4-1 2.2 0 1-1.8-1.9-2.8-2.7-1-3.2-.8-5.9 2.5l-3 3.6-11.8.7-11.8.7 13.6.1c12.7.2 13.8.3 16.4 2.6 2.6 2.3 7.5 3.2 7.5 1.5 0-.5.4-.9 1-.9.5 0 .7.7.3 1.6-.5 1.4-.3 1.5 1.5.5 1.2-.6 2.5-1.9 3-2.7.6-1.2 1.1-1.3 1.6-.5.4.6 0 1.4-.8 1.7-.9.3-1.3 1.1-.9 1.7.3.5.2.7-.4.4-.5-.3-1.6.2-2.5 1.1-.8.9-2.9 2.9-4.6 4.5-5.6 4.8-3.3 7.8 4.1 5.2 4.5-1.5 6.4-.8 5.3 2.1-.4.9-.9 1.4-1.3 1.1-.3-.4-1.4-.2-2.4.3-1.2.7-2 .7-2.4 0-.3-.5-1.2-1-1.8-1-.7 0-.4.5.6 1.1 1.7 1 1.7 1.2.2 2.9-.9 1-1.4 2.3-1.1 2.8.3.6-.2.8-1.4.5-2.5-.7-2.7 1.4-.2 2.1 1.1.4 2.9 1.7 4.1 3 2.5 2.6 5.1 2.5 5.1-.3.1-1.5.2-1.5 1.3 0 .7.9 1.5 1.7 1.9 1.8.4.1 1.5.4 2.4.8 1 .4 2 0 2.6-1 1.1-2.1 3.8-2.2 3.8-.3 0 .8 1.2 1.7 2.6 2 2.2.6 2.4.9 1.3 2.2-.8 1-2.2 1.3-3.8.9-2.5-.5-2.5-.5-.7 1 1.9 1.5 1.9 1.5-.5 4.2-1.3 1.5-2.7 3-3.1 3.3-.4.3-1.1 1.8-1.7 3.3-1.2 3 .2 3.7 1.8.9.6-.9 1-1.3 1-.7 0 1.8-2.6 4.5-4.5 4.6-1.1 0-1.3.3-.6.6.6.2 1.2.9 1.2 1.4 0 .6-.7.6-1.9 0-2.5-1.4-3.2-.5-7 10.4-1.7 5-2.4 8.1-1.6 7.1.8-1.1 1.5-2.4 1.5-2.9 0-1.9 5.5-14.8 5.8-13.8.2.6 2.2 1.1 4.5 1.1 3 0 3.8-.3 2.7-1-1.2-.8-1.2-1.4.4-4.7 1-2.1 2.1-3.3 2.3-2.6.2.7-.1 2.1-.7 3.2-.7 1.4-.7 2.1 0 2.1.5 0 1 1.4 1 3 0 2.7-.2 3-2 2-1.4-.8-2.5-.7-4 .2-1.1.7-2 1.5-2.1 1.8 0 .3-.2 1.7-.4 3.1-.5 3.7-4.8 16.3-5.8 17-.5.3-.8.8-.6 1 .6 1-5.7 12.2-7.4 13-1.7 1-1.7.9-.4-1.8 1.5-2.9 2.9-7.6 3.2-10.4.1-.9 1.4-3.2 2.9-5.1 4-5.3 3.1-5.5-1.4-.3-2.3 2.7-4 5.6-4 7.1 0 3.5-3.7 10.4-5.6 10.4-.8 0-1.3.4-1 .9.3.5-.1 1.2-1 1.5-1.6.6-1.6.7 2.3-5.6 1.2-2 2-4.4 1.7-5.2-.3-.7-.1-1.7.5-2.1.6-.3 1.1-1.6 1.1-2.8v-2.1l-1.6 2.2c-.9 1.3-1.4 3.2-1.1 4.2.3 1.1-1.2 3.9-3.9 7.4-4.7 6-4.8 6-12.6 3.6-2.1-.7-2.6-.6-2.1.6.4 1-.4 1.4-3.2 1.4-2 0-3.4-.4-3.1-.9.4-.5 0-1.2-.6-1.5-.7-.3-.1-.4 1.4-.1 4.4.8 5.8-2.4 5.6-12.5l-.1-8.5-.7 7.5c-.9 9.3-1.6 11-4.5 11-1.3 0-3.1.7-3.9 1.6-1.4 1.4-1.7 1.4-2.2 0-.3-.8-.2-2.1.2-2.8.4-.7-.2-.4-1.4.6-2.7 2.4-3.9 1.4-2.4-1.9 1.7-3.8 1.5-4.1-.9-1.1-1.1 1.4-1.8 3-1.4 3.5.3.5 0 1.3-.6 1.7-.8.4-.9.3-.5-.5.4-.6 0-1.4-.9-1.7-.9-.4-1.4-1.3-1.1-2 .6-1.6-1-1.9-1.9-.4-.3.5-1 1-1.4 1-1 0-2.4-3.8-2.2-5.7.1-.6-.4-1.5-1-1.9-.9-.5-1-.2-.6 1 .5 1.4.3 1.7-.8 1.2-1-.4-1.4.1-1.2 1.7.1 1.7-.3 2.2-1.8 2-2-.2-3.7 1.5-2.9 2.9.3.4 1.5.8 2.7.8 1.4 0 1.8.3 1.1 1s-1.9.6-3.7-.2c-2.7-1.3-4.5-3.8-2.7-3.8.6 0 1-.5 1-1 0-.6-.9-1-2-1-1.4 0-1.8.5-1.3 1.7.3 1-.6.3-2-1.5-1.5-2-2.3-4.1-2-5.2.3-1.1.1-2-.4-2-1.3 0-3.7 7.5-2.9 8.8 1.2 2-2.2 3.5-5.5 2.3-1.8-.6-5.7-1.1-8.8-1.1-7.8 0-8.5-.7-8.4-7.5.1-4.8 0-5.4-1.1-3.9-1.2 1.6-1.3 1.5-2.1-.7-.6-2-.9-1.6-1.4 2.5-.4 2.8-1.3 5.2-1.9 5.4-.7.2-1.7 1.2-2.3 2.3-.8 1.6-.5 2.1 1.7 2.9 2.2.9 2.5 1.3 1.5 2.3-1 .9-1.5.8-2.5-.5-1-1.4-1.5-1.5-2.6-.5-1 .9-1.1.9-.6-.1.5-.8-.1-1.2-2.1-1.2-3.8 0-5.4-1.6-4.3-4.5.4-1.2.5-2.8 0-3.5-.5-.9-1.1.4-1.6 3.6-.6 4.7-1.7 6.4-3.9 6.4-.5 0-.3-.5.5-1 1.3-.8 1.3-1-.2-1-.9 0-2.4-.3-3.4-.7-1.4-.5-1.6-.3-1.1 1.1.4 1 .3 1.5-.4 1.1-.5-.4-1.6-.2-2.4.5-1.5 1.3-1.6-.4-.1-2.8.7-1.1.4-1.2-1-.4-2.1 1.1-10.1.1-15.3-1.8-2.6-1-3.6-1-3.9-.2-.4 1.3-4.1 1.6-5.9.4-.8-.5-1.2-5.4-1.2-16.7-.1-19.5-.1-19.4 1.5-18.8.7.3 2.3-.2 3.6-1.1l2.2-1.6h-2.1c-1.2 0-3.4.5-4.9 1-2.8 1.1-4.8.5-2.7-.8 1.4-.9 3.4-8.8 2.5-9.7-1.3-1.3.1-8.1 2.1-10.4l2.2-2.4-2.5.6-2.5.6.3-7.1c.3-5 0-7.3-.9-7.9-1.6-.9-33.1 0-34.2 1.1-.5.4-.8 16.3-.7 35.3l.1 34.5-2.6 3c-2.3 2.7-2.9 3-5.2 2.1-2.3-.8-13.3-.5-20.5.7-1.5.2-4.7-.3-7-1.1-2.4-.8-5.6-1.5-7.3-1.5-1.6 0-4.6-.3-6.6-.6l-3.6-.6-.1-12.1c-.2-11 0-12.1 1.8-13.4 1.1-.8 2-2 2-2.8 0-2 5.3-2.7 17.9-2.3 8.6.2 11.4.6 12.1 1.8.7 1 1-.5 1.1-5 0-3.6.3-13.6.5-22.3.4-12.5.3-15.7-.8-15.8-5.7-.6-42.5.5-43.5 1.3-.9.7-1.3 4.6-1.3 12.8 0 12.9 0 12.9-7 13-1.5 0-3.1.5-3.7 1.1-1.8 1.8-6.2.2-7.5-2.6-.9-2.1-.8-2.9.9-4.8 3.3-3.6 3.7-4.9 1.7-4.5-1.2.2-1.9-.3-1.9-1.4 0-.9-.9-2.4-2-3.2-2-1.5-2-1.5.3-1.6 1.8 0 2.2-.6 2.2-3.4 0-2.1-.6-3.6-1.5-4-.8-.3-1.5-.1-1.5.3 0 .5-.7 1.2-1.6 1.5-1.4.5-1.5.4-.4-.9 1-1.2 1-1.5-.4-1.5-.9 0-1.6.8-1.6 1.7 0 1-.2 7.6-.5 14.6-.4 12.4-.4 12.8 1.7 13.6l2.2.8-2.2.5c-1.3.4-1.9 1.2-1.7 2.4.2 1.1.4 3.3.4 5.1.1 2.6.4 3 2.1 2.6 1-.3 1.8-.9 1.7-1.3-.4-1.4 11.5-14 13.2-14 2.4 0 4.1 1.9 3.4 3.8-.4 1-.2 1.3.5.8 1.2-.7 3.2 2.3 3.2 4.8 0 1-.9 1.6-2.2 1.6-1.8 0-2 .2-.9.9.8.5 3.7.7 6.3.4l4.8-.6.2 5.4c.3 7.6-.1 21-.7 23.6-.5 2-1.2 2.3-5.1 2.3-3.4 0-5 .5-6.2 2-1.6 2-2.2 2-9.2 1-4.1-.6-8.8-1.2-10.4-1.4-1.5-.2-3.3-.9-3.9-1.5-1.7-1.7-3.7-1.3-3.7.9 0 1.2.8 2.1 2.3 2.5 5.5 1.2 27.1 2.7 49.2 3.4 13.8.5 25.2 1.3 26.8 2 4.1 1.6 18.6 1.4 21.7-.4 3-1.7 14.7-1.9 20.5-.4 2.2.6 6.2 1.6 8.9 2.3 2.8.7 5.2 1.8 5.4 2.4.2.7 1.7 1.2 3.3 1.2 6.6 0 14.9 6.5 14.9 11.6 0 2.1.6 3.5 1.8 4 2.4 1.1 13.6 2.1 37.2 3.4 11.3.6 23.9 1.6 28 2.2 9 1.3 28.4 1.5 36 .4 6.8-1 12-3.2 12-5.1 0-.8.5-1.5 1-1.5.6 0 1-2 1-4.5s.5-4.5 1-4.5c.6 0 1-.6 1-1.3 0-.6 1.5-2.2 3.3-3.5 3.7-2.5 12.2-3.1 16-1 2.4 1.3 16.8 1.2 17.7-.1.3-.5 7-1.4 14.9-2 15.8-1.3 17-1.8 17.1-7.7 0-3 .3-3.2 4.3-3.7 14.2-1.8 22.3-3.8 24.3-6.1 1.1-1.2 3.2-2.6 4.6-2.9 1.5-.4 3.4-1.4 4.2-2.2.8-.9 3.2-2.2 5.3-3l3.8-1.4h-3.7c-4.3-.1-17.1 2.4-19.8 3.9-1.7.9-1.9.8-1.3-.7.4-1 1.6-3.2 2.8-4.8 1.2-1.7 3.1-4.3 4.1-5.9l1.8-2.9-2.4.8c-1.4.4-2.7 1-3 1.4-.3.3-1.6 1.2-3 2-2 1-1.6.4 1.5-3 2.2-2.4 4.3-4.5 4.8-4.7.4-.2.7-.8.7-1.3 0-1.4-2.6-1-4 .6-.7.8-1.7 1.5-2.2 1.5-1 0 .1-1.5 5.5-7.3 2-2.2 3.7-4.4 3.7-4.8 0-1.5 2.7.2 3.9 2.4.6 1.2 1 1.5 1 .7-.3-3.5.1-4.4 1.2-3.3 1.2 1.2 5.2.5 4.3-.8-.3-.5.1-.9.8-.9 1 0 1-.2-.1-.9-.8-.5-2.1-.7-3-.4-1.3.4-1.3.3-.2-.5.8-.6.9-1.2.3-1.6-.9-.5 4.1-6.6 5.4-6.6.3 0 1.5-.9 2.7-2 1.2-1.2 3.1-1.9 4.2-1.8 3.7.5 2 3.9-8.4 16.1-1.3 1.6-1.3 1.7.1 1.2.9-.4 2.4-1.8 3.3-3.2 2.8-4.2 2.9-1.7.1 3.3-1.4 2.6-2.4 4.9-2.2 5.1.2.3 2.3-2 4.5-5 2.2-3.1 4.5-5.8 5.1-6.2 1.4-.9 1.2 1.5-.4 4.7-1.3 2.5-1.3 2.8.1 2.8 1.4 0 1.4.3-.1 2.5-.9 1.3-1.6 2.6-1.6 2.9 0 .6 3.4.2 4-.5.3-.4 1.6-1 2.9-1.4 1.8-.5 2.2-.4 1.6.6-.6.9-.3 1 1.1.5 1.5-.6 1.7-.5.7.5-2 2-1.5 3.4.5 1.6 3-2.7 3.2-2 1.2 3.7-2.5 7.4-3.8 9.6-5.6 9.6-1.1 0-1.2.4-.4 1.9.5 1.1 1 3.2 1 4.8-.1 2.5-.2 2.6-1.4 1-.7-.9-1.8-1.7-2.5-1.7-.6 0-1.1-.4-1.1-.9 0-1.9-3-3.9-5-3.4-1.5.4-1.8.9-1.1 1.6.6.6 1.1 1.9 1.1 2.9s.5 1.8 1 1.8c.6 0 1 1.8 1 4s.5 4 1 4c.6 0 1 1.3 1 3 0 1.6.5 3 1 3 .6 0 1 .6 1 1.4 0 1 2.3 1.6 8.3 2.2 9.9 1 128.1.7 135.2-.4l5-.7.5-7c.4-6.2.7-7 2.6-7.3 3-.4 3.6-4.4 3.8-22.4 0-8.3.5-15.1 1.1-15.7.6-.5 1.9-1.1 3-1.3 1.9-.3 2-1.3 2.5-14.3.3-7.7 1-15.1 1.7-16.5.6-1.4 1.5-3.4 1.8-4.5 1.2-3.3 1.3-12.9.2-15-1.3-2.5-2.9-10.3-2.6-13 .1-1.1.2-9.7.2-19.2 0-18.2-.9-27.6-2.3-25.3-.4.7-.6 2-.2 2.8.4 1.1.1 1.4-1.1.9-.9-.3-1.9-.1-2.3.5-.4.7-.3.8.4.4 2-1.2 1.3.6-1 3.2l-2.3 2.5 2.3-1.2c1.2-.6 2.2-1.6 2.2-2.1 0-.6.5-1 1-1 .6 0 1 .7 1 1.5s-.4 1.5-.9 1.5-1.1.9-1.4 2.1c-.3 1.2-1 1.8-1.5 1.5-.6-.3-1.8-.3-2.8.1-1.6.6-1.5.7.2 2 1.8 1.4 1.8 1.4-.1 1.1-1.6-.2-2 .3-2.1 2.5-.1 3.7-2.7 6.2-6.3 6.2-3.3 0-3.3.1 2.4-7.5 4.7-6.2 6.4-9.1 8.1-13.7 1.1-3 1-3.1-1-2-1.2.7-2.9 1.8-3.8 2.6-2.6 2.1-2.2-.3.6-3.6 2.3-2.8 3.1-8.2 1.3-9.9-.4-.4-.2-1.3.4-2 1.8-2.2.6-5.8-2.6-7.4-8.6-4.2-43.9-21-44.2-21-.4 0 .2 22.3.6 27 .1.8.1 5.5.1 10.5-.1 7.4-.4 9.2-2 10.7-2.3 2.1-3.6 2.3-4.2.5-.4-1.1-.4-35.4 0-44.9.2-2.9.6-3.7 2.4-4 1.4-.2-1.5-2-9-5.5-10.5-4.8-14.6-6.2-8.4-2.9 2.5 1.4 1.5 1.5-11.8 1.1l-14.5-.5 5 1.9c2.8 1.1 6 2 7.1 2 2.6.1 7.6 3.9 6.8 5.2-.3.5-.9.7-1.4.4-.4-.3-1.3.2-2 1s-1.7 1.5-2.2 1.5c-.5 0-2.3 1.2-3.9 2.7-1.6 1.6-3.2 2.8-3.7 2.8-1.9.1-2.9 1.7-2.4 4 .2 1.5 0 2.5-.7 2.5-.6 0-1.1-.5-1.1-1.2s-1.6 1.1-3.6 4-4.3 5.2-5 5.2c-2.1 0-1.7-1.4 1.6-5.5 3.7-4.7 4.2-8 .7-4.7-3.1 2.9-3.8 2.8-3.2-.7.3-1.7.1-3.3-.5-3.6-.5-.3-1-.1-1 .4 0 .6-.4 1.1-.9 1.1-.6 0-.1-1.8 1.1-3.9 1.3-2.6 1.8-4.6 1.3-5.8-.7-1.6-.8-1.5-1.4.7l-.7 2.5-.7-2.5c-.4-1.7.1-3.7 1.8-6.7 3-5 3-5.3.5-5.3-1.1 0-2-.4-2-.9s-1.5-1.6-3.2-2.5l-3.3-1.6 4.5-.1c3.5-.1 2.3-.5-5.5-1.8-6.4-1.1-12.9-3-18-5.3-4.4-2-11.6-5.2-16-7.1-4.4-1.9-11.5-5.1-15.7-7.1l-7.8-3.5-.6 2.4zM597 615c0 9-.4 15-1 15-.9 0-1.3-27.7-.3-29.3 1.1-1.8 1.3.3 1.3 14.3zm15.5 37.8c-.3.3-.6.3-.7.1-.2-.2-.1-10.8.2-23.4l.5-23 .3 22.9c.1 12.6 0 23.1-.3 23.4zm7.9-45.2c.9.3 1.6 1.6 1.6 2.9 0 1.2.7 2.8 1.5 3.5 1.8 1.5 2 4.7.3 5.3-1.7.5-1.3 16.4.5 18.5.9 1.2.9 1.6-.1 1.9-.6.3-1 .9-.6 1.4.3.5.1.9-.3.9-.5 0-1 2.3-1 5.1-.2 4.1.1 5 1.2 4.5.9-.3 1.5.1 1.5.9 0 .9-.6 1.2-1.7.8-1-.4-1.4-.2-.9.5.3.6.2 1.3-.4 1.7-.5.3-1 .1-1-.5 0-.7-.7-1-1.5-.6-3.2 1.2-4.4-.4-4.5-6.2-.2-6.1-.2-26.1-.1-35.5.1-6 1-6.8 5.5-5.1zm7.3 27.1c-.1 4.3-.3 1-.3-7.2 0-8.3.2-11.8.3-7.8.2 4 .2 10.7 0 15zm8-20.2c.2.1.4 9.1.4 20.1.1 13.2.6 20.1 1.3 20.6.8.6.7.8-.1.8-.6 0-1.4-.4-1.8-1-.3-.5-1.2-.7-2-.4-.8.4-1.8-.1-2.1-1-.8-2.1.4-3.5 1.5-1.7.6.9 1.1 1 1.5.2.5-.7-.4-1.3-2.1-1.7l-2.9-.6-.1-17.6c-.1-9.7.1-18 .3-18.4.4-.6 5.1-.1 6.1.7zm13 11.1c-.3.3.5 1.8 1.9 3.3 2.8 3 1.3 4.2-1.8 1.5-1.6-1.5-1.5-1.1.6 2 1.4 2.1 2.3 4.3 1.9 4.9-.4.6-.9 2.7-1.2 4.6-.4 1.9-1.2 3.6-2 3.9-1 .3-1.2 0-.8-1.2.7-1.9-.4-2.1-2.1-.4-.9.9-1.2-.9-1.2-8.3 0-5.3.3-9.9.7-10.2.3-.4 1.5-.7 2.6-.7s1.8.3 1.4.6zM596.9 645c0 7.7-.5 14-1 14s-.9-6-.9-13.3c0-11.8.3-14.7 1.7-14.7.2 0 .3 6.3.2 14zm102.6-12.4c1.8 1.2 2.5 2.5 2.5 4.9 0 2.9-.2 3.2-2.5 2.7-2.4-.4-2.5-.3-2.5 5.7 0 4.2.4 6.1 1.3 6.1.8 0 .7.4-.3 1-1.1.7-.6.8 1.6.4 2.5-.5 3.2-.2 4.2 2s.9 2.4-.6 1.9c-.9-.3-2.3-1.1-3-1.6-.7-.5-1.5-.7-1.9-.3-.3.3-.1.6.6.6s.9.4.6 1c-.3.5.2 1 1.2 1 1.5 0 1.6.2.3 1s-1.2 1 .3 1c.9 0 1.7.6 1.7 1.2 0 .9.4.8 1-.2.5-.8 1-1.1 1-.5-.1.5-.7 1.8-1.4 2.8-1.2 1.5-1.5 1.5-2.6.2-1.6-1.9-4-1.9-4 0 0 .8 1.1 1.7 2.5 2.1 1.9.5 2.5 1.3 2.5 3.5 0 2.4-.4 2.9-2.4 2.9-1.3 0-2.6.5-2.8 1.1-.2.6-3.1 1.1-6.5 1.2-3.3.1-5.9.5-5.7.9.2.4 0 .9-.5 1.2-1.6 1-2-2.1-.5-4.3.9-1.2 1.3-3 .9-4.1-.4-1.1-.2-2 .4-2 .6 0 1.1-.4 1.1-.9s-.6-.8-1.2-.7c-1.8.2-1.8.1-1.8-14.2v-12.8l6.3-3.1c7.6-3.7 7.2-3.6 10.2-1.7zm22.8 21.1c.4 12.9.3 16.1-.9 17.4-.8.8-1.4 2.3-1.4 3.2 0 .9-.4 1.8-1 2.2-1.1.7-1.6-8.8-1.2-25.8.3-11.4.5-12.7 2.1-12.7s1.9 1.5 2.4 15.7zm-94.6-3c-.2 1.6-.4.3-.4-2.7s.2-4.3.4-2.8c.2 1.6.2 4 0 5.5zm22.3 1.2c-.4 1.6-.6 3.2-.3 3.5.9.9-2.6 1.9-4.3 1.2-1.5-.6-1.5-.8.1-2.6s1.6-2 .1-2.6c-1.6-.6-2.2-3.5-1-4.7.4-.3 1.9 0 3.5.8 2.4 1.3 2.7 1.8 1.9 4.4zm-22.3 4.3c-.3.8-.6.5-.6-.6-.1-1.1.2-1.7.5-1.3.3.3.4 1.2.1 1.9zm39.2.9c-1.6 1-2.3.4-1.4-1 .3-.6 1.1-.8 1.7-.5.6.4.5.9-.3 1.5zm-54.2 1.1c-.3.8-.6.5-.6-.6-.1-1.1.2-1.7.5-1.3.3.3.4 1.2.1 1.9zm10.1 1.1c.3 1.3-.4 1.7-2.7 1.7-1.7 0-3.1.5-3.1 1.1 0 .5.5.7 1 .4 1.6-1 4 2.1 4 5 0 2.3-.2 2.4-2 1.5-1.1-.6-1.8-1.5-1.5-2.1.9-1.3-.9-1.1-2.3.3-.9.9-1.2 0-1.2-4.1 0-4.8.2-5.3 2-4.8 1.1.3 2.3.1 2.6-.4.8-1.4 2.8-.5 3.2 1.4zm45.9.9c-.3.8-.6.5-.6-.6-.1-1.1.2-1.7.5-1.3.3.3.4 1.2.1 1.9zm-137.5 2.1c.2 1.1 1.7 2.8 3.3 3.7 2.7 1.5 3 2.2 3.3 7.4l.3 5.8-3.1-.4c-2.5-.4-3-.1-3 1.6 0 1.7.2 1.8 1 .6 1.2-2 1.8-1.2 2 3 .3 5.9.1 7-1.7 7.1-1.3 0-1.4.2-.4.6 1.1.4 1.1.7 0 1.3-.9.6-.2 1.2 2.2 1.9l3.4 1.1-3.2-.3c-1.8-.2-3 0-2.7.5.3.4 1.4.8 2.4.8s2.2.4 2.5 1c.4.6-.7.8-2.7.5-2.6-.4-2.9-.3-1.3.4l2 1-2 .1c-1.6.1-1.4.4 1 1.5 3 1.4 3 1.4.5 1.6-2.4.2-2.4.2-.2.6 3.2.6 2.7 2.1-.5 1.7-2.5-.4-2.4-.3.7 1.1l3.5 1.5-3.2-.6c-4.1-.7-4.4 1-.4 2.4 2.7 1 2.9 1.3 2.6 5.9-.2 2.7-1.3 6.6-2.5 8.5-1.8 3.2-2.5 3.6-5.5 3.4-2.5-.2-3.2 0-2.8 1.1.4 1 1.4 1.2 3.1.8 2.2-.5 2.4-.4 1.3.9-1.1 1.3-1.1 1.6 0 1.6 1 0 1 .4-.2 1.5-1.2 1.2-2.1 1.4-4.3.5-2.2-.8-2.6-.7-2.4.6.2.9-.8 2.3-2.2 3.3-1.3.9-2.1 1.1-1.7.4.4-.6.3-1.4-.2-1.7-.5-.4-1.2-.2-1.6.4-1 1.6-2.5 1.2-1.8-.5.3-.9.8-1.3 1.1-1.1.3.3 1.1.1 1.7-.4.9-.8 1.1-9.9.8-37.1-.3-19.8-.2-36.6 0-37.2.3-.8 2.3-1.1 5.5-.9 4.3.3 5.1.7 5.4 2.5zm184.5-.1c-.3.7-.5.2-.5-1.2s.2-1.9.5-1.3c.2.7.2 1.9 0 2.5zM612 668.7c-1.1 1.7-1.1 1.7-.6 0 .3-1 .7-3.5.8-5.5l.1-3.7.4 3.7c.2 2.1-.1 4.6-.7 5.5zm36-8.3c0 .2-.7.7-1.6 1-.8.3-1.2.2-.9-.4.6-1 2.5-1.4 2.5-.6zm108.5.6c.3.5.1 1-.4 1-.6 0-1.1-.5-1.1-1 0-.6.2-1 .4-1 .3 0 .8.4 1.1 1zM633 663c0 .5-.2 1-.4 1-.3 0-.8-.5-1.1-1-.3-.6-.1-1 .4-1 .6 0 1.1.4 1.1 1zm28 1c0 .5-.5 1.2-1.2 1.6-.7.4-.8.3-.4-.4s.2-1.2-.3-1.2c-.6 0-1.1-.4-1.1-1 0-.5.7-.7 1.5-.4.8.4 1.5 1 1.5 1.4zm9.5 1c-1.4 1.5-2 1.7-2.6.8-.8-1.3.7-2.8 3-2.8 1.1 0 1 .5-.4 2zm85.6 5.8c-.6.2-1.1.9-1.1 1.6 0 .6-1.4 2.7-3.1 4.6-2.6 3-3 3.2-2.6 1.3.3-1.3.1-2.6-.4-2.9-1.5-.9.2-2.6 2.1-2.1 3.1.8 3.5-4.5.6-6.5-.7-.5-.6-.8.2-.8.7 0 2.1-.8 3-1.7 1.6-1.6 1.7-1.4 2 2.2.2 2.2-.1 4.1-.7 4.3zm-204.6-4.7c.2.3.5 3.2.7 6.6.2 5.1.5 5.9 1.7 5 1.2-1 1.3-.5.9 3.5-.4 3-.1 4.9.6 5.2.6.2.2.5-.9.5-1.5.1-2.1.9-2.3 2.7-.1 1.4.2 2.3.8 1.9 1.2-.7 2.6 2.2 1.6 3.3-.4.3-1.1 0-1.6-.8-.8-1.3-1-1.2-1 .2 0 1.1 1.2 2.1 3.3 2.8l3.2 1-3.3-.5c-2-.3-3.1-.1-2.7.5.3.6 1.6 1.1 2.8 1.1 1.7.1 1.5.3-.8.9-2 .5-2.4.8-1 .9 1.1.1 2.7.6 3.5 1.2 1.3.9 1.2 1-.2.5-2-.6-2.5 1-.5 1.7.6.2.1.3-1.3.1-2-.2-2.6.2-2.7 1.7-.1 1.4.5 1.9 2.2 1.9 1.3 0 2.6.4 2.9.9.3.4-.7.6-2.2.4-1.9-.3-2.3-.2-1.4.5 1.1.7 1.1 1-.2 1.5-.9.4-1.6 1.8-1.6 3.4.1 2.6.2 2.7 1.5.9 1.8-2.4 3.9-1.2 2.3 1.3-.6 1.1-1.7 1.7-2.3 1.4-.8-.3-1.3 1.6-1.4 6.3-.1 3.7-.4 7.1-.7 7.6-1 1.5-5 .8-7.3-1.3-1.7-1.6-2-2.4-1-3.5 1-1.2 1.5-1 3.7 1.1 2.8 2.8 4.4 3.3 3.6 1-.4-.8-1.2-1.5-2-1.5s-1.4-.9-1.4-2c0-1.4.7-2 2.1-2 1.5 0 1.9-.4 1.5-1.6-.3-.9-.6-2.2-.6-2.9 0-1-.5-1.1-2.4-.2-1.4.7-2 1.5-1.4 1.8.6.4.2 1.1-1 1.8-3.1 1.7-3.4 1.4-1.5-1.5 1.6-2.4 1.6-2.7 0-3.6-1.5-.8-1.7-3.6-1.7-27v-26.1l4.5.6c2.6.2 4.8.6 5 .8zm153.2 2.6c-.3 1-.5.4-.5-1.2 0-1.7.2-2.4.5-1.8.2.7.2 2.1 0 3zm-163.8 14.7c.2 11.4-.1 16.6-.8 16.6-.8 0-1.1-5.5-1.1-17.1 0-9.3.4-16.8.8-16.5.4.2.9 7.9 1.1 17zm208.8-16c-.3.8-.2 1.6.3 1.8.5.2.1 1.4-1 2.8-1 1.4-2.2 2.2-2.6 1.8-.4-.4-.1-1.6.7-2.5 1.3-1.6 1.2-1.7-.3-.5-.9.7-2.8 1.5-4.3 1.8l-2.6.5 2.2-3c1.2-1.6 2.7-2.7 3.4-2.5.7.3 1.6.1 2-.5.9-1.6 2.8-1.3 2.2.3zm-34 4.8c-.3.7-.5.2-.5-1.2s.2-1.9.5-1.3c.2.7.2 1.9 0 2.5zm-197.6 2.1c-.8.8-1.1.7-1.1-.4 0-2 1.3-3.4 1.8-1.9.3.7-.1 1.7-.7 2.3zm53.7-.8c.2 1.1 1.3 2.7 2.5 3.6l2 1.7-2.1 2.7c-2.8 3.5-2.9 5.4-.2 3 2-1.8 2-1.7 2 1.3 0 2.5-.4 3.2-2 3.2-1.9 0-2 .7-2 14.7v14.6l-4.1 3.8c-4 3.7-4.1 3.9-2.3 5.6.9 1 1.9 1.3 2.1.8.2-.6.8-1.7 1.3-2.5.9-1.3 1.1-1.3 2 0 1.5 2.4 1.2 7.3-.9 11.3-1.9 3.7-1.6 4.8.7 2.5.9-.9 1.1-.4.9 2-.2 3.3-2.7 4.6-2.7 1.4-.1-1.6-.1-1.6-1.4 0-1 1.3-2.2 1.6-4.9 1.1-4.6-.7-4.8-2.8-.4-3.7 2.2-.5 2.8-.9 1.9-1.5-1.1-.7-1.4-7-1.6-30.2-.2-16.2-.1-31.3.2-33.7l.5-4.3 4.1.3c3.2.2 4.2.7 4.4 2.3zm52.2-.5c0 .5-.4 1-.9 1-.6 0-1.3-.5-1.6-1-.3-.6.1-1 .9-1 .9 0 1.6.4 1.6 1zm6 2c0 .5-.5 1-1.1 1-.5 0-.7-.5-.4-1 .3-.6.8-1 1.1-1 .2 0 .4.4.4 1zm92.7 3.5c-.1 1.9-.5 3.5-.9 3.5s-.8-.5-.8-1.1c0-.5-.4-.7-1-.4-.5.3-1 .4-1 0 0-.7 3.1-5.5 3.5-5.5.2 0 .3 1.6.2 3.5zM589 679c.8 2.9.1 10-.9 10-1.1 0-1.1-4.2.1-6.4l1.1-2.1-2.3 2c-1.3 1.1-2 1.4-1.6.7.4-.6.2-1.2-.4-1.2-.6 0-.8-.5-.5-1 .3-.6.2-1-.4-1-.6 0-1.5-.9-2.1-2.1-1.1-1.9-.9-2 2.6-1.7 3 .2 3.9.8 4.4 2.8zm127.3-1c.3 1.1.1 1.8-.4 1.4-.5-.3-.9-1.2-.9-2 0-2 .7-1.7 1.3.6zm-198.6 1.2c-.3.8-.6.5-.6-.6-.1-1.1.2-1.7.5-1.3.3.3.4 1.2.1 1.9zm179.7 1c-.3.4-1.1.5-1.9.1-.8-.3-1.5 0-1.5.6s-.7 1.1-1.5 1.1-1.5-.7-1.5-1.5c0-.9.9-1.5 2.5-1.5 1.4 0 2.5-.6 2.5-1.3 0-.8.3-.7.9.3.6.8.8 1.7.5 2.2zm46.1-1.2c-.3.5-1.2 1-1.8 1-.7 0-.6-.4.3-1 1.9-1.2 2.3-1.2 1.5 0zm-123.4 1.7c.9.9.2.9-2.6.3-4.7-1.1-5.5-1.8-1.6-1.6 1.7.1 3.6.7 4.2 1.3zm63.9.3c0 .5-.5 1-1.1 1-.5 0-.7-.5-.4-1 .3-.6.8-1 1.1-1 .2 0 .4.4.4 1zm-78 .5c0 1.9-2.7 5.5-4.1 5.5-2.5 0-3.3-1.8-1.7-3.7 1.1-1.5 1.1-1.6-.4-1-1 .3-1.8.2-1.8-.3 0-.6 1.8-1 4-1s4 .2 4 .5zm82 1.4c0 1.7-1.8 2.1-2.4.6-.3-.9 0-1.5.9-1.5.8 0 1.5.4 1.5.9zm7.5 2c-.7 2.5-2.4 2.7-5.1.6-1.9-1.4-1.9-1.4.2-.9 1.2.3 2.6-.1 3.4-1.1 1.6-2 2.4-1.3 1.5 1.4zm26.2-1.3c-.3.3-1.2.4-1.9.1-.8-.3-.5-.6.6-.6 1.1-.1 1.7.2 1.3.5zM585 688.4c0 .9-.6 1.6-1.2 1.7-1 0-1 .2 0 .6 1.7.7 1.5 3.3-.4 3.3-.8 0-1.2-.5-.9-1 .3-.6.2-1-.2-1-1 0-1.6-5.7-.8-7.1.8-1.2 3.5 1.5 3.5 3.5zm15.4.2c.4 1 .1 1.4-.6 1.2-1.5-.5-2.3-2.8-1-2.8.5 0 1.3.7 1.6 1.6zm-11.4 2.8c0 .7-.6 1.8-1.2 2.4-1 .8-1.3.4-1.4-1.4-.1-1.5.4-2.4 1.2-2.4.8 0 1.4.6 1.4 1.4zm13 1.7c0 .5-.1 1.2-.2 1.6-.1.5 1 1 2.5 1.3 2.1.4 2.4.8 1.7 2-.8 1.2-1.3 1.3-2.9.3-1.5-1-2.1-1-2.4 0-.9 2.4-3-.9-2.1-3.4.4-1.3.7-2.7.6-3.1-.1-.4.5-.5 1.3-.2.8.4 1.5 1 1.5 1.5zm10.7 1.1c-.3.8-.6.5-.6-.6-.1-1.1.2-1.7.5-1.3.3.3.4 1.2.1 1.9zm127.3-1.8c0 .3-.4.8-1 1.1-.5.3-1 .1-1-.4 0-.6.5-1.1 1-1.1.6 0 1 .2 1 .4zm-202.3 1.2c-.3.3-1.2.4-1.9.1-.8-.3-.5-.6.6-.6 1.1-.1 1.7.2 1.3.5zm51.3 3.9c0 .8-.4 1.5-1 1.5-.5 0-1-.7-1-1.5s.5-1.5 1-1.5c.6 0 1 .7 1 1.5zm128.7 2.7c-.3.8-.6.5-.6-.6-.1-1.1.2-1.7.5-1.3.3.3.4 1.2.1 1.9zm11.8 0c.4 1.4.8 1.8 1.2 1 .9-2.2 2-1.2 1.9 1.8-.1 1.6-.2 3-.4 3-1.6 0-9.9-2.5-10.7-3.2-.6-.6-.1-1.6 1.5-2.8 3.3-2.6 5.6-2.5 6.5.2zm-168.8 2c-.3.7-.5.2-.5-1.2s.2-1.9.5-1.3c.2.7.2 1.9 0 2.5zm187.9-1.1c.4.7.1 1-.7.7-.8-.3-2.3-.1-3.4.4-2 .9-2 .9-.1-.6 2.3-1.9 3.2-2 4.2-.5zm-207.7 9.2c0 12.9-1.4 13.9-1.7 1.2-.2-6.6.1-10.5.7-10.5s1 3.7 1 9.3zm60.9-7.5c-1 .2-1.8.8-1.8 1.4 0 .6-.3.8-.6.5-1.1-1 1.7-3.8 3-3 .7.5.5.9-.6 1.1zm16.6 1.9c-1.3 1-2 1-2.3.2-.4-1.4 1.9-3 3.3-2.2.5.3.1 1.2-1 2zm124.5 3.8c.1.5-.6.2-1.5-.7-1-.9-1.3-2.1-.8-2.9.5-.9.9-.8 1.5.7.4 1 .8 2.3.8 2.9zm-155.5-2c-.7 1.7-3.2 1.9-5.4.4-1.2-.8-1-.9.8-.4 1.3.4 2.2.2 2.2-.4 0-.6.7-1.1 1.5-1.1.9 0 1.2.6.9 1.5zm-30.1.2c-.7.2-1.9.2-2.5 0-.7-.3-.2-.5 1.2-.5s1.9.2 1.3.5zm3.7.3c0 .5-.5 1-1.1 1-.5 0-.7-.5-.4-1 .3-.6.8-1 1.1-1 .2 0 .4.4.4 1zm44.4 1.1c-.6 1.1-2.4.2-2.4-1.1 0-.5.7-.7 1.5-.4.8.4 1.2 1 .9 1.5zM636 707c0 .5-.4 1-1 1-.5 0-1-.5-1-1 0-.6.5-1 1-1 .6 0 1 .4 1 1zm110.4 1.5c-.4.8-1 1.5-1.5 1.5s-.9-.7-.9-1.5.7-1.5 1.5-1.5c.9 0 1.2.6.9 1.5zm6.1-.5c.3.5.2 1-.4 1-.5 0-1.3-.5-1.6-1-.3-.6-.2-1 .4-1 .5 0 1.3.4 1.6 1zm-233.8 4.2c-.3.8-.6.5-.6-.6-.1-1.1.2-1.7.5-1.3.3.3.4 1.2.1 1.9zm189.1-1c-.2.6-1 1.4-1.6 1.6-.7.2-1-.2-.6-1.2.7-1.8 2.8-2.2 2.2-.4zm30.9 2c-.3.8-.6.5-.6-.6-.1-1.1.2-1.7.5-1.3.3.3.4 1.2.1 1.9zM583 715c0 .5-.5 1-1.1 1-.5 0-.7-.5-.4-1 .3-.6.8-1 1.1-1 .2 0 .4.4.4 1zm78 3.5c0 .8-.4 1.5-1 1.5-.5 0-.7-.7-.4-1.5.4-.8.8-1.5 1-1.5.2 0 .4.7.4 1.5zm-155.6 5c-1.4 1.9-3.4 3.5-4.3 3.5-1.1-.1-.3-1.2 2.3-3.5 5-4.4 5.4-4.4 2 0zm6.1-.3c-.3.8-1.2 1.5-2 1.5-2 0-1.9-.7.2-2.3 2.1-1.5 2.6-1.3 1.8.8zm73.4-.1c-1.6 1-2.3.4-1.4-1 .3-.6 1.1-.8 1.7-.5.6.4.5.9-.3 1.5zm61.6-.1c.3.5.1 1-.4 1-.6 0-1.1-.5-1.1-1 0-.6.2-1 .4-1 .3 0 .8.4 1.1 1zm49.5 1.5c-.7.8-2 1.5-2.9 1.4-1.3 0-1.4-.1-.1-.6.8-.3 1.9-1.2 2.3-2 .5-.8 1.1-1.2 1.4-.9.3.3 0 1.2-.7 2.1zm-158.8 1.7c-.8 1.8-1.7 2.7-2 2-.2-.7.4-2.2 1.4-3.3 2.4-2.6 2.5-2.4.6 1.3zM663 724c0 .5-.4 1-1 1-.5 0-1-.5-1-1 0-.6.5-1 1-1 .6 0 1 .4 1 1zm-153 2.1c0 .5-1.6 2.4-3.7 4.4-2.6 2.5-3.1 3.5-1.9 3.5.9 0 2.8.7 4.1 1.6 1.4.9 3.2 1.4 4 1 .8-.3 1.5-.1 1.5.4 0 1.3-4.7 1.3-5.5 0-.3-.5-1.2-.7-1.9-.4-.8.3-1.7.1-2.1-.5-.3-.6-1.7-.8-3-.5-1.4.3-2.6 0-3.1-.8-.4-.7-.4-1 .1-.6.4.4 2.5-1.4 4.7-4.1 3.4-4.2 6.8-6.2 6.8-4zm3.6 1.4c.1.9-.6 1.5-1.7 1.5s-1.7.4-1.4 1c.3.5.1 1-.4 1-1.5 0-1.4-.6.5-3.6 1.7-2.5 2.6-2.5 3 .1zm-28.6 7c0 .2-.9.9-1.9 1.5-1.4.7-2.2.7-2.7-.2-.4-.6-.3-.8.4-.4.6.3 1.3.2 1.7-.4.6-1 2.5-1.4 2.5-.5zm47.3 4.2c-.3.7-.9 1.3-1.3 1.3s-1 .7-1.3 1.4c-.4 1-.1 1.3.7 1 .7-.3 1.6.2 2 1.1.3 1 .2 1.4-.5 1-.6-.4-1.9.1-3 1.1-2.2 2-6.9 2.5-6.9.8 0-.7.3-1.4.8-1.6.4-.2 2.5-2.5 4.6-5.1 2.6-3.2 4.2-4.4 4.7-3.6.4.7.5 1.8.2 2.6zm236.7-.5c-.1 2.5-1.2 4.6-4.6 8.3-2.5 2.7-4.3 4.4-3.9 3.7.8-1.6-1.7-1.6-3.3 0-2.8 2.8-.9-1.1 2.3-4.7 2-2.2 4.8-5.5 6.2-7.3 1.4-1.7 2.7-3.2 2.9-3.2.2 0 .4 1.5.4 3.2zm-217.9-.7c.1.5.1 1.9 0 3 0 1.1.2 1.4.5.7.7-1.6 2.1-1.6 2.1.1 0 1-1.2 1.2-4.6.9-2.5-.2-4.7-.8-4.9-1.3-.2-.5-.8-.9-1.3-.9-.6 0-.7.4-.4 1 .3.5-.1 1-.9 1-.9 0-1.6.7-1.6 1.6 0 1.2.3 1.4 1.3.6 1.6-1.3 8.8-.4 9.9 1.2.4.6.8 3.5.8 6.5 0 5.2-.1 5.3-2.5 4.7-1.4-.4-3.5-.2-4.6.4-1.5.8-2.4.8-3.4 0-.7-.6-2.5-.8-4.1-.4-2.1.5-2.5.4-1.9-.6.6-.9.4-1.1-.5-.5-.8.5-3.3.8-5.7.6-2.3-.1-5.1.3-6.1.8-1.3.7-2.3.6-3.2-.2-1-1-1.2-.9-.7.5.4 1.2.2 1.5-.9 1.1-.7-.3-1.4 0-1.4.6 0 .7.7 1.4 1.5 1.7 1.3.5 1.3 1-.1 3.5-.8 1.6-2 2.7-2.5 2.3-.8-.4-.7-.9.2-1.5 1.2-.7 1.1-.9-.1-1-.8-.1-2.2 0-2.9.1-1.3.2-1.3-.1 0-1.7.7-1 1.6-2 2-2.3 1-.9 5.9-7.7 5.9-8.2 0-.2-.7-.5-1.5-.5s-1.5.4-1.5.8c0 .3-.9.9-1.9 1.2-1.7.4-1.8.2-.8-1.3 2-3.4 8.7-4.9 8.7-2 0 1.7 3.4 2 5.7.4 1.4-.8 3-1.3 3.7-1.1.6.3 2.5-.1 4.1-.8l3-1.3-3-1.1c-2.3-1-2.6-1.4-1.5-2.1 1.3-.9 1.3-1 0-1s-1.3-.1 0-1c1.2-.8.9-1-1.2-1-2 0-2.6-.4-2.2-1.5.9-2.2 6.4-2 6.4.2 0 1.4.3 1.4 2.3-.4 1.2-1.1 2.9-2.3 3.7-2.6 2.4-.8 6-.4 6.1.8zM677 737c0 .5-.4 1-1 1-.5 0-1-.5-1-1 0-.6.5-1 1-1 .6 0 1 .4 1 1zm-165 3.4c0 .2-.7.6-1.5 1-.8.3-1.5.1-1.5-.4 0-.6.7-1 1.5-1s1.5.2 1.5.4zm160.7 2.1c0 .8-.4 1.2-.9.9-.4-.3-.8-.9-.8-1.5 0-.5.4-.9.8-.9.5 0 .9.7.9 1.5zm70.3-.5c0 .5-.5 1-1.1 1-.5 0-.7-.5-.4-1 .3-.6.8-1 1.1-1 .2 0 .4.4.4 1zm-154 1.6c0 .8-.7 1.4-1.5 1.4s-1.5.4-1.5 1c0 .5-.3 1-.7 1-.5 0-.8-1-.8-2.3 0-1.6.6-2.2 2.3-2.3 1.3-.1 2.2.4 2.2 1.2zm59-.6c0 .5-.2 1-.4 1-.3 0-.8-.5-1.1-1-.3-.6-.1-1 .4-1 .6 0 1.1.4 1.1 1zm-47 .4c0 .2-.8 1-1.7 1.7-1.6 1.3-1.7 1.2-.4-.4 1.3-1.6 2.1-2.1 2.1-1.3zm-42.9 7.7c-.2 7.1-1.6 9.3-2.6 4.3l-.8-3.9-.7 3c-.6 2.4-.8 1.8-.9-2.8 0-3.1.1-5.7.4-5.7.2 0 1.1 1.2 1.9 2.7l1.5 2.8.1-3.4c0-1.9.3-3.1.7-2.8.3.4.5 3 .4 5.8zm8.2-4.1c.5.4-.5 2.9-2.2 5.5-2.8 4.5-2.9 4.9-1.3 6.1.9.7 1.3 1.3.7 1.4-2 0-3.5-1.7-3.5-4.1v-6.7c-.1-4.2 0-4.2 2.7-3.6 1.5.4 3.2 1 3.6 1.4zm34.2 1.4c-1 1.4-2.2 2.6-2.9 2.6-.7 0-.6-.4.2-.9.8-.4 1.3-1.1 1.3-1.5-.2-.8 2.3-3.5 2.7-3.1.2.2-.4 1.5-1.3 2.9zM649 746c0 .5-.2 1-.4 1-.3 0-.8-.5-1.1-1-.3-.6-.1-1 .4-1 .6 0 1.1.4 1.1 1zm-117.5 1c-.3.5-1.1 1-1.6 1-.6 0-.7-.5-.4-1 .3-.6 1.1-1 1.6-1 .6 0 .7.4.4 1zm41.5 1.4c0 .7-1.1 2.5-2.5 4-2.8 3-3.4 4.6-1 2.6 1.8-1.5 2 0 .3 2-1.1 1.2-1 1.2.5.1.9-.7 1.7-2.2 1.7-3.2 0-2.1 3.5-4.4 4.5-3 .3.5-.5 2.1-1.7 3.4-1.3 1.4-3 3.4-3.8 4.6-1.1 1.5-2.1 1.9-3.7 1.5-1.3-.4-2-1-1.7-1.5.3-.5-.2-.9-1-.9-1.9 0-2.1-2.6-.3-3.7.7-.4 1.9-2.3 2.6-4.1 1-2.3 2-3.2 3.7-3.2 1.4 0 2.4.6 2.4 1.4zm-59 1.2c0 .2-.9.4-2.1.4-1.1 0-1.8-.4-1.4-1 .5-.8 3.5-.3 3.5.6zm95.5-.6c-.3.5-1 1-1.6 1-.5 0-.9-.5-.9-1 0-.6.7-1 1.6-1 .8 0 1.2.4.9 1zm-107 1c.3.5-.1 1-.9 1-.9 0-1.6-.5-1.6-1 0-.6.4-1 .9-1 .6 0 1.3.4 1.6 1zm80.2 2.4c-.5 3.8-1.4 5.6-2.8 5.6-1.5 0-1-3.7.6-4.4.8-.3 1.5-1.5 1.5-2.6s.3-2 .6-2 .4 1.5.1 3.4zm9.6-.4c-.7 2.6-2.5 3.8-2.1 1.4.2-1.5 1.5-3.3 2.5-3.4 0 0-.1.9-.4 2zm-82.3 0c0 1.7-4.1 3.3-5.3 2.1-.8-.8-.4-1.1 1.6-1.1 1.5 0 2.7-.5 2.7-1 0-.6.2-1 .5-1s.5.4.5 1zm18.5 7c-.3.5-1.3 1-2.1 1s-1.4.4-1.4 1c0 .5-.5 1-1 1-.6 0-.5-.8.2-2 .7-1.1 2.1-2 3.1-2s1.5.4 1.2 1zm6.8 1.2c.3 1 .8 1 2.1-.1 2.7-2.2 3.2-.3.6 2.4-3.2 3.4-1.8 3.1 3.6-.5 2.4-1.7 4.4-2.6 4.4-2 0 .6-1.1 1.5-2.5 2.2-1.3.6-2.2 1.5-1.9 2 .3.5-.3 1.2-1.4 1.5-1.7.4-1.8.9-1.1 4.1.5 2.1.6 5.1.3 6.9-.5 2.8-.9 3.2-3.3 2.7-1.7-.3-3.4.3-5 1.6-2.9 2.5-2.7 2.6 2.4 3.4 2.2.4 4.4 1.1 4.8 1.5 1.1 1.1-.1 3.4-1.3 2.6-.4-.3-5.6-.5-11.5-.6-8.8-.1-10.6-.3-10.1-1.5.3-.8-.1-1.4-.8-1.4-.8 0-1.7.6-1.9 1.2-.3.8-.6.7-.6-.4-.1-2.7 2.4-3.8 9.1-4.2 4.4-.2 8.2-3.1 5.9-4.5-.8-.5-2.5-.7-3.9-.5-2.3.5-2.4.3-1.1-1.2 1.3-1.6 1.2-1.6-.8-.5-1.3.6-2.3 1.6-2.3 2 0 .5-1.5 1.6-3.3 2.4-1.8.9-3.9 2.7-4.6 4-.7 1.3-1.9 2.4-2.6 2.4-1.8 0-1.1-1.2 5.2-8.2 4.6-5.2 5.5-5.7 8.2-5.2 2.7.6 3.2.2 6.1-4.2 1.7-2.7 4-5.1 5.2-5.4 1.8-.5 1.9-.8.8-2.1-.7-1-.8-1.6-.2-1.6.6 0 1.2.6 1.5 1.2zm41 1.8c-1.7 3-3.3 3.9-3.3 2 0-1.1 3.6-5 4.6-5 .3 0-.3 1.3-1.3 3zm-77.3-1c.5 0 1.4.8 1.9 1.8.8 1.6.6 1.7-2.5 1.4-1.9-.2-3.7-.8-4-1.3-.8-1.4.7-3.1 2.3-2.5.8.3 1.9.6 2.3.6zm10.2 1.2c-.7.7-1.2.8-1.2.2 0-.6.3-1.4.7-1.7.3-.4.9-.5 1.2-.2.2.3-.1 1.1-.7 1.7zm20.8-.9c0 .8-.8 2.1-1.8 3-1.7 1.6-1.9 1.6-1.9 0 0-2 1.5-4.3 2.8-4.3.5 0 .9.6.9 1.3zm16 3c-1.6 1.8-3 3.5-3 3.9 0 1.6 1.7.7 5-2.7 1.8-1.9 3.6-3.3 3.8-3 .3.3 1.2-.3 2-1.3 1-1.2.9-.8-.2 1-.9 1.5-1.6 4.3-1.6 6.2 0 1.9-.4 3.8-1 4.1-.5.3-1 1.1-1 1.6 0 .6.5.7 1 .4 1.8-1.1 1 1.5-1.2 3.7-2 2-2 2.2-.3 3.5 1.6 1.1 1.6 1.3.3 1.3-2 0-4.2-2.6-3.3-4 .8-1.3-.8-1.3-2.2.1-.8.8-1.3.6-2-.7-.8-1.8-.8-4 0-9.6.4-2.9 4.8-8.8 5.9-8.1.5.2-.6 1.9-2.2 3.6zm11.7 2.4c-.2 1.6-.4.5-.4-2.2 0-2.8.2-4 .4-2.8.2 1.3.2 3.5 0 5zm-51.4-5c-.7.2-1.9.2-2.5 0-.7-.3-.2-.5 1.2-.5s1.9.2 1.3.5zm58.7.3c0 .5-.9 1-2.1 1-1.1 0-1.7.4-1.4 1 .3.5.1 1-.4 1-.6 0-1.1-.9-1.1-2 0-1.5.7-2 2.5-2 1.4 0 2.5.4 2.5 1zm181 1c0 .5-.2 1-.4 1-.3 0-.8-.5-1.1-1-.3-.6-.1-1 .4-1 .6 0 1.1.4 1.1 1zm-180 2c0 .5-.2 1-.4 1-.3 0-.8-.5-1.1-1-.3-.6-.1-1 .4-1 .6 0 1.1.4 1.1 1zm13 0c0 .5-.5 1-1.1 1-.5 0-.7-.5-.4-1 .3-.6.8-1 1.1-1 .2 0 .4.4.4 1zm-69.4 2.7c-1 1-1.9-.5-1-1.8.6-1.1.8-1.1 1.2 0 .2.7.1 1.5-.2 1.8zm44.1 1c-.3 1-.5.4-.5-1.2 0-1.7.2-2.4.5-1.8.2.7.2 2.1 0 3zm10.5-1.2c1.9 2.6-.4 3.5-2.8 1.1-.8-.8-1.4-1.7-1.4-1.9 0-.9 3.5-.2 4.2.8zm-44.2.5c0 .5-.4 1-1 1-.5 0-1-.5-1-1 0-.6.5-1 1-1 .6 0 1 .4 1 1zm222.8 1.7c-.3 2.4-.8 2.8-3.8 3.1l-3.5.4 2.9-3.1c3.7-3.8 4.8-3.9 4.4-.4zm7.2-2.3c0 .3-.4.8-1 1.1-.5.3-1 .1-1-.4 0-.6.5-1.1 1-1.1.6 0 1 .2 1 .4zm-2.7 3.2c1 1-.5 3.4-2.2 3.4-1.3 0-1.3-.2-.2-.9.7-.5 1-1.4.7-2-.7-1.1.6-1.6 1.7-.5zm-193.5 3c0 1.7-.3 2.2-.8 1.3-.5-.6-.6-1.8-.3-2.6.8-1.9 1.1-1.6 1.1 1.3zm4.9 2.6c-.3.8-.6.5-.6-.6-.1-1.1.2-1.7.5-1.3.3.3.4 1.2.1 1.9zm22.8-1.2c.3.5 1.9 1 3.6 1 1.6 0 2.9.4 2.9.9 0 1.3-2.9 3.5-3.7 2.7-.3-.3-.1-.6.6-.6s1-.4.7-.9c-.7-1-2.5-.9-4.3.2-.9.6-1.1.3-.7-.7.3-.9.1-1.6-.5-1.6s-1.1.4-1.1 1c0 .5-.9 1-2 1-1.8 0-1.9-.3-1-2 1.1-2.1 4.4-2.7 5.5-1zm74.7 4.5c.3 2.9.1 3.5-1.5 3.5-1 0-2.7-.5-3.8-1-1.8-1-1.8-1.2.8-3.5 3.7-3.2 4-3.1 4.5 1zm-95.5-.3c-.3.8-.6.5-.6-.6-.1-1.1.2-1.7.5-1.3.3.3.4 1.2.1 1.9zm8.8-.2c.3.5.2 1-.4 1-.5 0-1.3-.5-1.6-1-.3-.6-.2-1 .4-1 .5 0 1.3.4 1.6 1zm7 2c.5 1.4-.5 3.7-3 7.5-3.5 5.3-5.5 6.9-5.5 4.2 0-.7.4-1.7 1-2.3.5-.5 1.1-1.8 1.3-2.9 1.5-7.4 4.8-10.8 6.2-6.5zm-40.2.7c-.5 1.2-.2 1.5 1 1 .9-.3 1.7-.2 1.7.3 0 .6-.6 1-1.2 1-2.2 0-4.1-1.7-3.4-2.9 1.1-1.7 2.6-1.3 1.9.6zm47.3 3c-1.1 1.1-1.7-.4-.9-2.3.7-1.8.8-1.8 1.1-.1.2 1 .1 2.1-.2 2.4zm136.7-.7c-.6 2.3-1.4 2.5-3.1.8-1.8-1.8-1.4-2.8 1.2-2.8 1.9 0 2.3.4 1.9 2zm21-1.4c3.8.6 4.6 1 4.4 2.6-.2 1-1.4 2.6-2.6 3.5l-2.3 1.6 1.7-2.7 1.8-2.7-2.7 1.2c-1.4.7-2.6 1.6-2.6 2.1 0 1.3-4.4.9-6.4-.5-1.5-1.1-1.7-1.7-.7-3.5 1.3-2.4 2.3-2.5 9.4-1.6zm-69 5.1c-.3 2.7-1.1 5.4-1.7 6.2-.9 1.2-.6 1.3 1.6.9 1.5-.3 2.5-.1 2.2.3-.3.5.1.9.9.9s1.7-.7 2.1-1.5c.6-1.7 4.6-2.1 4.6-.5 0 .9-1.4 1.4-3.2 1.1-.5 0-.7.4-.5 1.1.1.6-1.6 1.7-3.8 2.3-2.4.7-3.4 1.4-2.5 1.7.8.3 2.3.1 3.3-.4 1.8-.9 2.5.6.7 1.7-.5.3-1 1.5-1 2.6 0 1.5.7 1.9 3.5 1.9h3.4l-2.6 2.7c-1.4 1.6-3.7 4.6-5.2 6.8-3.6 5.6-4.9 6.8-6.6 6.1-.8-.3-1.5-.1-1.5.4 0 .6-.7 1-1.6 1-.8 0-1.3.4-.9.9.3.5.1 1.2-.4 1.5-.5.3-1.2-.9-1.6-2.7-.9-3.7-.9-3.6 0-6 .5-1.3.3-1.6-.8-1.1-1.8.7-4.2 6.1-4 8.9.1 1.5 0 1.6-.3.3-.3-1-1.1-1.5-2-1.1-1.4.5-1.8-.6-1.5-3.7.1-1.1-.3-.9-1.4.5-.9 1.2-1.4 2.9-1 4.3.3 1.3 0 2.9-.8 3.7-1.2 1.2-1.5-.1-2-8.8-.4-9.6-.3-10.4 1.9-13.4 1.3-1.7 2.4-3.5 2.4-3.9 0-1.5 6.6-9.3 8-9.4.8-.1 1-.4.4-.6-1.6-.7-6.6 1.4-6 2.5.4.5-.4.7-1.5.4-2-.6-1.9-.8 1.2-2.4 2.4-1.3 2.8-1.8 1.5-1.9-1.5 0-1.6-.3-.7-1.4 1.7-2 5.1-2.8 4.4-1-.3.9.2 1.4 1.6 1.4 1.4 0 2.1.6 2.1 2 0 2.6 2.6 2.6 3.3-.1.3-1.1 1.5-2.3 2.7-2.6 1.2-.3 2-1.2 1.8-2.2-.2-1.5.8-4.1 1.7-4.1.3 0 .2 2.1-.2 4.7zM545 786c0 .5-.4 1-1 1-.5 0-1-.5-1-1 0-.6.5-1 1-1 .6 0 1 .4 1 1zm166.7-.4c-.3.3-1.2.4-1.9.1-.8-.3-.5-.6.6-.6 1.1-.1 1.7.2 1.3.5zm-149 4.5c-.6 1-1.5 1.5-2 1s-.3-1.8.4-2.9c.9-1.4 1.6-1.7 2-1 .4.6.2 1.9-.4 2.9zm14.1-1.7c-.6 1.4-1.7 2.7-2.5 3-1.5.6-1-.7 1.5-3.7 2.1-2.3 2.4-2.1 1 .7zm31.2 0c0 .3-.4.8-1 1.1-.5.3-1 .1-1-.4 0-.6.5-1.1 1-1.1.6 0 1 .2 1 .4zm-57.5 4.2c-.1 3-2.4 4.1-3.3 1.5-.3-.8 0-1.1.7-.7.7.4.9.1.5-.8-.4-1.1-1.4-1.3-3.5-.9s-2.9.2-2.9-.9c0-1 1.2-1.4 4.3-1.3 4 .1 4.2.3 4.2 3.1zm184.5-2.2c0 .3-.4.8-1 1.1-.5.3-1 .1-1-.4 0-.6.5-1.1 1-1.1.6 0 1 .2 1 .4zm-173 4c0 .3-.4.8-1 1.1-.5.3-1 .1-1-.4 0-.6.5-1.1 1-1.1.6 0 1 .2 1 .4zm154 .6c0 .5-.2 1-.4 1-.3 0-.8-.5-1.1-1-.3-.6-.1-1 .4-1 .6 0 1.1.4 1.1 1zm-145.7 1.5c-.3.9-.8 1.4-1 1.1-.3-.3-.2-.9.2-1.5.9-1.6 1.5-1.3.8.4zm175.7 0c0 .8-.7 1.5-1.5 1.5-.9 0-1.2-.6-.9-1.5.4-.8 1-1.5 1.5-1.5s.9.7.9 1.5zm-198.6 2c-.4.8-.8 1.5-1 1.5-.2 0-.4-.7-.4-1.5s.4-1.5 1-1.5c.5 0 .7.7.4 1.5zm-297 2c-.4.8-.8 1.5-1 1.5-.2 0-.4-.7-.4-1.5s.4-1.5 1-1.5c.5 0 .7.7.4 1.5zm257.1-.5c.3.5.1 1-.4 1-.6 0-1.1-.5-1.1-1 0-.6.2-1 .4-1 .3 0 .8.4 1.1 1zm2.2 17.7-.2 16.8h-8.7c-4.9 0-8.8-.3-8.8-.8 0-.4 1.6-4 3.6-7.9 2-4 3.8-8.1 3.9-9.2.9-6 4.1-12.3 7-13.8 1.6-.9 3.1-1.7 3.2-1.7.1-.1.1 7.4 0 16.6zm19-13.1c-.3.3-1.2.4-1.9.1-.8-.3-.5-.6.6-.6 1.1-.1 1.7.2 1.3.5zm207.3 2.5c0 .8 1.1.9 3.1.5 2.8-.5 3.1-.4 2.6 1.5-.3 1.2-.3 1.8 0 1.5.3-.3 1.4-.1 2.5.5 1.8 1 1.9 1.7 1.3 7.2-.4 3.4-1.4 7-2.2 7.9-1.8 2-11 3.5-12.5 2-1.3-1.3.6-14.8 2.3-16.8.7-.9.4-1.6-1-2.6-1.2-.8-1.8-1.8-1.4-2.1 1.1-1.1 5.3-.8 5.3.4zm-218.8 1.7c-1.4.4-1.6 4.2-.2 4.2.6 0 1 .6 1 1.4 0 .8.6 1.6 1.3 1.9.9.3.9 1.1.1 3.5-1 2.6-.9 3 .3 2.5 1.1-.5 1.4-.1.9 1.3-.3 1-.7 3.3-.8 5-.2 2.7-.6 3.1-3.1 3.2l-2.9.1.6-8.7c.3-4.8.5-10.4.6-12.4 0-3.1.3-3.6 1.7-3.1 1.1.4 1.2.8.5 1.1zM323 810.6c0 .9-.6 1.4-1.2 1.1-.7-.2-2.5.5-4.1 1.5l-2.7 2 1.1-2.6c1-2.2 2-2.7 6.2-3.5.4 0 .7.6.7 1.5zm214.5-.4c1.6.7 2.4 1.7 2 2.6-.3.8 0 2.2.7 3 .8.9.8 1.3.2.9-.8-.5-1.1 1-1.1 4.9 0 3.1-.6 6.7-1.3 8-1.2 2.1-2 2.4-7.7 2.4-5.3 0-6.3-.3-6.4-1.8 0-1.4-.2-1.4-.9.3-.7 1.6-.9 1.4-.9-1.5-.1-6 2.3-11.1 7.5-15.6 2.7-2.4 5-4.3 5.1-4.4.1 0 1.4.5 2.8 1.2zm145.5-.9c0 .2-1.2 1.4-2.7 2.8l-2.6 2.4 1.9-2.7c1.6-2.3 3.4-3.6 3.4-2.5zM546 811c0 .5-.4 1-.9 1-.6 0-1.3-.5-1.6-1-.3-.6.1-1 .9-1 .9 0 1.6.4 1.6 1zm98.8 3 1.1-2.5v2.6c.1 1.5-.6 2.9-1.4 3.3-.9.3-1.5 1.8-1.5 3.7 0 2.7.2 3 1.5 1.9 2.2-1.8 1.8-.3-.5 2-1.9 1.9-1.9 1.9-1.8-6.8.1-6 .3-7.6.8-5.2.7 3.5.7 3.5 1.8 1zm82.4-.4c-.2 1-.5 3.8-.9 6.1l-.6 4.3-3.8-.6c-3.2-.5-3.9-.4-3.9 1 0 2-.4 2-4 .1s-3.2-3.3 2.5-8c6.8-5.5 11.3-6.7 10.7-2.9zm-111.6 0c-.5 1.4-.4 1.5.9.4 1.1-.9 1.8-1 2.9-.1 1.2 1 1.1 2.1-1 7.4-3.1 7.9-4.4 9.1-4.6 4.6-.6-13.6-.6-13.9 1.4-13.9.5 0 .7.7.4 1.6zm-292.5 6.1c-.9 1.5-1 1.4-.7-.7.6-3.5.7-3.7 1.2-2.3.3.7.1 2-.5 3zm220.1 1.5c-.9.9-1.2.7-1.2-1.2s.3-2.1 1.2-1.2c.9.9.9 1.5 0 2.4zm102.5-1c-.3.8-.6.5-.6-.6-.1-1.1.2-1.7.5-1.3.3.3.4 1.2.1 1.9zm67.3 6.3c1.1 1.3.8 1.5-1.3 1.5-1.9 0-2.5-.4-2.1-1.5.4-.8 1-1.5 1.4-1.5.4 0 1.3.7 2 1.5zM411.3 833c.8 0 .8.3.1 1-1.2 1.2-4.4.3-4.4-1.2 0-.6.7-.7 1.6-.4.9.3 2.1.6 2.7.6zm29.7 1.3c0 .5.7.7 1.5.4 1.7-.7 3 .9 1.4 1.8-.6.4-1.6.2-2.2-.4-1.4-1.4-3-1.5-2.2-.1.3.5.4 1 .1 1-.3 0-1-.9-1.6-1.9-.8-1.7-.7-2 1-1.8 1.1.1 2 .5 2 1zm11.4 2.5c.3.5-.1.9-.9.9s-1.5-.4-1.5-.9c0-.4.4-.8.9-.8.6 0 1.2.4 1.5.8z"/><path d="M617.8 649.7c.6.2 1.8.2 2.5 0 .6-.3.1-.5-1.3-.5-1.4 0-1.9.2-1.2.5zM548 726c0 .5.5 1 1.1 1 .5 0 .7-.5.4-1-.3-.6-.8-1-1.1-1-.2 0-.4.4-.4 1zM546.3 737.7c-.7.2-1.3.9-1.3 1.5 0 1.2 4.1.6 4.1-.7.1-1.2-1.1-1.5-2.8-.8zM542 752c0 .5.5 1 1.1 1 .5 0 .7-.5.4-1-.3-.6-.8-1-1.1-1-.2 0-.4.4-.4 1zM524.5 753c-.3.5-.1 1 .4 1 .6 0 1.1-.5 1.1-1 0-.6-.2-1-.4-1-.3 0-.8.4-1.1 1zM529 776.7c0 .5 1.4.9 3 1 1.7.1 3-.2 3-.7 0-.6-1.3-1-3-1-1.6 0-3 .3-3 .7zM543.5 775c-1 1.1-1.5 2-1.1 2 1.1 0 3.9-3 3.4-3.6-.3-.2-1.3.5-2.3 1.6zM653 781c0 .5.5 1 1 1 .6 0 1-.5 1-1 0-.6-.4-1-1-1-.5 0-1 .4-1 1zM670.5 804c-.3.6.1.7.9.4 1.8-.7 2.1-1.4.7-1.4-.6 0-1.3.4-1.6 1zM654 816.5c-1 1.2-1 1.5.3 1.5 1.9 0 3.1-1.6 1.8-2.4-.5-.3-1.4.1-2.1.9zM504 814.5c0 1.4.5 2.5 1 2.5.6 0 1-1.1 1-2.5s-.4-2.5-1-2.5c-.5 0-1 1.1-1 2.5zM736.6 820.1c.1 2.8 1.6 4.8 3.7 4.9 1.4 0 .6-2.5-1.6-5.2l-2.2-2.7.1 3zM735 825c0 .5.5 1 1 1 .6 0 1-.5 1-1 0-.6-.4-1-1-1-.5 0-1 .4-1 1zM718 816.5c-1 1.2-1 1.9-.2 2.7.9.9 1.2.8 1.2-.5 0-.9.5-1.7 1-1.7.6 0 1-.5 1-1 0-1.5-1.6-1.2-3 .5zM722.5 819c-.3.5-.2 1 .4 1 .5 0 1.3-.5 1.6-1 .3-.6.2-1-.4-1-.5 0-1.3.4-1.6 1zM220.5 598c-.8 1.3 2.5 1.3 4.5 0 1.2-.8.9-1-1.2-1-1.5 0-3 .4-3.3 1zM667 599.1c0 1.1.4 1.8 1 1.4.5-.3.7-1.2.3-2-.7-2.1-1.3-1.9-1.3.6zM215 598.4c0 .2.9.6 2 .9 1.1.3 1.8.1 1.4-.4-.5-.9-3.4-1.3-3.4-.5zM511 599c.8.5 2 1 2.5 1 .6 0 .3-.5-.5-1s-1.9-1-2.5-1c-.5 0-.3.5.5 1zM765.2 602.2c-.7.7-1.2 2-1.2 3.1s-.4 1.5-1.1 1.1c-.8-.5-.9-.2-.2 1.1.6 1 .8 2.6.6 3.5-.3 1 .1 2.9.8 4.1.7 1.3 1.2 5.1 1.1 8.4 0 3.3.3 7.6.8 9.5.5 2.3.8-2.4.9-14.3.1-9.7 0-17.7-.2-17.7s-.8.5-1.5 1.2zM650.5 607c3.9.9 17.2 1.4 16.4.6-.2-.2-4.9-.6-10.4-.9-6.8-.4-8.7-.3-6 .3zM675 609.5c9.7 1.7 9.1 1.4 39.4 16.6 14.2 7.1 26.1 12.7 26.4 12.5.3-.4-34-18.1-49.3-25.4-5.9-2.8-15.6-5.2-20.5-5.1-2.2.1-.8.6 4 1.4zM533 612c.8.5 2 1 2.5 1 .6 0 .3-.5-.5-1s-1.9-1-2.5-1c-.5 0-.3.5.5 1zM552 624c0 .5.1 1 .3 1 .1 0 1.7.4 3.5.9 4.1 1.2 4.2-.4.1-1.8-3.9-1.3-3.9-1.3-3.9-.1zM463.2 629.1c-.2 3 .1 4 1 3.7.8-.3 1.2-1.7 1-3.4-.6-4.6-1.7-4.7-2-.3zM389 628.4c0 .9.5 1.6 1 1.6.6 0 1-.4 1-.9 0-.6-.4-1.3-1-1.6-.5-.3-1 .1-1 .9zM354.3 634c0 3 .2 4.3.4 2.7.2-1.5.2-3.9 0-5.5-.2-1.5-.4-.2-.4 2.8zM399.6 631.5c-1 1.4-1.5 3.4-1.2 4.3.7 2-1 5-2.1 3.8-.4-.4-.9-1.2-.9-1.7-.1-.5-.2-1.5-.3-2.2-.1-.7-.6-.5-1.2.6-.5.9-.7 2.2-.3 2.9.4.7.3.8-.4.4s-1.2-1.8-1.2-3.1c0-3-1.8-4.2-2.7-1.8-.3 1-1.4 2.8-2.4 4.1-.9 1.2-1.5 3.1-1.2 4.3.6 2.1.7 2.1 13.5.3l3.7-.6-.2-6.9c-.1-3.8-.5-6.9-.8-6.9-.4 0-1.4 1.1-2.3 2.5zM472.5 634c-.3.5-.1 1 .4 1 .6 0 1.1-.5 1.1-1 0-.6-.2-1-.4-1-.3 0-.8.4-1.1 1zM467.8 635.7c.7.3 1.6.2 1.9-.1.4-.3-.2-.6-1.3-.5-1.1 0-1.4.3-.6.6zM742 639.4c0 .7 6.3 3.6 6.8 3.2.2-.3-1-1.2-2.7-2-3.1-1.6-4.1-1.9-4.1-1.2zM248.3 650.9c-1.9 3.3-5.6 4.2-7 1.7-.4-.7-2.7-1.7-5-2.1-4-.6-4.3-.5-6.3 2.7-1.1 1.8-2 4.4-2 5.7 0 2.4 0 2.4 8.8 1.7 17.5-1.3 21.3-1.8 20.9-3-.2-.6-2-1-4-.9-2.8.2-3.9-.2-4.7-1.8-.9-1.6-.8-2.5.6-4 .9-1 1.4-2.2 1.1-2.5-.4-.4-1.4.7-2.4 2.5zm-9 4.5c-.1 1.6-.4 3.1-.7 3.3-1.1 1.1-2.6-1-2.6-3.8 0-2.4.4-3 1.8-2.7 1.2.3 1.6 1.2 1.5 3.2zM341.8 652.7c.6.2 1.8.2 2.5 0 .6-.3.1-.5-1.3-.5-1.4 0-1.9.2-1.2.5zM462.5 652.5c-.5.2-5.7.9-11.5 1.4-5.8.6-17 1.7-25 2.6-8 .8-15.6 1.5-17 1.7-1.4.1.4.4 4 .7l6.5.6.3 4.3c.2 2.8.7 4 1.4 3.6.7-.5.9 0 .6 1.4-.4 1.2 0 2.6.8 3.3 2 1.7 1.7 8.2-.5 11-1.9 2.4-2.6 9-2.2 20.9l.2 4.5 1.5-2.8c.8-1.5 2-2.7 2.7-2.7.8 0 .7.3-.2.9-.8.5-1.5 1.7-1.6 2.8-.1 1-.7 2.9-1.4 4.3l-1.2 2.5 2-2.5c1.1-1.4 2.1-3 2.1-3.6 0-1.3 4.6-2.4 10.1-2.4h3.9v-19.5l-4.6.4c-3.2.2-4.9-.1-5.5-1-.6-1-.9-1.1-.9-.2 0 .7-.4 1.3-1 1.3s-1-3.8-1-9.5V667l4.5-.2c2.5-.1 5.3-.2 6.3-.2 1.3-.1 1.8-1.2 2.2-5.1l.5-4.9 4 .1c2.2 0 5.9.1 8.1.2l4.1.1 1.2 5.8c1.2 6.2 3.6 8 4.7 3.6.5-1.9 1.5-2.4 5.2-2.9 2.6-.4 5.4-.7 6.2-.8 1-.2 1.7-1.8 2-5 .4-2.6.4-5 .1-5.2-.5-.6-10.1-.5-11.6 0zM313.8 655.7c.7.3 1.6.2 1.9-.1.4-.3-.2-.6-1.3-.5-1.1 0-1.4.3-.6.6z"/><path d="M444.3 658.7c.9.2 2.3.2 3 0 .6-.3-.1-.5-1.8-.5-1.6 0-2.2.2-1.2.5zM449.8 658.7c.7.3 1.6.2 1.9-.1.4-.3-.2-.6-1.3-.5-1.1 0-1.4.3-.6.6zM390 660c-3 .5-7.9.8-10.9.9-6.7.1-6.3 1 .5 1.2 2.7.1 5.6.8 6.4 1.5 1.8 1.5 9.3 1.9 13.4.7 1.6-.5 3.3-1.9 3.7-3.1.8-2.1.6-2.2-3.4-2.1-2.3.1-6.7.5-9.7.9zM222.5 661c-.4.6.6 1 2.2 1 2.2 0 2.5-.2 1.3-1-1.9-1.2-2.7-1.2-3.5 0zM362.5 662.6c-1.1.1-8.1.8-15.5 1.4-18.3 1.6-36 3.7-36.8 4.4-.3.3 2.2.6 5.6.6 3.4 0 6.3.3 6.4.7.5 2.6.7 9.6.9 32.3.3 35.5.4 34-2.3 34.1-2.2 0-2.2.1-.3.9 1.1.5 5.5.9 9.8.9l7.7.1v-23.6l-3.7.3c-3.7.2-7.3-1-6.2-2.2.4-.3 2.7-.6 5.3-.7l4.6-.1v-45.4l3.8-.7c6.4-1 9.8-.7 12 1.3 2.2 1.9 3 3.7 1.2 2.6-.6-.4-1 .6-1 2.2 0 2.3.2 2.5 1.1 1.3.9-1.2 1-1.1.6.6-.3 1.7 0 2 1.3 1.7 2-.5 3.3-4 1.9-4.9-.5-.3-.3-1.1.4-1.8 1-1.2 1.3-1.1 1.9.4.4 1.1 2 1.9 4.3 2.2 4.7.5 5.5-.8 1-1.6-4.5-.9-5-4.1-.6-3.4 2.3.3 3.2-.1 4-1.9 1-2.2.9-2.3-2.2-2.2-1.7.1-4.1.3-5.2.5zM326 711.5c0 .8-.4 1.5-1 1.5-.5 0-.7-.7-.4-1.5.4-.8.8-1.5 1-1.5.2 0 .4.7.4 1.5zm-.3 8.7c-.2 1.3-.4.5-.4-1.7-.1-2.2.1-3.2.4-2.3.2 1 .2 2.8 0 4zM401.2 667.5c0 1.6.2 2.2.5 1.2.2-.9.2-2.3 0-3-.3-.6-.5.1-.5 1.8zM292.5 669.1c-3.8.5-17.1 1.8-29.5 2.9-44.8 4-48 4.4-48 6.1 0 .8.4.8 1.3.2 1.3-1.1 13.4-2.3 15.5-1.6.6.3 1.2 1.3 1.2 2.4 0 1.8.1 1.8 1.8.1 1.8-1.8 18.3-5.9 19.9-4.9.4.3 5.8-.1 11.8-.8 6.1-.7 11.4-1 11.8-.8.4.3 1.3 0 2-.5.7-.6 3.4-.8 6.7-.4 6.6.8 6.1-.9 6.6 23.8.4 18.2 2 31.5 2.2 18.1 0-3.8.3-7.1.6-7.5.3-.3.6 1.9.6 4.8 0 5.1.1 5.2 1.8 3.7 2.2-2 7.8-2.3 8.5-.5.7 1.7.9-2.6 1-26.5l.2-19.7-4.5.1c-2.5.1-7.6.5-11.5 1zM436.2 670.5c-.1 1.4.3 2.5.8 2.5.6 0 1-1.1 1-2.5s-.4-2.5-.8-2.5-.9 1.1-1 2.5z"/><path d="M361 673.4c0 .8.5 1.8 1 2.1.6.3 1 .2 1-.3 0-2.4 3.1-2 4.4.6 1.3 2.3 1.5 2.4 1.6.6 0-1.1-.5-2.5-1.2-3.2-1.7-1.7-6.8-1.5-6.8.2zM457.1 679.5c-.4 7-.4 16.8-.2 25l.2 7 1.5-3c2.4-4.5 4.2-5.5 10.1-5.5h5.3v-20.2l-6.5.7-6.5.7V681c0-2.7-.2-3-1.4-2.1-1.2 1-1.5.7-1.9-1.6-.3-1.8-.5-1-.6 2.2zM234.5 684c.4.6 1.1.8 1.6.5 1.4-.9 1.1-1.5-.7-1.5-.8 0-1.2.5-.9 1zM355.7 686.8c-1.9 4.4-2.2 6.6-.7 5.7.6-.3 1-.1 1 .4 0 .6-.5 1.1-1 1.1-.7 0-1 6.8-1.1 18.7 0 22.8 0 22.3-1.3 22.3-.7 0-.7.3 0 1 .6.6 4.4 1 9 .8l7.9-.3.3-25.6.3-25.5-2.6-1.2c-1.4-.6-2.5-.8-2.5-.3s.6 1.2 1.3 1.5c.6.3.3.4-.8.3-1.1-.2-1.9-.9-1.7-1.5.1-.7-.4-1.2-1.2-1.2-1 0-1.6 1.4-1.8 4.2l-.4 4.3-.8-4.3c-.5-2.3-1.2-4.2-1.5-4.2-.4 0-1.5 1.7-2.4 3.8zM390.6 690.2c.5 1.7-.4 2.2-3.2 1.9-.6-.1-1.1.5-1.1 1.1-.7 11.1-.3 13.5 1.8 12.2.6-.3.9 0 .7.7-.3 1.6.6 2.1 2.4 1.4.7-.2 3.6-.6 6.3-.7l5-.3.3-9.1.3-9.1-6.5.1c-5.8.1-6.5.3-6 1.8zM492.3 700c-3.2 2.8-2.9 5 .7 5 1.3 0 1.3-.1 0-1s-1.3-1 .1-1c.8 0 2 .5 2.7 1.2.9.9 1.5.9 2.4 0 .7-.7.8-1.2.4-1.2-.5 0-.1-1.1.8-2.5s1.2-2.5.6-2.5c-.5 0-1 .4-1 1 0 1.2-4 3.4-4.7 2.6-.3-.3 0-1.2.7-2.1 2.3-2.7.6-2.4-2.7.5zM496.4 710.6c-1 .8-1.3 1.2-.6.9.7-.4-.7 1.4-3.1 3.9-2.8 2.8-5.2 4.4-6.6 4.3-1.1-.1-2.1-.2-2.1-.4 0-.1 2.4-1.9 5.3-3.9 4.5-3.1 4.8-3.5 2.2-2.9-1.6.3-4.4 2-6.1 3.6-1.7 1.6-3.3 2.7-3.5 2.4-.3-.3-1.6.6-2.9 2l-2.3 2.5h2.1c1.2 0 2.2.5 2.2 1.1 0 .6.7.8 1.6.5.9-.3 2.7-.9 4.1-1.2 2.3-.6 2.4-.5 1.4 1.5-.9 1.6-.9 2.1 0 2.1 1.8 0 11.9-10.2 11.9-12-.1-.9-.8-.5-2.1 1.2-1.1 1.6-2.6 2.8-3.2 2.8-.6 0-1.9.7-2.9 1.7-1 .9-2.1 1.4-2.4 1-.3-.3 1.2-1.7 3.3-3 2.2-1.4 4.6-3.9 5.3-5.6 1.5-3.8 1-4.6-1.6-2.5zM456.5 725.7c-1.2 8.5-1.2 8.5 9.5 7.7 9-.6 9.1-.7 8.8-5.4l-.3-4-7.2.6c-6.6.5-7.3.4-7.3-1.3 0-1.4-.2-1.5-.9-.4s-1 .7-1.3-1.5c-.2-1.8-.7-.3-1.3 4.3zM393 723.1c-3.3 1.3-6.9 5.8-7 8.6 0 1.7-.6 2.3-2.2 2.4-5.5.2 3 1.7 10.5 1.8 9 .1 9.7-.6 8.7-8.7-.5-4.5-.6-4.7-4-4.9-1.9-.1-4.6.2-6 .8zM297.1 727.3c-.1 2.8-.5 4.6-1.1 4.2-1-.6-3 5.4-2.3 6.7.6 1.1 14.1 1 14.7-.1 1-1.6-.6-7.1-2-7.1-.8 0-1.4.4-1.4.8 0 .5-1.3.9-2.9 1-2.8.1-3-.2-3.9-5.1l-1-5.2-.1 4.8zm-.1 7.8c0 1.1-.4 1.8-1 1.4-.5-.3-.7-1.2-.3-2 .7-2.1 1.3-1.9 1.3.6zM420.2 728.7c-.2 1.9-.4 4-.5 4.7-.3 1.5 4.4 1.9 12 1.1 5.8-.6 6.3-.8 6.3-3.1 0-1.7-.6-2.4-2-2.4-1.1 0-2-.4-2-.9s.9-.7 2-.4c1.3.4 2 0 2-.9 0-1.1-1.4-1.3-7.7-.7-4.3.5-8.2.4-8.8-.1-.8-.6-1.2.2-1.3 2.7zm12.6-.5c-.6 1.8-2.8 2.1-2.8.4 0-.9.7-1.6 1.6-1.6.9 0 1.4.5 1.2 1.2zM236.4 738.3c-.5.8-2.2 1.8-3.9 2-1.6.3 4.9.4 14.5.1 9.6-.2 21-.4 25.3-.4 4.2 0 7.7-.3 7.7-.8 0-.4-8.7-.7-19.2-.7-10.6 0-20.3-.4-21.4-.9-1.6-.5-2.4-.3-3 .7zM402.5 739l-15 .6 15.3.2c9.6.1 15.2-.2 15.2-.8 0-.6-.1-.9-.2-.8-.2.1-7 .5-15.3.8zM429.8 738.7c3.4.2 9 .2 12.5 0 3.4-.2.6-.3-6.3-.3-6.9 0-9.7.1-6.2.3zM339 741l-12.5.7h14.3c8.2 0 13.8-.3 13-.8-.7-.5-1.5-.8-1.8-.7-.3.1-6.1.5-13 .8zM363.3 740.7c4.3.2 11 .2 15 0 4-.1.5-.3-7.8-.3-8.2 0-11.5.2-7.2.3zM277.5 743.1c-6.1.3-1.4.4 10.5.2 11.8-.3 21.7-.7 21.9-.9.6-.5-18.9-.2-32.4.7zM479.6 746.1c-.8 1.2-1.3 2.6-1 3.1.4.5 1.2-.3 2-1.8 1.8-3.4 1.1-4.3-1-1.3zM446.8 752.7c3.4.2 8.8.2 12 0 3.1-.2.3-.3-6.3-.3s-9.2.1-5.7.3zM395 754.5c-.6.8-1.1 3.1-1 5.2.1 2.1.2 8.4.1 14l-.1 10.2-6.6-.6c-5.4-.5-6.6-.4-6.2.8.2.7 2.4 1.8 4.9 2.4 4.1 1 4.4 1.3 4.5 4.6.3 8.4.5 9.3 1.2 8.3.5-.8 5.3-1.1 14.2-1.1 15.4.1 19-.2 19-1.4 0-.5-.5-.9-1.2-.9-.6 0-.9-.2-.7-.5.3-.2 1.9-.1 3.7.4 2.4.7 3.4.6 4.4-.7.7-1 .9-1.4.4-1-.4.3-2.2-.7-3.8-2.3-2.9-2.7-4.5-3.4-7.7-3-.7.2-1-.2-.7-.7.5-.9-6.9-2.2-13.1-2.2-2.6 0-3-.3-2.6-2 .5-1.8.3-1.8-2.6-.7-2 .7-3.4.8-4 .2-.5-.6-1.1-6.5-1.3-13.3-.4-9.2-.2-12.7.9-14.1 1.6-2.3.1-3.8-1.7-1.6zM410.8 753.7c1.7.2 4.7.2 6.5 0 1.7-.2.3-.4-3.3-.4-3.6 0-5 .2-3.2.4zM208.5 755.1c-.4.6-.5 1.2-.2 1.5.2.3.7-.2 1-1.1.7-1.7.1-2-.8-.4zM223.3 762c0 2.5.2 3.5.4 2.2.2-1.2.2-3.2 0-4.5-.2-1.2-.4-.2-.4 2.3zM502.6 774.5c.4.8.2 1.5-.4 1.5-.5 0-1.2.9-1.5 2-.6 2.4-.3 2.5 2.3.3 2.3-2 2.7-5.3.5-5.3-.9 0-1.2.6-.9 1.5zM461.1 780.7c-3.8 4.6-3.9 4.7-7.4 10.3l-2.8 4.5 3.3-3.6c4.2-4.6 11-14 10.5-14.6-.2-.2-1.9 1.3-3.6 3.4zM465.9 783.7c-3 3.2-6.6 7.3-8.1 9-1.5 1.8-3.1 3.3-3.6 3.3s-.9.7-.9 1.5c0 1.2.6 1 2.6-.7 4.4-3.8 6.5-6.1 9.6-10.3 1.7-2.2 3.2-4.2 3.5-4.5 1.3-1.3 3.2-4 2.8-4-.3 0-2.9 2.6-5.9 5.7zM593 779c0 .5.5 1 1 1 .6 0 1-.5 1-1 0-.6-.4-1-1-1-.5 0-1 .4-1 1zM492.5 786c-1 1.1-1.5 2-1.1 2 .4 0 1.6-.9 2.8-2 1.2-1.1 1.7-2 1.1-2-.5 0-1.8.9-2.8 2zM429.2 787.2c.3.7 1 1.3 1.6 1.3.6 0 1.8.9 2.6 2 1.4 1.8 1.5 1.8 1.6.3 0-1-1.4-2.5-3.1-3.4-2.4-1.2-3-1.2-2.7-.2zM497.4 789.3c-1.7 1.8-3.7 4.3-4.5 5.7-2.1 3.5-7.2 17-6.7 17.5.2.3 1.5-2.1 2.7-5.3 4.7-11.6 7.5-16.3 10.9-17.9 3.2-1.5 4.3-3.3 2-3.3-.7 0-2.7 1.5-4.4 3.3zM235 790.8c0 1.2 1.9 2.6 2.6 1.9.2-.2-.2-1-1.1-1.7-.9-.8-1.5-.8-1.5-.2zM461.5 794.5c-3.5 3.6-3.1 4.5.5 1 1.7-1.6 3-3 3-3.2 0-.8-1.1-.1-3.5 2.2zM608.7 795.7c-.4.3-.7 1.1-.7 1.7 0 .6.5.5 1.2-.2.6-.6.9-1.4.7-1.7-.3-.3-.9-.2-1.2.2zM219.2 799c-1 1.7-1 2 .3 2 .8 0 1.5-.2 1.5-.4s.3-1.1.6-2c.9-2.3-.9-2-2.4.4zM229.9 798.7c-1.3 1.6-1.2 1.7.4.4 1.6-1.3 2.1-2.1 1.3-2.1-.2 0-1 .8-1.7 1.7zM253.8 809.7c1.2.2 3.2.2 4.5 0 1.2-.2.2-.4-2.3-.4s-3.5.2-2.2.4zM282 827c0 .5.5 1 1 1 .6 0 1-.5 1-1 0-.6-.4-1-1-1-.5 0-1 .4-1 1zM407 829.1c0 .5.5.7 1 .4.6-.3 1-.8 1-1.1 0-.2-.4-.4-1-.4-.5 0-1 .5-1 1.1z"/></svg>