<?xml version="1.0" encoding="UTF-8"?>
<!DOCTYPE svg PUBLIC "-//W3C//DTD SVG 1.1//EN" "http://www.w3.org/Graphics/SVG/1.1/DTD/svg11.dtd">
<svg xmlns="http://www.w3.org/2000/svg" version="1.1" width="48px" height="48px" style="shape-rendering:geometricPrecision; text-rendering:geometricPrecision; image-rendering:optimizeQuality; fill-rule:evenodd; clip-rule:evenodd" xmlns:xlink="http://www.w3.org/1999/xlink">
<g><path style="opacity:0.978" fill="#2cb6f6" d="M 16.5,3.5 C 36.6499,1.48275 45.4833,10.4828 43,30.5C 37.6574,41.7523 28.8241,45.9189 16.5,43C 5.24773,37.6574 1.08107,28.8241 4,16.5C 6.35314,10.3154 10.5198,5.98203 16.5,3.5 Z"/></g>
<g><path style="opacity:1" fill="#f8fcfe" d="M 22.5,30.5 C 21.8333,29.5 21.1667,28.5 20.5,27.5C 23.2956,24.2026 26.2956,21.0359 29.5,18C 24.8267,20.1746 20.16,22.6746 15.5,25.5C 13.8211,25.1077 12.1545,24.6077 10.5,24C 9.16667,23.3333 9.16667,22.6667 10.5,22C 18.1983,19.1464 25.8649,16.313 33.5,13.5C 32.2155,20.589 30.5488,27.589 28.5,34.5C 26.7541,32.7484 24.7541,31.4151 22.5,30.5 Z"/></g>
<g><path style="opacity:1" fill="#d1dbdf" d="M 20.5,27.5 C 19.0221,28.4475 18.0221,29.7809 17.5,31.5C 17.0293,29.4214 16.3627,27.4214 15.5,25.5C 20.16,22.6746 24.8267,20.1746 29.5,18C 26.2956,21.0359 23.2956,24.2026 20.5,27.5 Z"/></g>
<g><path style="opacity:1" fill="#a3c5d4" d="M 20.5,27.5 C 21.1667,28.5 21.8333,29.5 22.5,30.5C 21.2058,31.2899 20.0391,32.2899 19,33.5C 18.2828,32.9558 17.7828,32.2891 17.5,31.5C 18.0221,29.7809 19.0221,28.4475 20.5,27.5 Z"/></g>
</svg>
